<?xml version="1.0" standalone="no"?>
<!DOCTYPE svg PUBLIC "-//W3C//DTD SVG 1.1//EN" "http://www.w3.org/Graphics/SVG/1.1/DTD/svg11.dtd" >
<svg xmlns="http://www.w3.org/2000/svg" xmlns:xlink="http://www.w3.org/1999/xlink" version="1.1">
<metadata>
Created by FontForge 20200427 at Thu Oct  2 22:06:02 2014
 By www
Copyright (c) 2013 by Mika Melvas. All rights reserved.
</metadata>
<defs>
<font id="RionaSansW04-Black" horiz-adv-x="613" >
  <font-face 
    font-family="RionaSansW04-Black"
    font-weight="900"
    font-stretch="normal"
    units-per-em="1000"
    panose-1="2 0 0 0 0 0 0 0 0 0"
    ascent="800"
    descent="-200"
    x-height="527"
    cap-height="707"
    bbox="-126 -374 1285 1010"
    underline-thickness="50"
    underline-position="-125"
    unicode-range="U+0020-FB04"
  />
<missing-glyph horiz-adv-x="681" 
d="M597 706v-705h-513v705h513zM124 637v-571l193 286zM557 68v568l-193 -284zM341 386l190 282h-381zM152 39h377l-188 278z" />
    <glyph glyph-name="uniFB00" unicode="ff" horiz-adv-x="820" 
d="M462 0v359h-189v-359h-201v359h-53v157h53v28q0 63 20.5 102t53 60.5t73.5 29t83 7.5q27 0 48.5 -2.5t36.5 -4.5q18 -3 30 -6l-25 -142q-8 2 -17 4q-8 2 -18.5 3t-21.5 1q-35 0 -48.5 -14t-13.5 -44v-22h189v28q0 63 20.5 102t53 60.5t73.5 29t83 7.5q27 0 48.5 -2.5
t36.5 -4.5q18 -3 30 -6l-25 -142q-8 2 -17 4q-8 2 -18.5 3t-21.5 1q-35 0 -48.5 -14t-13.5 -44v-22h128v-157h-128v-359h-201z" />
    <glyph glyph-name="uniFB01" unicode="fi" horiz-adv-x="737" 
d="M487 0v527h201v-527h-201zM695 661q0 -48 -27.5 -69t-81.5 -21q-57 0 -83.5 22t-26.5 66t27 67.5t85 23.5q61 0 84 -24.5t23 -64.5zM72 0v359h-53v157h53v28q0 63 20.5 102t53 60.5t73.5 29t83 7.5q27 0 48.5 -2.5t36.5 -4.5q18 -3 30 -6l-25 -142q-8 2 -17 4
q-8 2 -18.5 3t-21.5 1q-35 0 -48.5 -14t-13.5 -44v-22h128v-157h-128v-359h-201z" />
    <glyph glyph-name="uniFB02" unicode="fl" horiz-adv-x="798" 
d="M774 13q-11 -6 -37.5 -15.5t-73.5 -9.5q-51 0 -84.5 14t-53 39t-27 59t-7.5 74v557h202v-534q0 -34 12.5 -44.5t33.5 -10.5q13 0 21 2q4 1 6 3zM72 0v359h-53v157h53v28q0 63 20.5 102t53 60.5t73.5 29t83 7.5q27 0 48.5 -2.5t36.5 -4.5q18 -3 30 -6l-25 -142q-8 2 -17 4
q-8 2 -18.5 3t-21.5 1q-35 0 -48.5 -14t-13.5 -44v-22h128v-157h-128v-359h-201z" />
    <glyph glyph-name="uniFB03" unicode="ffi" horiz-adv-x="1126" 
d="M462 0v358h-189v-358h-201v358h-53v158h53v28q0 63 20.5 102t53 60.5t73.5 29t83 7.5q27 0 48.5 -2.5t36.5 -4.5q18 -3 30 -6l-25 -142q-8 2 -17 4q-8 2 -18.5 3t-21.5 1q-35 0 -48.5 -14t-13.5 -44v-22h189v28q0 63 20.5 102t53 60.5t73.5 29t83 7.5q27 0 48.5 -2.5
t36.5 -4.5q18 -3 30 -6l-25 -142q-8 2 -17 4q-8 2 -18.5 3t-21.5 1q-35 0 -48.5 -14t-13.5 -44v-22h128v-158h-128v-358h-201zM876 0v527h201v-527h-201zM1084 661q0 -48 -27.5 -69t-81.5 -21q-57 0 -83.5 22t-26.5 66t27 67.5t85 23.5q61 0 84 -24.5t23 -64.5z" />
    <glyph glyph-name="uniFB04" unicode="ffl" horiz-adv-x="1187" 
d="M1163 13q-11 -6 -37.5 -15.5t-73.5 -9.5q-51 0 -84.5 14t-53 39t-27 59t-7.5 74v557h202v-534q0 -34 12.5 -44.5t33.5 -10.5q13 0 21 2q4 1 6 3zM462 0v359h-189v-359h-201v359h-53v157h53v28q0 63 20.5 102t53 60.5t73.5 29t83 7.5q27 0 48.5 -2.5t36.5 -4.5
q18 -3 30 -6l-25 -142q-8 2 -17 4q-8 2 -18.5 3t-21.5 1q-35 0 -48.5 -14t-13.5 -44v-22h189v28q0 63 20.5 102t53 60.5t73.5 29t83 7.5q27 0 48.5 -2.5t36.5 -4.5q18 -3 30 -6l-25 -142q-8 2 -17 4q-8 2 -18.5 3t-21.5 1q-35 0 -48.5 -14t-13.5 -44v-22h128v-157h-128v-359
h-201z" />
    <glyph glyph-name=".notdef" horiz-adv-x="681" 
d="M597 706v-705h-513v705h513zM124 637v-571l193 286zM557 68v568l-193 -284zM341 386l190 282h-381zM152 39h377l-188 278z" />
    <glyph glyph-name="glyph1" horiz-adv-x="0" 
 />
    <glyph glyph-name="glyph1" horiz-adv-x="0" 
 />
    <glyph glyph-name="nonmarkingreturn" horiz-adv-x="333" 
 />
    <glyph glyph-name="space" unicode=" " horiz-adv-x="210" 
 />
    <glyph glyph-name="exclam" unicode="!" horiz-adv-x="330" 
d="M69 250l-20 481h232l-20 -481h-192zM275 95q0 -47 -26 -77t-86 -30t-86 29.5t-26 77.5q0 47 26 76.5t86 29.5t86 -29.5t26 -76.5z" />
    <glyph glyph-name="quotedbl" unicode="&#x22;" horiz-adv-x="467" 
d="M58 447l-19 284h177l-19 -284h-139zM270 447l-19 284h177l-19 -284h-139z" />
    <glyph glyph-name="numbersign" unicode="#" horiz-adv-x="775" 
d="M389 0l18 167h-97l-18 -167h-171l18 167h-90v133h105l10 94h-83v133h98l20 181h172l-20 -181h96l20 181h172l-20 -181h107v-133h-122l-11 -94h101v-133h-116l-18 -167h-171zM432 394h-96l-11 -94h97z" />
    <glyph glyph-name="dollar" unicode="$" horiz-adv-x="581" 
d="M223 -96v97q-41 2 -73.5 8.5t-55.5 14.5q-27 8 -49 18l36 153q22 -11 50 -20q24 -8 58.5 -13.5t77.5 -5.5q45 0 64 11t19 32q0 24 -20.5 36.5t-58.5 24.5q-39 13 -80.5 29.5t-75 43.5t-55 67t-21.5 100q0 80 43 132t138 68v100h148v-96q32 -3 59.5 -8.5t47.5 -10.5
q24 -6 44 -12l-34 -151q-18 8 -42 14q-20 5 -49 10t-66 5q-47 0 -72.5 -8.5t-25.5 -30.5q0 -11 4.5 -19.5t17 -17t34 -17.5t55.5 -21q38 -14 74.5 -29.5t64.5 -40t45 -61t17 -90.5q0 -82 -42 -134t-129 -72v-106h-148z" />
    <glyph glyph-name="percent" unicode="%" horiz-adv-x="921" 
d="M217 719q42 0 75.5 -13.5t57 -38t36 -59t12.5 -76.5q0 -41 -11.5 -75t-34.5 -58.5t-57 -38t-79 -13.5t-79 13.5t-57 37.5t-34.5 57.5t-11.5 72.5q0 44 13.5 79.5t38 60t58 38t73.5 13.5zM217 615q-24 0 -35.5 -21.5t-11.5 -61.5q0 -38 10.5 -60t34.5 -22t35.5 21.5
t11.5 62.5q0 38 -11 59.5t-34 21.5zM756 707l-475 -707h-114l475 707h114zM706 360q42 0 75.5 -13.5t57 -38t36 -59t12.5 -76.5q0 -41 -11.5 -75t-34.5 -58.5t-57 -38t-79 -13.5t-79 13.5t-57 37.5t-34.5 57.5t-11.5 72.5q0 44 13.5 79.5t38 60t58 38t73.5 13.5zM706 256
q-24 0 -35.5 -21.5t-11.5 -61.5q0 -38 10.5 -60t34.5 -22t35.5 21.5t11.5 62.5q0 38 -11 59.5t-34 21.5z" />
    <glyph glyph-name="ampersand" unicode="&#x26;" horiz-adv-x="736" 
d="M697 300h-39q-16 0 -34 1q3 -14 6 -30l4.5 -31.5t2.5 -35.5q0 -44 -15 -83t-50 -68.5t-92 -47t-142 -17.5q-83 0 -138 16t-89 44t-48 64.5t-14 77.5q0 57 20 93t44 58q28 26 65 39q-26 12 -46 34q-17 18 -31.5 48.5t-14.5 75.5q0 42 15.5 79t49.5 64.5t86.5 43.5
t127.5 16q45 0 77.5 -5t55.5 -11q26 -7 45 -16l-27 -142q-17 5 -36 9q-17 4 -39.5 7t-48.5 3q-35 0 -56.5 -6t-33.5 -15.5t-16 -21.5t-4 -24q0 -30 22 -47t79 -17h32t59.5 0.5t72.5 1t71 1t55 0.5h24v-158zM345 304q-49 0 -70 -26t-21 -59q0 -34 21.5 -55t66.5 -21
q48 0 77.5 26t29.5 80q0 8 -1 26t-4 29h-99z" />
    <glyph glyph-name="quotesingle" unicode="'" horiz-adv-x="249" 
d="M55 447l-19 284h177l-19 -284h-139z" />
    <glyph glyph-name="parenleft" unicode="(" horiz-adv-x="354" 
d="M183 -241q-40 60 -72 138q-27 66 -49.5 160t-22.5 212q0 117 22.5 211t49.5 160q32 77 72 138l157 -66q-28 -51 -49 -119q-19 -58 -34 -140t-15 -185t15 -185t34 -139q21 -68 49 -119z" />
    <glyph glyph-name="parenright" unicode=")" horiz-adv-x="354" 
d="M14 -175q27 51 49 119q18 57 33.5 139t15.5 185t-15.5 185t-33.5 140q-22 68 -49 119l157 66q40 -61 72 -138q27 -66 49.5 -160t22.5 -211q0 -118 -22.5 -212t-49.5 -160q-32 -78 -72 -138z" />
    <glyph glyph-name="asterisk" unicode="*" horiz-adv-x="419" 
d="M263 388l-54 96l-53 -96l-100 72l76 80l-98 20l38 117l89 -42l-12 96h123l-13 -96l89 42l37 -117l-98 -20l76 -80z" />
    <glyph glyph-name="plus" unicode="+" horiz-adv-x="597" 
d="M215 63v170h-166v167h166v170h167v-170h166v-167h-166v-170h-167z" />
    <glyph glyph-name="comma" unicode="," horiz-adv-x="300" 
d="M37 -105q7 4 20.5 15.5t27 26.5t24 32t13.5 31q-23 1 -37.5 9.5t-23.5 21.5t-12.5 30t-3.5 35q0 44 25 72t84 28q22 0 42 -7t35 -22t23.5 -38.5t8.5 -56.5q0 -50 -18.5 -91t-42 -71t-46 -48t-31.5 -21z" />
    <glyph glyph-name="hyphen" unicode="-" horiz-adv-x="381" 
d="M44 204v163h293v-163h-293z" />
    <glyph glyph-name="period" unicode="." horiz-adv-x="292" 
d="M255 92q0 -45 -25 -74.5t-84 -29.5t-84 28.5t-25 75.5q0 45 25 74t84 29t84 -29t25 -74z" />
    <glyph glyph-name="slash" unicode="/" horiz-adv-x="476" 
d="M29 0l226 707h192l-227 -707h-191z" />
    <glyph glyph-name="zero" unicode="0" horiz-adv-x="665" 
d="M327 -12q-76 0 -131 24.5t-91 70.5t-53.5 113t-17.5 152q0 178 74.5 274.5t226.5 96.5q151 0 223.5 -95t72.5 -266q0 -87 -18.5 -155.5t-56 -116t-94.5 -73t-135 -25.5zM334 150q52 0 72 51.5t20 155.5q0 100 -19 150t-72 50q-55 0 -75.5 -52.5t-20.5 -149.5
q0 -103 20.5 -154t74.5 -51z" />
    <glyph glyph-name="one" unicode="1" horiz-adv-x="410" 
d="M136 0v532l-112 -21l-20 139l216 57h121v-707h-205z" />
    <glyph glyph-name="two" unicode="2" horiz-adv-x="598" 
d="M48 0l-14 162q86 51 155 105q29 23 57 48.5t50 52.5t35.5 54.5t13.5 54.5q0 33 -26 56.5t-89 23.5q-32 0 -60.5 -5.5t-51.5 -12.5q-26 -8 -49 -18l-28 147q30 14 67 25q32 10 75.5 18t97.5 8q72 0 123.5 -16.5t83.5 -46t47 -70t15 -88.5q0 -53 -16 -98.5t-40.5 -83.5
t-53 -67t-54 -49t-43.5 -31.5t-21 -12.5l64 7h154v-163h-492z" />
    <glyph glyph-name="three" unicode="3" horiz-adv-x="568" 
d="M53 176q15 -8 37 -13q19 -5 47 -9t66 -4q61 0 95 15t34 53q0 31 -27 45t-97 14q-14 0 -26.5 -0.5t-21.5 -1.5q-11 -1 -19 -1v158q8 -1 18 -2q8 -1 19.5 -1h23.5q59 0 89.5 15t30.5 51q0 34 -29 48t-91 14q-32 0 -58 -3t-45 -6q-22 -4 -40 -9l-24 146q22 9 54 17
q27 6 67 11.5t94 5.5q148 0 212.5 -47t64.5 -135q0 -60 -26.5 -100.5t-76.5 -63.5q24 -8 44.5 -22t36 -34t24 -48t8.5 -64q0 -57 -22 -98t-63 -67.5t-99.5 -39t-132.5 -12.5q-49 0 -84 4.5t-58 9.5q-27 6 -46 14z" />
    <glyph glyph-name="four" unicode="4" horiz-adv-x="644" 
d="M20 290l266 417h257v-415h79v-159h-79v-133h-205v133h-298zM338 292v150l4 71l-134 -221h130z" />
    <glyph glyph-name="five" unicode="5" horiz-adv-x="583" 
d="M56 174q16 -7 37 -12q18 -5 44.5 -8.5t59.5 -3.5q46 0 74.5 7.5t44 19.5t20.5 26t5 27q0 44 -41.5 60t-108.5 16q-27 0 -51.5 -2t-43.5 -4q-22 -3 -41 -5l14 412h435v-162h-242l-4 -92h7q4 0 9.5 0.5t13.5 0.5q44 0 89.5 -9.5t83 -34t61.5 -67.5t24 -110
q0 -24 -4.5 -51.5t-17 -54.5t-35 -52.5t-58.5 -44.5t-88 -30.5t-123 -11.5q-44 0 -77 3.5t-56 8.5q-26 5 -45 13z" />
    <glyph glyph-name="six" unicode="6" horiz-adv-x="608" 
d="M506 537q-14 6 -32 10q-15 4 -36 7t-47 3q-38 0 -63.5 -8t-42.5 -23t-26.5 -37t-15.5 -50q15 7 33 12q16 5 38 9t50 4q55 0 96 -17.5t68 -47.5t40 -71t13 -89q0 -51 -15.5 -96.5t-48.5 -80t-84 -54.5t-123 -20q-90 0 -144 30.5t-83.5 78.5t-39 107t-9.5 116
q0 88 17.5 161.5t57.5 126t104 82t157 29.5q38 0 67 -4.5t49 -9.5q24 -6 41 -13zM238 294q0 -32 2 -59t8.5 -46.5t20 -30t36.5 -10.5q32 0 51.5 21.5t19.5 66.5q0 79 -67 79q-15 0 -28 -3.5t-23 -7.5q-11 -4 -20 -10z" />
    <glyph glyph-name="seven" unicode="7" horiz-adv-x="531" 
d="M57 0l188 451l47 94h-268v162h479l6 -153l-229 -554h-223z" />
    <glyph glyph-name="eight" unicode="8" horiz-adv-x="632" 
d="M494 368q29 -15 53 -41q20 -22 37 -56.5t17 -83.5q0 -51 -20.5 -88t-58.5 -62t-92 -37t-121 -12q-135 0 -206.5 47.5t-71.5 144.5q0 49 16 82.5t36 53.5q23 24 53 38q-25 15 -44 38q-17 20 -30.5 50.5t-13.5 74.5q0 43 16.5 80t50 64t84.5 42.5t121 15.5q68 0 118 -14.5
t82.5 -40t48 -59t15.5 -71.5q0 -41 -14 -71.5t-31 -51.5q-20 -25 -45 -43zM301 278q-24 -11 -43 -29t-19 -46q0 -24 18 -42t58 -18q41 0 59.5 18t18.5 41q0 29 -25.5 45.5t-66.5 30.5zM329 432q52 35 52 80q0 27 -16.5 42.5t-47.5 15.5t-48.5 -15.5t-17.5 -43.5
q0 -30 21 -47.5t57 -31.5z" />
    <glyph glyph-name="nine" unicode="9" horiz-adv-x="608" 
d="M102 170q14 -6 32 -10q15 -4 36 -7t47 -3q38 0 63.5 8t42.5 23t26.5 37t15.5 50q-15 -8 -33 -13q-16 -5 -38 -8.5t-50 -3.5q-55 0 -96 17.5t-68 47.5t-40 71t-13 89q0 51 15.5 96.5t48.5 80t84 54.5t123 20q90 0 144 -30.5t83.5 -78.5t39 -107t9.5 -116
q0 -88 -17.5 -161.5t-57.5 -126t-104 -82t-157 -29.5q-38 0 -67 4t-49 9q-24 6 -41 14zM370 413q0 32 -2 59t-8.5 46.5t-20 30t-36.5 10.5q-32 0 -51.5 -21.5t-19.5 -66.5q0 -79 67 -79q15 0 27.5 3t22.5 7q11 4 21 11z" />
    <glyph glyph-name="colon" unicode=":" horiz-adv-x="332" 
d="M275 92q0 -45 -25 -74.5t-84 -29.5t-84 28.5t-25 75.5q0 45 25 74t84 29t84 -29t25 -74zM275 417q0 -45 -25 -74.5t-84 -29.5t-84 28.5t-25 75.5q0 45 25 74t84 29t84 -29t25 -74z" />
    <glyph glyph-name="semicolon" unicode=";" horiz-adv-x="341" 
d="M284 417q0 -45 -25 -74.5t-84 -29.5t-84 28.5t-25 75.5q0 45 25 74t84 29t84 -29t25 -74zM58 -105q7 4 20.5 15.5t27 26.5t24 32t13.5 31q-23 1 -37.5 9.5t-23.5 21.5t-12.5 30t-3.5 35q0 44 25 72t84 28q22 0 42 -7t35 -22t23.5 -38.5t8.5 -56.5q0 -50 -18.5 -91
t-42 -71t-46 -48t-31.5 -21z" />
    <glyph glyph-name="less" unicode="&#x3c;" horiz-adv-x="576" 
d="M54 195v193l458 195v-189l-241 -103l241 -102v-189z" />
    <glyph glyph-name="equal" unicode="=" horiz-adv-x="568" 
d="M44 353v162h480v-162h-480zM44 121v162h480v-162h-480z" />
    <glyph glyph-name="greater" unicode="&#x3e;" horiz-adv-x="576" 
d="M64 0v189l240 102l-240 103v189l458 -195v-193z" />
    <glyph glyph-name="question" unicode="?" horiz-adv-x="567" 
d="M132 251q-3 8 -5 18q-2 8 -3 19.5t-1 25.5q0 41 14 68.5t35.5 46.5t46.5 31.5t46.5 23t35.5 22.5t14 30q0 20 -22.5 32.5t-79.5 12.5q-38 0 -65.5 -5.5t-44.5 -11.5q-20 -8 -34 -17l-25 155q26 11 59 20q29 8 69 14.5t91 6.5q57 0 103.5 -10t80.5 -32.5t52.5 -58.5
t18.5 -88q0 -47 -14 -77t-35 -50t-46 -33.5t-46 -27t-35 -31t-14 -45.5v-11.5t1 -12.5q0 -7 1 -15h-198zM343 95q0 -47 -26 -77t-86 -30t-86 29.5t-26 77.5q0 47 26 76.5t86 29.5t86 -29.5t26 -76.5z" />
    <glyph glyph-name="at" unicode="@" horiz-adv-x="1010" 
d="M423 76q-62 0 -95.5 45t-33.5 123q0 41 11.5 87t39.5 84.5t75.5 64t120.5 25.5q35 0 66.5 -5.5t55.5 -11.5q28 -8 53 -17l-32 -232q0 -14 9 -24t28 -10q22 0 37.5 14.5t26 37t15.5 51t5 55.5q0 42 -12.5 83.5t-43.5 74.5t-83 54t-131 21q-87 0 -149.5 -26t-102 -70.5
t-58 -103t-18.5 -122.5q0 -54 14 -106t50 -92.5t97.5 -65t156.5 -24.5q43 0 79 5t62 11q31 7 55 17l22 -140q-28 -12 -64 -21q-31 -8 -75 -14t-100 -6q-123 0 -210.5 36t-143 96t-81 138.5t-25.5 164.5q0 92 29 177t89 150t152 104t219 39q119 0 201.5 -33.5t134 -86.5
t74.5 -118t23 -128q0 -59 -18 -114t-51 -97t-80.5 -67.5t-107.5 -25.5q-48 0 -77.5 14.5t-45.5 32.5q-19 21 -27 48q-13 -26 -32 -46q-17 -17 -42.5 -31.5t-61.5 -14.5zM483 209q11 0 19 5.5t14 13.5q7 8 12 19l18 135q-5 1 -9 2t-9 2t-10 1q-19 0 -31.5 -12.5t-20 -30.5
t-10.5 -39t-3 -39q0 -57 30 -57z" />
    <glyph glyph-name="A" unicode="A" horiz-adv-x="730" 
d="M491 707l225 -707h-208l-37 132h-212l-37 -132h-208l225 707h252zM343 426l-44 -148h131l-43 148l-22 94z" />
    <glyph glyph-name="B" unicode="B" horiz-adv-x="682" 
d="M59 0v707h298q54 0 102 -7.5t84 -27.5t56.5 -55.5t20.5 -91.5q0 -48 -18.5 -90.5t-64.5 -63.5q106 -38 106 -166q0 -106 -71.5 -155.5t-214.5 -49.5h-298zM341 154q55 0 76 16.5t21 54.5t-21.5 51t-75.5 13h-77v-135h77zM344 425q42 0 63 14t21 54q0 41 -22.5 51.5
t-64.5 10.5h-77v-130h80z" />
    <glyph glyph-name="C" unicode="C" horiz-adv-x="622" 
d="M241 354q0 -55 15.5 -92.5t41.5 -60.5t60.5 -33t72.5 -10q24 0 45 3t37 7q18 4 33 11l27 -161q-18 -9 -44 -15q-22 -6 -54 -10.5t-74 -4.5q-95 0 -164 26t-113.5 74t-66 115t-21.5 150t23.5 150.5t69.5 115.5t115 74t160 26q42 0 74 -5t53 -10q25 -7 42 -15l-27 -161
q-15 6 -33 10q-16 4 -37 7.5t-46 3.5q-38 0 -72 -10t-60 -33t-41.5 -60t-15.5 -92z" />
    <glyph glyph-name="D" unicode="D" horiz-adv-x="723" 
d="M59 707h269q107 0 176.5 -27.5t110 -75.5t56.5 -113t16 -139q0 -73 -17 -137t-58 -112t-110 -75.5t-174 -27.5h-269v707zM360 168q32 0 55 14t38 38.5t22 58.5t7 74t-6.5 74.5t-21.5 59.5t-38.5 39t-57.5 14h-94v-372h96z" />
    <glyph glyph-name="E" unicode="E" horiz-adv-x="629" 
d="M59 0v707h518v-167h-313v-102h267v-168h-267v-102h313v-168h-518z" />
    <glyph glyph-name="F" unicode="F" horiz-adv-x="612" 
d="M264 242v-242h-205v707h509v-167h-304v-131h262v-167h-262z" />
    <glyph glyph-name="G" unicode="G" horiz-adv-x="675" 
d="M241 351q0 -53 14 -90t38.5 -60t57.5 -33t71 -10h3v188h196v-324q-27 -10 -60 -17q-29 -7 -67 -12t-85 -5q-99 0 -169.5 27t-115.5 75.5t-66.5 114.5t-21.5 144q0 84 24 152t71 116.5t118 75t166 26.5q42 0 76 -4.5t60 -9.5q29 -6 53 -14l-29 -163q-18 6 -40 10
q-19 4 -43.5 7.5t-51.5 3.5q-42 0 -78.5 -10t-63 -33t-42 -61t-15.5 -94z" />
    <glyph glyph-name="H" unicode="H" horiz-adv-x="747" 
d="M483 0v258h-219v-258h-205v707h205v-266h219v266h205v-707h-205z" />
    <glyph glyph-name="I" unicode="I" horiz-adv-x="329" 
d="M62 0v707h205v-707h-205z" />
    <glyph glyph-name="J" unicode="J" horiz-adv-x="462" 
d="M203 707h205v-459q0 -55 -12.5 -102.5t-42.5 -82.5t-79 -55t-121 -20q-34 0 -58 3.5t-40 8.5q-18 5 -31 12l14 158q9 -4 20 -8q10 -3 23 -5t30 -2q42 0 67 21t25 73v458z" />
    <glyph glyph-name="K" unicode="K" horiz-adv-x="708" 
d="M459 0l-163 256h-32v-256h-205v707h205v-288q11 2 17 4t9 4q4 2 5 3q10 14 23 33.5t26.5 41.5t27.5 45.5t27 46.5q30 53 62 110h220q-3 -12 -15 -36t-29.5 -55t-39.5 -66.5t-44.5 -71t-44 -68.5t-38.5 -58l221 -352h-232z" />
    <glyph glyph-name="L" unicode="L" horiz-adv-x="562" 
d="M59 0v707h205v-535h259v-172h-464z" />
    <glyph glyph-name="M" unicode="M" horiz-adv-x="919" 
d="M330 707l129 -364l130 364h235l51 -707h-207l-23 348l-1 72l-114 -306h-141l-114 305l-1 -69l-23 -350h-207l51 707h235z" />
    <glyph glyph-name="N" unicode="N" horiz-adv-x="748" 
d="M490 0l-238 364l6 -81v-283h-199v707h195l242 -384l-5 88v296h198v-707h-199z" />
    <glyph glyph-name="O" unicode="O" horiz-adv-x="763" 
d="M376 -12q-86 0 -149.5 26.5t-106 74t-63.5 114t-21 146.5q0 82 22 150.5t66 117t109 75.5t151 27q85 0 149.5 -26.5t107.5 -74t64.5 -114t21.5 -146.5q0 -81 -22 -148.5t-66 -117t-109.5 -77t-153.5 -27.5zM383 155q66 0 102.5 49t36.5 152q0 100 -36 148t-102 48
q-69 0 -106 -49.5t-37 -148.5q0 -102 38 -150.5t104 -48.5z" />
    <glyph glyph-name="P" unicode="P" horiz-adv-x="681" 
d="M59 0v707h288q86 0 142 -19t89 -52t46 -78.5t13 -99.5q0 -50 -13 -96t-45.5 -81.5t-88.5 -57t-142 -21.5h-84v-202h-205zM338 369q29 0 47 6.5t28.5 18t14 27.5t3.5 36t-3.5 35.5t-14 26t-28.5 16t-47 5.5h-74v-171h74z" />
    <glyph glyph-name="Q" unicode="Q" horiz-adv-x="763" 
d="M592 -201q-16 -7 -47 -11t-59 -4q-62 0 -100 19.5t-58.5 47.5t-27.5 59.5t-7 56.5q0 5 0.5 14.5t0.5 14.5q-65 12 -113.5 42.5t-80.5 76t-48 105t-16 129.5q0 82 22 150.5t66 117t109 75.5t151 27q85 0 149.5 -26.5t107.5 -74t64.5 -114t21.5 -146.5q0 -73 -18 -135.5
t-53.5 -110t-88.5 -78.5t-124 -41q0 -6 3 -14.5t11 -16t22.5 -13t38.5 -5.5q28 0 46 5q10 2 18 5zM383 155q66 0 102.5 49t36.5 152q0 100 -36 148t-102 48q-69 0 -106 -49.5t-37 -148.5q0 -102 38 -150.5t104 -48.5z" />
    <glyph glyph-name="R" unicode="R" horiz-adv-x="698" 
d="M362 707q86 0 141.5 -17.5t87.5 -49.5t44 -76.5t12 -98.5q0 -69 -27 -124.5t-92 -87.5l134 -253h-221l-113 222h-64v-222h-205v707h303zM264 382h74q63 0 83.5 21t20.5 61t-20.5 59t-83.5 19h-74v-160z" />
    <glyph glyph-name="S" unicode="S" horiz-adv-x="606" 
d="M78 194q22 -12 52 -22q25 -8 60.5 -15t79.5 -7t71 10.5t27 33.5q0 24 -20 35t-65 25q-41 13 -85 30t-80.5 44.5t-60 68.5t-23.5 103q0 106 73.5 162.5t210.5 56.5q52 0 93 -7t70 -15q33 -10 59 -21l-40 -155q-19 10 -45 18q-23 7 -54.5 12.5t-73.5 5.5q-51 0 -70.5 -11.5
t-19.5 -34.5q0 -11 5 -18.5t18.5 -15t37 -16.5t61.5 -22q41 -14 79.5 -30.5t68 -41.5t47.5 -62t18 -92q0 -109 -81 -167t-223 -58q-58 0 -100.5 7.5t-71.5 16.5q-33 11 -57 25z" />
    <glyph glyph-name="T" unicode="T" horiz-adv-x="637" 
d="M216 0v529h-197v178h599v-178h-197v-529h-205z" />
    <glyph glyph-name="U" unicode="U" horiz-adv-x="719" 
d="M460 707h205v-411q0 -75 -17 -132.5t-53.5 -96.5t-95 -59t-140.5 -20q-83 0 -140.5 20t-94.5 59t-53.5 96.5t-16.5 132.5v411h205v-417q0 -29 4 -53.5t15.5 -42.5t31 -28.5t49.5 -10.5t50 10.5t31 28.5t15.5 42.5t4.5 53.5v417z" />
    <glyph glyph-name="V" unicode="V" horiz-adv-x="700" 
d="M217 707l111 -426l22 -94l22 94l111 426h208l-212 -707h-258l-212 707h208z" />
    <glyph glyph-name="W" unicode="W" horiz-adv-x="1000" 
d="M224 707l63 -382l13 -91l19 90l92 383h179l91 -382l19 -91l13 91l63 382h215l-161 -707h-218l-94 350l-18 74l-18 -74l-94 -350h-218l-161 707h215z" />
    <glyph glyph-name="X" unicode="X" horiz-adv-x="764" 
d="M510 0l-127 199l-133 -199h-229l239 355l-224 352h232l118 -215l130 215h224l-237 -367l240 -340h-233z" />
    <glyph glyph-name="Y" unicode="Y" horiz-adv-x="701" 
d="M248 0v243l-239 464h216l104 -234l22 -62l22 63l100 233h219l-238 -462v-245h-206z" />
    <glyph glyph-name="Z" unicode="Z" horiz-adv-x="652" 
d="M46 0v168l304 375l-71 -3h-220v167h540v-167l-306 -377l78 5h235v-168h-560z" />
    <glyph glyph-name="bracketleft" unicode="[" horiz-adv-x="389" 
d="M64 -203v974h286v-173h-95v-628h95v-173h-286z" />
    <glyph glyph-name="backslash" unicode="\" horiz-adv-x="476" 
d="M256 0l-227 707h192l226 -707h-191z" />
    <glyph glyph-name="bracketright" unicode="]" horiz-adv-x="389" 
d="M39 -203v173h95v628h-95v174h286v-975h-286z" />
    <glyph glyph-name="asciicircum" unicode="^" horiz-adv-x="609" 
d="M386 414l-82 147l-81 -147h-187l175 317h187l175 -317h-187z" />
    <glyph glyph-name="underscore" unicode="_" horiz-adv-x="558" 
d="M-6 -204v163h570v-163h-570z" />
    <glyph glyph-name="grave" unicode="`" horiz-adv-x="351" 
d="M161 592l-132 179h204l89 -179h-161z" />
    <glyph glyph-name="a" unicode="a" horiz-adv-x="574" 
d="M63 499q27 11 61 20q29 8 70.5 14t93.5 6q57 0 102 -10t76 -32.5t47.5 -59.5t16.5 -91v-346h-158l-17 56q-16 -19 -40 -34q-20 -13 -51.5 -23.5t-74.5 -10.5q-74 0 -116.5 42.5t-42.5 109.5q0 81 69.5 125.5t222.5 45.5h7v15q0 31 -21 45t-69 14q-32 0 -59 -5.5
t-47 -12.5q-24 -8 -42 -17zM329 204q-4 1 -9 2t-10.5 1.5t-13.5 0.5q-32 0 -50 -11.5t-18 -34.5q0 -20 13.5 -30.5t36.5 -10.5q12 0 21.5 2.5t16.5 5.5q8 4 13 9v66z" />
    <glyph glyph-name="b" unicode="b" horiz-adv-x="612" 
d="M49 731h201v-192l-4 -57q16 16 37 28q18 11 44 20t59 9q45 0 81 -18.5t62 -52t40 -81.5t14 -107q0 -75 -23.5 -130t-65 -91t-98 -53.5t-123.5 -17.5q-51 0 -92.5 5.5t-70.5 12.5q-34 8 -61 18v707zM250 148q6 -2 14 -4q7 -2 15 -3t19 -1q45 0 64.5 29.5t19.5 91.5
q0 51 -15.5 84t-57.5 33q-13 0 -23.5 -3t-18.5 -6q-10 -4 -17 -8v-213z" />
    <glyph glyph-name="c" unicode="c" horiz-adv-x="500" 
d="M436 369q-12 3 -26 7q-12 3 -28 5.5t-34 2.5q-54 0 -86 -27.5t-32 -93.5q0 -65 32.5 -92.5t87.5 -27.5q17 0 33 2t28 5q14 3 25 7l25 -144q-19 -8 -42 -13q-20 -5 -47.5 -8.5t-60.5 -3.5q-137 0 -209.5 72t-72.5 203q0 133 74 204.5t213 71.5q34 0 60.5 -3.5t45.5 -8.5
q22 -5 39 -12l-25 -146v0z" />
    <glyph glyph-name="d" unicode="d" horiz-adv-x="612" 
d="M401 0l-23 59q-16 -20 -38 -36q-19 -14 -47 -24.5t-66 -10.5q-43 0 -79 17t-62.5 50t-41.5 81.5t-15 111.5q0 78 22 133t60 90.5t88.5 51.5t106.5 16q17 0 31 -1.5t27 -3.5l-2 31v166h201v-731h-162zM362 378q-6 2 -14 4q-7 2 -15.5 3t-18.5 1q-45 0 -64.5 -29t-19.5 -91
q0 -51 15.5 -84t57.5 -33q12 0 23 2.5t19 5.5q10 4 17 9v212z" />
    <glyph glyph-name="e" unicode="e" horiz-adv-x="572" 
d="M510 24q-25 -10 -58 -18q-28 -7 -66 -12.5t-84 -5.5q-77 0 -129 20.5t-84 56.5t-46 85t-14 106q0 66 17.5 118t51 89t83.5 56.5t115 19.5q62 0 107 -18t74.5 -48.5t44 -72.5t14.5 -90q0 -20 -2 -38.5t-4 -32.5q-3 -17 -6 -32h-293q5 -37 32.5 -53.5t81.5 -16.5
q32 0 57.5 4t44.5 9q22 6 39 14zM343 332q0 31 -12 48t-42 17q-32 0 -45 -20.5t-14 -59.5h113v15z" />
    <glyph glyph-name="f" unicode="f" horiz-adv-x="431" 
d="M72 0v360h-53v157h53v27q0 63 20.5 102t53 60.5t73.5 29t83 7.5q27 0 48.5 -2.5t36.5 -4.5q18 -3 30 -6l-25 -142q-8 2 -17 4q-8 2 -18.5 3t-21.5 1q-35 0 -48.5 -14t-13.5 -44v-21h128v-157h-128v-360h-201z" />
    <glyph glyph-name="g" unicode="g" horiz-adv-x="620" 
d="M520 395q1 -5 2 -11q1 -5 1.5 -11.5t0.5 -12.5q0 -40 -15 -72.5t-46.5 -56t-79 -36.5t-112.5 -13h-15.5t-15.5 1q-1 -1 -2 -3q-2 -4 -2 -10q0 -17 25 -18l124 -8q31 -2 64.5 -8.5t61.5 -22.5t46 -43.5t18 -70.5q0 -41 -16.5 -79.5t-54.5 -68.5t-99.5 -48.5t-151.5 -18.5
q-126 0 -185 33t-59 86q0 42 32 70t83 42q-21 7 -34.5 17t-21.5 22t-11 23.5t-3 21.5q0 32 24 59.5t58 42.5q-45 19 -75 57.5t-30 98.5q0 45 18 79t51 57t79.5 34.5t102.5 11.5q45 0 84.5 -7.5t69.5 -22.5l157 20l9 -134h-82zM230 0q-7 -6 -12 -13q-5 -6 -8 -15t-3 -19
q0 -20 17.5 -35t61.5 -15q42 0 70.5 14.5t28.5 40.5q0 17 -15 27.5t-49 12.5zM339 356q0 33 -18 49.5t-44 16.5q-28 0 -44.5 -17.5t-16.5 -49.5q0 -29 15.5 -46.5t45.5 -17.5q32 0 47 18.5t15 46.5z" />
    <glyph glyph-name="h" unicode="h" 
d="M250 731v-197l-3 -56q6 7 19 17t31.5 20t43.5 17t57 7q82 0 126.5 -53.5t44.5 -146.5v-339h-201v319q0 34 -15.5 47.5t-40.5 13.5q-13 0 -24 -3t-19 -6q-10 -4 -19 -9v-362h-201v731h201z" />
    <glyph glyph-name="i" unicode="i" horiz-adv-x="299" 
d="M49 0v527h201v-527h-201zM257 661q0 -48 -27.5 -69t-81.5 -21q-57 0 -83.5 22t-26.5 66t27 67.5t85 23.5q61 0 84 -24.5t23 -64.5z" />
    <glyph glyph-name="j" unicode="j" horiz-adv-x="300" 
d="M-53 -58q6 -2 12 -3q5 -1 12.5 -1.5t15.5 -0.5q32 0 48 15t16 48v527h200v-524q0 -107 -58.5 -163t-164.5 -56q-17 0 -33.5 1t-28.5 3q-15 2 -27 4zM258 661q0 -48 -27.5 -69t-81.5 -21q-57 0 -83.5 22t-26.5 66t27 67.5t85 23.5q61 0 84 -24.5t23 -64.5z" />
    <glyph glyph-name="k" unicode="k" 
d="M380 0q-2 3 -7.5 13t-13.5 24.5t-18 31.5t-20 35q-24 41 -53 92h-18v-196h-201v731h201v-401q11 4 15.5 5t15.5 6q9 11 25.5 42t33.5 63q19 38 42 81h213q-3 -14 -19 -46t-38 -71t-46 -78.5t-42 -67.5l159 -264h-229z" />
    <glyph glyph-name="l" unicode="l" horiz-adv-x="356" 
d="M332 13q-11 -6 -37.5 -15.5t-73.5 -9.5q-51 0 -84.5 14t-53 39t-27 59t-7.5 74v557h202v-534q0 -34 12.5 -44.5t33.5 -10.5q13 0 21 2q4 1 6 3z" />
    <glyph glyph-name="m" unicode="m" horiz-adv-x="912" 
d="M210 527l24 -57q17 19 41 34q20 13 50.5 24t69.5 11q96 0 136 -69q4 4 18 15.5t36.5 23.5t52.5 21t66 9q82 0 123 -53.5t41 -146.5v-339h-201v319q0 34 -13 47.5t-38 13.5q-12 0 -22 -3t-18 -6q-9 -4 -17 -9v-362h-201v319q0 34 -13 47.5t-38 13.5q-12 0 -22 -3t-18 -6
q-9 -4 -17 -9v-362h-201v527h161z" />
    <glyph glyph-name="n" unicode="n" 
d="M210 527l24 -57q18 19 43 34q21 13 51.5 24t69.5 11q82 0 126.5 -53.5t44.5 -146.5v-339h-201v319q0 34 -15.5 47.5t-40.5 13.5q-13 0 -24 -3t-19 -6q-10 -4 -19 -9v-362h-201v527h161z" />
    <glyph glyph-name="o" unicode="o" horiz-adv-x="610" 
d="M305 -12q-66 0 -117.5 19.5t-87 55.5t-53.5 87t-18 114t18 114t53.5 86.5t87 55t117.5 19.5t117.5 -19.5t87 -55t53.5 -86.5t18 -114t-18 -114t-53.5 -87t-87 -55.5t-117.5 -19.5zM305 141q42 0 58.5 33.5t16.5 89.5t-16 89t-59 33q-42 0 -58.5 -33t-16.5 -89t16.5 -89.5
t58.5 -33.5z" />
    <glyph glyph-name="p" unicode="p" horiz-adv-x="612" 
d="M211 527l23 -59q16 19 38 35q19 14 47 25t66 11q43 0 79 -17t62.5 -50.5t41.5 -82t15 -111.5q0 -78 -22 -133t-60 -90t-88.5 -51t-106.5 -16q-17 0 -31.5 1.5t-26.5 3.5l2 -31v-186h-201v751h162zM250 149q6 -2 14 -4q7 -2 15 -3t19 -1q45 0 64.5 29t19.5 91
q0 51 -15.5 84t-57.5 33q-13 0 -23.5 -3t-18.5 -6q-10 -4 -17 -8v-212z" />
    <glyph glyph-name="q" unicode="q" horiz-adv-x="612" 
d="M563 -204h-201v192l4 57q-16 -17 -37 -29q-18 -11 -44.5 -19.5t-60.5 -8.5q-44 0 -80 18.5t-61.5 52t-39.5 81.5t-14 108q0 75 23.5 130t65 90.5t98.5 53t125 17.5q49 0 90 -5.5t70 -12.5q34 -8 62 -18v-707zM362 379q-6 2 -14 4q-7 2 -15.5 3t-18.5 1q-45 0 -64.5 -29.5
t-19.5 -91.5q0 -51 15.5 -84t57.5 -33q12 0 23 2.5t19 5.5q10 4 17 9v213z" />
    <glyph glyph-name="r" unicode="r" horiz-adv-x="420" 
d="M210 527l24 -59q26 31 68.5 51t99.5 20l-7 -174q-4 0 -8 1q-5 0 -11 0.5t-16 0.5q-26 0 -46.5 -4t-34.5 -9q-17 -5 -29 -12v-342h-201v527h161z" />
    <glyph glyph-name="s" unicode="s" horiz-adv-x="506" 
d="M63 165q20 -11 45 -19q21 -8 49.5 -13.5t63.5 -5.5q29 0 47 5.5t18 18.5q0 16 -19.5 21.5t-54.5 14.5q-28 7 -60 18t-59 31t-45 51t-18 79q0 37 13.5 69t42 55t74 36t109.5 13q44 0 78 -5.5t57 -11.5q27 -8 47 -17l-32 -139q-19 8 -42 15q-20 5 -45 10t-54 5
q-62 0 -62 -25q0 -16 26 -22.5t71 -19.5q80 -23 120.5 -59t40.5 -107q0 -90 -65.5 -132.5t-180.5 -42.5q-49 0 -85.5 5.5t-62.5 13.5q-30 9 -51 20z" />
    <glyph glyph-name="t" unicode="t" horiz-adv-x="422" 
d="M393 12q-16 -7 -37 -12q-18 -5 -43 -8.5t-56 -3.5q-43 0 -77.5 9.5t-58.5 33.5t-37 64t-13 100v175h-52v157h56l23 131h175v-131h114l-6 -157h-107v-174q0 -29 15 -39.5t41 -10.5q23 0 36 5q7 2 13 5z" />
    <glyph glyph-name="u" unicode="u" 
d="M245 527v-319q0 -34 15.5 -47.5t40.5 -13.5q12 0 23.5 2.5t19.5 6.5q10 4 19 9v362h201v-527h-161l-24 57q-18 -20 -43 -35q-21 -13 -51.5 -23.5t-69.5 -10.5q-82 0 -126.5 53.5t-44.5 146.5v339h201z" />
    <glyph glyph-name="v" unicode="v" horiz-adv-x="571" 
d="M208 527l54 -244l23 -147l24 147l54 244h204l-148 -527h-267l-148 527h204z" />
    <glyph glyph-name="w" unicode="w" horiz-adv-x="849" 
d="M201 527l41 -227l21 -159l23 160l47 226h183l48 -228l23 -158l21 160l40 226h207l-134 -527h-232l-26 117l-39 196l-37 -196l-26 -117h-232l-135 527h207z" />
    <glyph glyph-name="x" unicode="x" horiz-adv-x="556" 
d="M200 527l77 -139l77 139h205l-164 -267l164 -260h-205l-77 134l-77 -134h-205l164 260l-164 267h205z" />
    <glyph glyph-name="y" unicode="y" horiz-adv-x="571" 
d="M35 -52q7 -3 17 -6q18 -5 44 -5q30 0 47.5 10t27.5 22q11 14 15 33l-182 525h209l52 -240l18 -128l83 368h201l-189 -550q-17 -50 -39.5 -86t-53.5 -60t-71 -35.5t-92 -11.5q-24 0 -44 2t-34 4q-17 3 -29 7z" />
    <glyph glyph-name="z" unicode="z" horiz-adv-x="539" 
d="M50 527h447v-151l-204 -224l55 4h149v-156h-455v151l203 224l-50 -4h-145v156z" />
    <glyph glyph-name="braceleft" unicode="{" horiz-adv-x="404" 
d="M375 -50q0 -20 -0.5 -46.5t-0.5 -50.5v-57q-75 0 -125.5 14.5t-81 43t-43 69t-12.5 93.5v100q0 19 -4.5 36.5t-14.5 31.5t-27 22.5t-42 8.5v137q25 0 42 8.5t27 22.5t14.5 31.5t4.5 36.5v100q0 52 12.5 93t43 69.5t81 43t125.5 14.5v-58q0 -24 0.5 -50t0.5 -46
q-41 0 -57 -20t-16 -66v-100q0 -63 -27.5 -97t-70.5 -51q43 -16 70.5 -50t27.5 -97v-100q0 -46 16 -66t57 -20z" />
    <glyph glyph-name="bar" unicode="|" horiz-adv-x="381" 
d="M104 -204v947h173v-947h-173z" />
    <glyph glyph-name="braceright" unicode="}" horiz-adv-x="404" 
d="M30 -204q-1 29 -1 57v97q41 0 57 20t16 66v100q0 63 27.5 97t70.5 51q-43 16 -70.5 50t-27.5 97v100q0 46 -16 66t-57 20v96q0 28 1 58q75 0 125.5 -14.5t81 -43t43 -69.5t12.5 -93v-100q0 -19 4.5 -36.5t14.5 -31.5t27 -22.5t42 -8.5v-137q-25 0 -42 -8.5t-27 -22.5
t-14.5 -31.5t-4.5 -36.5v-100q0 -53 -12.5 -93.5t-43 -69t-81 -43t-125.5 -14.5z" />
    <glyph glyph-name="asciitilde" unicode="~" horiz-adv-x="611" 
d="M50 174q-2 13 -3.5 31.5t-1.5 31.5q0 36 9.5 67t29 54t49.5 36.5t70 13.5q29 0 54 -9.5t45.5 -21.5t36.5 -21.5t27 -9.5t19 8t8 23q0 11 -6 28h174q2 -13 3.5 -31.5t1.5 -31.5q0 -36 -9.5 -67t-29 -54t-49.5 -36.5t-70 -13.5q-29 0 -53.5 9.5t-44.5 21.5t-36.5 21.5
t-29.5 9.5q-24 0 -24 -31q0 -13 4 -28h-174z" />
    <glyph glyph-name="uni00A0" unicode="&#xa0;" horiz-adv-x="210" 
 />
    <glyph glyph-name="exclamdown" unicode="&#xa1;" horiz-adv-x="330" 
d="M49 -204l20 481h192l20 -481h-232zM279 432q0 -47 -26 -76.5t-86 -29.5t-86 29.5t-26 76.5t26 77t86 30t86 -29.5t26 -77.5z" />
    <glyph glyph-name="cent" unicode="&#xa2;" horiz-adv-x="530" 
d="M446 453q-12 3 -26 7q-12 3 -28 5.5t-34 2.5q-54 0 -86.5 -27t-32.5 -90t33 -89.5t88 -26.5q17 0 33 2t28 5q14 3 25 7l25 -141q-12 -4 -27 -8q-13 -3 -30.5 -6.5t-39.5 -5.5v-88h-148v95q-91 23 -139 88t-48 168t48 167.5t139 87.5v101h148v-92q23 -2 40.5 -5t30.5 -6
q15 -4 26 -8l-25 -143v0z" />
    <glyph glyph-name="sterling" unicode="&#xa3;" horiz-adv-x="621" 
d="M577 79q-17 -25 -36 -40.5t-38.5 -24t-38 -11.5t-34.5 -3q-23 0 -44.5 5t-43.5 11t-45.5 11t-48.5 5q-21 0 -38.5 -5t-31.5 -11q-16 -7 -28 -16l-91 169q20 14 32.5 48t16.5 72h-69v146h74v21q0 127 63.5 195t206.5 68q38 0 68 -4t50 -9q24 -6 42 -13l-29 -153
q-13 3 -27 6q-13 2 -29 4.5t-36 2.5q-24 0 -43.5 -4t-34 -14t-22.5 -26t-8 -41v-33h131v-146h-142q-5 -28 -15.5 -56.5t-26.5 -45.5q8 2 17 2.5t17 0.5q24 0 40 -3.5t30 -7.5t28.5 -7.5t34.5 -3.5q19 0 32.5 5.5t21.5 12.5q10 8 15 18z" />
    <glyph glyph-name="currency" unicode="&#xa4;" horiz-adv-x="671" 
d="M518 50l-95 101q-40 -13 -97 -13q-47 0 -81 10l-92 -98l-124 123l95 87q-14 42 -14 89q0 54 19 100l-100 90l124 123l97 -106q20 6 41 9.5t45 3.5q48 0 86 -12l96 105l124 -123l-102 -91q8 -21 12 -45t4 -50q0 -47 -14 -89l100 -91zM333 290q30 0 40.5 16.5t10.5 48.5
q0 29 -10 45.5t-39 16.5q-28 0 -41 -17t-13 -47t11 -46.5t41 -16.5z" />
    <glyph glyph-name="yen" unicode="&#xa5;" horiz-adv-x="691" 
d="M451 125v-125h-209v125h-165v105h165v42h-165v105h125l-178 330h224l98 -251l94 251h227l-178 -330h124v-105h-162v-42h162v-105h-162z" />
    <glyph glyph-name="brokenbar" unicode="&#xa6;" horiz-adv-x="381" 
d="M104 -204v386h173v-386h-173zM104 357v386h173v-386h-173z" />
    <glyph glyph-name="section" unicode="&#xa7;" horiz-adv-x="625" 
d="M108 -24q19 -9 44 -15q21 -6 51 -10.5t68 -4.5q96 0 96 41q0 22 -22.5 32t-62.5 22q-34 10 -73.5 24.5t-73.5 37.5t-56.5 58t-22.5 87q0 49 19.5 82.5t45.5 54.5q-29 26 -47 62.5t-18 89.5q0 47 16 85t50.5 65t88 41.5t128.5 14.5q47 0 82 -5t60 -11q28 -7 50 -15
l-32 -153q-18 6 -40 11q-19 4 -45 7.5t-57 3.5q-48 0 -74.5 -10.5t-26.5 -33.5q0 -21 26 -33t85 -31q28 -9 63 -22.5t66 -35.5t52 -53.5t21 -77.5q0 -42 -17.5 -76t-47.5 -60q30 -23 47.5 -57.5t17.5 -90.5q0 -46 -14 -85.5t-47.5 -68.5t-88.5 -45.5t-137 -16.5q-48 0 -86 5
t-65 11q-32 7 -56 16zM274 311q-18 -15 -18 -37q0 -23 21.5 -35.5t61.5 -24.5q28 13 28 39q0 13 -7 21t-19 14t-27.5 11t-31.5 10z" />
    <glyph glyph-name="dieresis" unicode="&#xa8;" horiz-adv-x="478" 
d="M217 667q0 -40 -21.5 -66t-72.5 -26q-50 0 -72 25t-22 67q0 40 22 65.5t72 25.5q51 0 72.5 -25.5t21.5 -65.5zM449 667q0 -40 -22 -66t-72 -26q-51 0 -72.5 25t-21.5 67q0 40 21.5 65.5t72.5 25.5q50 0 72 -25.5t22 -65.5z" />
    <glyph glyph-name="copyright" unicode="&#xa9;" horiz-adv-x="818" 
d="M409 742q82 0 150.5 -26t118 -74.5t77 -118t27.5 -157.5t-27.5 -157.5t-77 -118t-118 -74.5t-150.5 -26t-150.5 26t-118 74.5t-77 118t-27.5 157.5t27.5 157.5t77 118t118 74.5t150.5 26zM409 614q-54 0 -98.5 -15.5t-76 -47t-48.5 -78t-17 -107.5t17 -107.5t48.5 -78
t76 -47.5t98.5 -16t98 16t75.5 47.5t48.5 78t17 107.5t-17 107.5t-48.5 78t-75.5 47t-98 15.5zM494 423q-7 2 -16 4q-8 2 -17.5 3.5t-20.5 1.5q-14 0 -28 -3t-24.5 -10.5t-17 -21.5t-6.5 -35q0 -22 6.5 -35t17 -20t22 -9.5t22.5 -2.5q13 0 25 2t21 5q11 3 20 7l16 -108
q-11 -8 -38.5 -14.5t-62.5 -6.5q-87 0 -135 48.5t-48 133.5q0 91 52.5 139t141.5 48q46 0 87 -14z" />
    <glyph glyph-name="ordfeminine" unicode="&#xaa;" horiz-adv-x="454" 
d="M29 121v125h396v-125h-396zM298 310l-12 40q-15 -21 -46.5 -35.5t-69.5 -14.5q-69 0 -102.5 30.5t-33.5 83.5q0 34 13.5 58t36.5 38t55 20.5t70 6.5q11 0 21.5 -0.5t18.5 -1.5q9 -1 16 -2v27q0 17 -20.5 26.5t-54.5 9.5q-23 0 -43.5 -3.5t-36.5 -7.5q-18 -4 -35 -10
l-19 115q10 4 27.5 9.5t40 9.5t49 7t55.5 3q38 0 73.5 -7t62.5 -23.5t43 -44t16 -68.5v-266h-125zM265 453l-8 2q-10 2 -24 2q-43 0 -43 -30t35 -30q17 0 29 7q6 4 11 8v41z" />
    <glyph glyph-name="guillemotleft" unicode="&#xab;" horiz-adv-x="700" 
d="M168 90l-114 196l114 196h195l-113 -196l113 -196h-195zM451 90l-114 196l114 196h195l-113 -196l113 -196h-195z" />
    <glyph glyph-name="logicalnot" unicode="&#xac;" horiz-adv-x="633" 
d="M411 52v152h-367v173h540v-325h-173z" />
    <glyph glyph-name="uni00AD" unicode="&#xad;" horiz-adv-x="381" 
d="M44 204v173h293v-173h-293z" />
    <glyph glyph-name="registered" unicode="&#xae;" horiz-adv-x="818" 
d="M441 193l-45 103h-14v-103h-124v345h160q46 0 74.5 -10t45 -26.5t22.5 -38.5t6 -45q0 -29 -12 -57.5t-44 -45.5l68 -122h-137zM396 377q26 0 34.5 10.5t8.5 30.5t-8.5 28t-34.5 8h-14v-77h14zM409 -10q-82 0 -150.5 26t-118 74.5t-77 118t-27.5 157.5t27.5 157.5t77 118
t118 74.5t150.5 26t150.5 -26t118 -74.5t77 -118t27.5 -157.5t-27.5 -157.5t-77 -118t-118 -74.5t-150.5 -26zM409 117q54 0 98 16t75.5 47.5t48.5 78t17 107.5t-17 107.5t-48.5 78t-75.5 47t-98 15.5t-98.5 -15.5t-76 -47t-48.5 -78t-17 -107.5t17 -107.5t48.5 -78
t76 -47.5t98.5 -16z" />
    <glyph glyph-name="macron" unicode="&#xaf;" horiz-adv-x="407" 
d="M29 591v142h349v-142h-349z" />
    <glyph glyph-name="degree" unicode="&#xb0;" horiz-adv-x="398" 
d="M199 425q-41 0 -72 12t-51.5 33t-31 49.5t-10.5 60.5q0 36 12 66t33.5 51.5t52.5 33.5t70 12q76 0 119 -44.5t43 -114.5q0 -33 -10.5 -62t-31 -50.5t-51.5 -34t-72 -12.5zM199 527q46 0 46 59q0 26 -12.5 41t-33.5 15t-34 -15t-13 -43q0 -29 12.5 -43t34.5 -14z" />
    <glyph glyph-name="plusminus" unicode="&#xb1;" horiz-adv-x="597" 
d="M382 380v-160h-167v160h-166v167h166v157h167v-157h166v-167h-166zM49 0v167h499v-167h-499z" />
    <glyph glyph-name="uni00B2" unicode="&#xb2;" horiz-adv-x="375" 
d="M36 362l-9 111q49 22 88 48q16 11 32 24t28.5 27.5t20 30t7.5 32.5q0 22 -16 36.5t-56 14.5q-18 0 -33.5 -3t-26.5 -6q-13 -4 -24 -9l-16 99q19 7 43 13q20 5 46.5 9t56.5 4q46 0 78 -11t52.5 -29.5t30 -44t9.5 -54.5q0 -47 -20 -82t-44 -59q-28 -28 -64 -48l29 4h93
v-107h-305z" />
    <glyph glyph-name="uni00B3" unicode="&#xb3;" horiz-adv-x="376" 
d="M41 475q7 -4 20 -8q11 -3 28.5 -5.5t43.5 -2.5q36 0 56 7.5t20 28.5q0 7 -3 13t-11 10.5t-23 7t-40 2.5q-9 0 -15.5 -0.5t-10.5 -0.5q-4 -1 -7 -1v95q3 -1 7 -1q4 -1 10.5 -1h15.5q34 0 52.5 7t18.5 28q0 20 -18 27.5t-56 7.5q-20 0 -35 -1.5t-26 -3.5q-12 -2 -21 -4
l-14 94q14 5 33 9q17 4 41 7t56 3q93 0 135 -28t42 -78q0 -39 -16.5 -63t-46.5 -38q32 -11 51 -34.5t19 -70.5q0 -67 -53.5 -96.5t-143.5 -29.5q-31 0 -53.5 2.5t-37.5 5.5q-18 4 -30 9z" />
    <glyph glyph-name="acute" unicode="&#xb4;" horiz-adv-x="351" 
d="M29 592l89 179h204l-132 -179h-161z" />
    <glyph glyph-name="uni00B5" unicode="&#xb5;" horiz-adv-x="619" 
d="M251 527v-310q0 -35 14.5 -48t39.5 -13q18 0 34.5 5t29.5 13v353h201v-527h-161l-24 57q-15 -16 -34 -29q-17 -11 -41.5 -22.5t-57.5 -15.5h-2v-194h-201v731h202z" />
    <glyph glyph-name="paragraph" unicode="&#xb6;" horiz-adv-x="758" 
d="M531 -204v772h-77v-772h-168v445q-73 0 -122.5 20t-80 54t-43.5 78.5t-13 93.5q0 52 13 97t43.5 77.5t80.5 51t123 18.5h412v-935h-168z" />
    <glyph glyph-name="periodcentered" unicode="&#xb7;" horiz-adv-x="306" 
d="M262 287q0 -45 -25 -74.5t-84 -29.5t-84 28.5t-25 75.5q0 45 25 74t84 29t84 -29t25 -74z" />
    <glyph glyph-name="cedilla" unicode="&#xb8;" horiz-adv-x="305" 
d="M31 -146q11 -4 27 -6t33 -2q24 0 43 5.5t19 19.5t-16 19t-39 5q-16 0 -33 -1.5t-34 -3.5l35 140h104l-21 -68h12q24 0 45 -4.5t36.5 -16t24.5 -30t9 -45.5q0 -22 -7 -41.5t-25 -34.5t-49 -23.5t-79 -8.5q-20 0 -41 1.5t-44 5.5v89z" />
    <glyph glyph-name="uni00B9" unicode="&#xb9;" horiz-adv-x="273" 
d="M97 362v310l-70 -13l-9 94l131 33h85v-424h-137z" />
    <glyph glyph-name="ordmasculine" unicode="&#xba;" horiz-adv-x="512" 
d="M59 120v138h396v-138h-396zM250 300q-58 0 -96.5 16.5t-62 45t-33 65.5t-9.5 78q0 47 12.5 86t38.5 67.5t65.5 44.5t93.5 16q56 0 95 -16t63 -44.5t35 -66.5t11 -83q0 -43 -10 -81t-35 -66.5t-66 -45t-102 -16.5zM256 424q30 0 39.5 24t9.5 63q0 36 -9 60.5t-38 24.5
t-40.5 -24.5t-11.5 -62.5t9.5 -61.5t40.5 -23.5z" />
    <glyph glyph-name="guillemotright" unicode="&#xbb;" horiz-adv-x="700" 
d="M54 90l113 196l-113 196h195l114 -196l-114 -196h-195zM337 90l113 196l-113 196h195l114 -196l-114 -196h-195z" />
    <glyph glyph-name="onequarter" unicode="&#xbc;" horiz-adv-x="969" 
d="M275 283h-137v310l-70 -13l-9 94l131 33h85v-424zM775 707l-475 -707h-114l475 707h114zM720 425h154v-249h36v-95h-36v-80h-137v80h-172l-12 94zM737 176v90l3 51l-90 -141h87z" />
    <glyph glyph-name="onehalf" unicode="&#xbd;" horiz-adv-x="1044" 
d="M186 0l475 707h114l-475 -707h-114zM138 283v310l-70 -13l-9 94l131 33h85v-424h-137zM674 0l-9 111q49 22 88 48q16 11 32 24t28.5 27.5t20 30t7.5 32.5q0 22 -16 36.5t-56 14.5q-18 0 -33.5 -3t-26.5 -6q-13 -4 -24 -9l-16 99q19 7 43 13q20 5 46.5 9t56.5 4
q46 0 78 -11t52.5 -29.5t30 -44t9.5 -54.5q0 -47 -20 -82t-44 -59q-28 -28 -64 -48l29 4h93v-107h-305z" />
    <glyph glyph-name="threequarters" unicode="&#xbe;" horiz-adv-x="1015" 
d="M63 695q14 5 33 9q17 4 41 7t56 3q93 0 135 -28t42 -78q0 -39 -21.5 -63t-51.5 -38q32 -11 56 -35t24 -70q0 -67 -53.5 -96.5t-143.5 -29.5q-31 0 -53.5 2.5t-37.5 5.5q-18 4 -30 9l12 103q7 -4 20 -8q11 -3 28.5 -5.5t43.5 -2.5q36 0 56 7.5t20 28.5q0 7 -3 13t-11 10.5
t-23 7t-40 2.5q-9 0 -15.5 -0.5t-10.5 -0.5q-4 -1 -7 -1v95q3 -1 7 -1q4 -1 10.5 -1h15.5q34 0 52.5 7t18.5 28q0 20 -18 27.5t-56 7.5q-20 0 -35 -1.5t-26 -3.5q-12 -2 -21 -4zM821 707l-475 -707h-114l475 707h114zM599 175l167 250h154v-249h36v-95h-36v-80h-137v80h-172
zM783 176v90l3 51l-90 -141h87z" />
    <glyph glyph-name="questiondown" unicode="&#xbf;" horiz-adv-x="496" 
d="M410 276q2 -9 4 -19q2 -8 3.5 -18.5t1.5 -21.5q0 -43 -14 -72t-35.5 -48t-46.5 -31t-46.5 -22.5t-35.5 -22.5t-14 -30q0 -20 22 -32.5t81 -12.5q37 0 64.5 3.5t44.5 8.5q20 5 34 12l24 -149q-26 -11 -59 -19q-29 -7 -68 -12.5t-88 -5.5q-59 0 -106.5 11t-81 34.5
t-52 60.5t-18.5 89q0 47 14 77t35 49.5t46 32t46 25.5t35 29.5t14 43.5q0 5 -0.5 12t-0.5 13q-1 7 -1 15h198zM199 432q0 47 26 77t86 30t86 -29.5t26 -77.5q0 -47 -26 -76.5t-86 -29.5t-86 29.5t-26 76.5z" />
    <glyph glyph-name="Agrave" unicode="&#xc0;" horiz-adv-x="730" 
d="M308 755l-132 179h204l89 -179h-161zM491 707l225 -707h-208l-37 132h-212l-37 -132h-208l225 707h252zM343 426l-44 -148h131l-43 148l-22 94z" />
    <glyph glyph-name="Aacute" unicode="&#xc1;" horiz-adv-x="730" 
d="M264 755l89 179h204l-132 -179h-161zM491 707l225 -707h-208l-37 132h-212l-37 -132h-208l225 707h252zM343 426l-44 -148h131l-43 148l-22 94z" />
    <glyph glyph-name="Acircumflex" unicode="&#xc2;" horiz-adv-x="730" 
d="M441 934l128 -179h-149l-54 78l-54 -78h-149l128 179h150zM491 707l225 -707h-208l-37 132h-212l-37 -132h-208l225 707h252zM343 426l-44 -148h131l-43 148l-22 94z" />
    <glyph glyph-name="Atilde" unicode="&#xc3;" horiz-adv-x="730" 
d="M172 758q-1 5 -2 11q-1 5 -1.5 12t-0.5 17q0 27 7.5 52.5t22.5 45t38 31t54 11.5q22 0 41.5 -7.5t35 -16.5t28 -16.5t20.5 -7.5q20 0 20 23q0 6 -2 14q-1 4 -1 8h133l2 -14q1 -6 1.5 -13t0.5 -13q0 -27 -7.5 -52.5t-22.5 -45t-38 -31t-54 -11.5q-23 0 -41.5 7.5t-34 16.5
t-28 16.5t-22.5 7.5q-19 0 -19 -24q0 -11 1 -15t2 -6h-133zM491 707l225 -707h-208l-37 132h-212l-37 -132h-208l225 707h252zM343 426l-44 -148h131l-43 148l-22 94z" />
    <glyph glyph-name="Adieresis" unicode="&#xc4;" horiz-adv-x="730" 
d="M346 847q0 -40 -21.5 -66t-72.5 -26q-50 0 -72 25t-22 67q0 40 22 65.5t72 25.5q51 0 72.5 -25.5t21.5 -65.5zM578 847q0 -40 -22 -66t-72 -26q-51 0 -72.5 25t-21.5 67q0 40 21.5 65.5t72.5 25.5q50 0 72 -25.5t22 -65.5zM491 707l225 -707h-208l-37 132h-212l-37 -132
h-208l225 707h252zM343 426l-44 -148h131l-43 148l-22 94z" />
    <glyph glyph-name="Aring" unicode="&#xc5;" horiz-adv-x="730" 
d="M362 742q-71 0 -104.5 37t-33.5 93q0 66 39.5 102t106.5 36q69 0 104 -36t35 -98q0 -60 -34.5 -97t-112.5 -37zM367 835q37 0 37 43q0 17 -8 28t-27 11q-20 0 -30 -11.5t-10 -29.5q0 -19 9 -30t29 -11zM491 707l225 -707h-208l-37 132h-212l-37 -132h-208l225 707h252z
M343 426l-44 -148h131l-43 148l-22 94z" />
    <glyph glyph-name="AE" unicode="&#xc6;" horiz-adv-x="1024" 
d="M454 0v132h-172l-58 -132h-210l339 707h619v-167h-313v-102h267v-168h-267v-102h313v-168h-518zM454 524l-108 -246h108v246z" />
    <glyph glyph-name="Ccedilla" unicode="&#xc7;" horiz-adv-x="622" 
d="M241 354q0 -55 15.5 -92.5t41.5 -60.5t60.5 -33t72.5 -10q24 0 45 3t37 7q18 4 33 11l27 -161q-18 -9 -44 -15q-22 -6 -54 -10.5t-74 -4.5h-1l-6 -27l12 1q48 0 81.5 -21t33.5 -72q0 -22 -8 -41.5t-26 -33.5t-47.5 -22.5t-72.5 -8.5q-23 0 -40 2t-29 4q-14 3 -24 7l15 80
q6 -3 16 -5q17 -5 44 -5q20 0 39.5 5.5t19.5 20.5q0 14 -16.5 18.5t-39.5 4.5q-12 0 -24 -1t-21 -2q-11 -1 -21 -2l26 105q-72 11 -124 41.5t-85.5 76.5t-50 107t-16.5 133q0 83 23.5 150.5t69.5 115.5t115 74t160 26q42 0 74 -5t53 -10q25 -7 42 -15l-27 -161q-15 6 -33 10
q-16 4 -37 7.5t-46 3.5q-38 0 -72 -10t-60 -33t-41.5 -60t-15.5 -92z" />
    <glyph glyph-name="Egrave" unicode="&#xc8;" horiz-adv-x="629" 
d="M257 755l-132 179h204l89 -179h-161zM59 0v707h518v-167h-313v-102h267v-168h-267v-102h313v-168h-518z" />
    <glyph glyph-name="Eacute" unicode="&#xc9;" horiz-adv-x="629" 
d="M227 755l89 179h204l-132 -179h-161zM59 0v707h518v-167h-313v-102h267v-168h-267v-102h313v-168h-518z" />
    <glyph glyph-name="Ecircumflex" unicode="&#xca;" horiz-adv-x="629" 
d="M393 934l128 -179h-149l-54 78l-54 -78h-149l128 179h150zM59 0v707h518v-167h-313v-102h267v-168h-267v-102h313v-168h-518z" />
    <glyph glyph-name="Edieresis" unicode="&#xcb;" horiz-adv-x="629" 
d="M304 847q0 -40 -21.5 -66t-72.5 -26q-50 0 -72 25t-22 67q0 40 22 65.5t72 25.5q51 0 72.5 -25.5t21.5 -65.5zM536 847q0 -40 -22 -66t-72 -26q-51 0 -72.5 25t-21.5 67q0 40 21.5 65.5t72.5 25.5q50 0 72 -25.5t22 -65.5zM59 0v707h518v-167h-313v-102h267v-168h-267
v-102h313v-168h-518z" />
    <glyph glyph-name="Igrave" unicode="&#xcc;" horiz-adv-x="329" 
d="M89 755l-132 179h204l89 -179h-161zM62 0v707h205v-707h-205z" />
    <glyph glyph-name="Iacute" unicode="&#xcd;" horiz-adv-x="329" 
d="M84 755l89 179h204l-132 -179h-161zM62 0v707h205v-707h-205z" />
    <glyph glyph-name="Icircumflex" unicode="&#xce;" horiz-adv-x="328" 
d="M89 934h150l128 -179h-149l-54 78l-54 -78h-149zM267 707v-707h-205v707h205z" />
    <glyph glyph-name="Idieresis" unicode="&#xcf;" horiz-adv-x="329" 
d="M142 846q0 -40 -21.5 -66t-72.5 -26q-50 0 -72 25t-22 67q0 40 22 65.5t72 25.5q51 0 72.5 -25.5t21.5 -65.5zM374 846q0 -40 -22 -66t-72 -26q-51 0 -72.5 25t-21.5 67q0 40 21.5 65.5t72.5 25.5q50 0 72 -25.5t22 -65.5zM62 0v707h205v-707h-205z" />
    <glyph glyph-name="Eth" unicode="&#xd0;" horiz-adv-x="723" 
d="M7 427h52v280h269q107 0 176.5 -27.5t110 -75.5t56.5 -113t16 -139q0 -73 -17 -137t-58 -112t-110 -75.5t-174 -27.5h-269v269h-52v158zM360 168q32 0 55 14t38 38.5t22 58.5t7 74t-6.5 74.5t-21.5 59.5t-38.5 39t-57.5 14h-94v-113h110v-158h-110v-101h96z" />
    <glyph glyph-name="Ntilde" unicode="&#xd1;" horiz-adv-x="748" 
d="M183 758q-1 5 -2 11q-1 5 -1.5 12t-0.5 17q0 27 7.5 52.5t22.5 45t38 31t54 11.5q22 0 41.5 -7.5t35 -16.5t28 -16.5t20.5 -7.5q20 0 20 23q0 6 -2 14q-1 4 -1 8h133l2 -14q1 -6 1.5 -13t0.5 -13q0 -27 -7.5 -52.5t-22.5 -45t-38 -31t-54 -11.5q-23 0 -41.5 7.5t-34 16.5
t-28 16.5t-22.5 7.5q-19 0 -19 -24q0 -11 1 -15t2 -6h-133zM490 0l-238 364l6 -81v-283h-199v707h195l242 -384l-5 88v296h198v-707h-199z" />
    <glyph glyph-name="Ograve" unicode="&#xd2;" horiz-adv-x="763" 
d="M314 755l-132 179h204l89 -179h-161zM376 -12q-86 0 -149.5 26.5t-106 74t-63.5 114t-21 146.5q0 82 22 150.5t66 117t109 75.5t151 27q85 0 149.5 -26.5t107.5 -74t64.5 -114t21.5 -146.5q0 -81 -22 -148.5t-66 -117t-109.5 -77t-153.5 -27.5zM383 155q66 0 102.5 49
t36.5 152q0 100 -36 148t-102 48q-69 0 -106 -49.5t-37 -148.5q0 -102 38 -150.5t104 -48.5z" />
    <glyph glyph-name="Oacute" unicode="&#xd3;" horiz-adv-x="762" 
d="M288 755l89 179h204l-132 -179h-161zM376 -12q-86 0 -149.5 26.5t-106 74t-63.5 114t-21 146.5q0 82 22 150.5t66 117t109 75.5t151 27q85 0 149.5 -26.5t107.5 -74t64.5 -114t21.5 -146.5q0 -81 -22 -148.5t-66 -117t-109.5 -77t-153.5 -27.5zM383 155q66 0 102.5 49
t36.5 152q0 100 -36 148t-102 48q-69 0 -106 -49.5t-37 -148.5q0 -102 38 -150.5t104 -48.5z" />
    <glyph glyph-name="Ocircumflex" unicode="&#xd4;" horiz-adv-x="763" 
d="M449 934l128 -179h-149l-54 78l-54 -78h-149l128 179h150zM376 -12q-86 0 -149.5 26.5t-106 74t-63.5 114t-21 146.5q0 82 22 150.5t66 117t109 75.5t151 27q85 0 149.5 -26.5t107.5 -74t64.5 -114t21.5 -146.5q0 -81 -22 -148.5t-66 -117t-109.5 -77t-153.5 -27.5z
M383 155q66 0 102.5 49t36.5 152q0 100 -36 148t-102 48q-69 0 -106 -49.5t-37 -148.5q0 -102 38 -150.5t104 -48.5z" />
    <glyph glyph-name="Otilde" unicode="&#xd5;" horiz-adv-x="763" 
d="M185 758q-1 5 -2 11q-1 5 -1.5 12t-0.5 17q0 27 7.5 52.5t22.5 45t38 31t54 11.5q22 0 41.5 -7.5t35 -16.5t28 -16.5t20.5 -7.5q20 0 20 23q0 6 -2 14q-1 4 -1 8h133l2 -14q1 -6 1.5 -13t0.5 -13q0 -27 -7.5 -52.5t-22.5 -45t-38 -31t-54 -11.5q-23 0 -41.5 7.5t-34 16.5
t-28 16.5t-22.5 7.5q-19 0 -19 -24q0 -11 1 -15t2 -6h-133zM376 -12q-86 0 -149.5 26.5t-106 74t-63.5 114t-21 146.5q0 82 22 150.5t66 117t109 75.5t151 27q85 0 149.5 -26.5t107.5 -74t64.5 -114t21.5 -146.5q0 -81 -22 -148.5t-66 -117t-109.5 -77t-153.5 -27.5z
M383 155q66 0 102.5 49t36.5 152q0 100 -36 148t-102 48q-69 0 -106 -49.5t-37 -148.5q0 -102 38 -150.5t104 -48.5z" />
    <glyph glyph-name="Odieresis" unicode="&#xd6;" horiz-adv-x="767" 
d="M356 847q0 -40 -21.5 -66t-72.5 -26q-50 0 -72 25t-22 67q0 40 22 65.5t72 25.5q51 0 72.5 -25.5t21.5 -65.5zM588 847q0 -40 -22 -66t-72 -26q-51 0 -72.5 25t-21.5 67q0 40 21.5 65.5t72.5 25.5q50 0 72 -25.5t22 -65.5zM378 -12q-86 0 -149.5 26.5t-106 74t-63.5 114
t-21 146.5q0 82 22 150.5t66 117t109 75.5t151 27q85 0 149.5 -26.5t107.5 -74t64.5 -114t21.5 -146.5q0 -81 -22 -148.5t-66 -117t-109.5 -77t-153.5 -27.5zM385 155q66 0 102.5 49t36.5 152q0 100 -36 148t-102 48q-69 0 -106 -49.5t-37 -148.5q0 -102 38 -150.5
t104 -48.5z" />
    <glyph glyph-name="multiply" unicode="&#xd7;" horiz-adv-x="595" 
d="M297 216l-137 -137l-111 112l137 137l-137 137l111 112l137 -138l138 138l111 -112l-137 -137l137 -137l-111 -112z" />
    <glyph glyph-name="Oslash" unicode="&#xd8;" horiz-adv-x="767" 
d="M378 -12q-28 0 -53 3l-27 -73h-146l42 113q-79 45 -117.5 127t-38.5 191q0 82 22 150.5t66 117t109 75.5t151 27q17 0 32.5 -1.5t30.5 -3.5l26 69h147l-42 -113q75 -46 112 -126t37 -186q0 -81 -22 -148.5t-66 -117t-109.5 -77t-153.5 -27.5zM243 354q0 -81 24 -127
l121 325h-2q-69 0 -106 -49.5t-37 -148.5zM524 356q0 35 -5 63.5t-14 51.5l-118 -316q65 1 101 49.5t36 151.5z" />
    <glyph glyph-name="Ugrave" unicode="&#xd9;" horiz-adv-x="719" 
d="M283 755l-132 179h204l89 -179h-161zM460 707h205v-411q0 -75 -17 -132.5t-53.5 -96.5t-95 -59t-140.5 -20q-83 0 -140.5 20t-94.5 59t-53.5 96.5t-16.5 132.5v411h205v-417q0 -29 4 -53.5t15.5 -42.5t31 -28.5t49.5 -10.5t50 10.5t31 28.5t15.5 42.5t4.5 53.5v417z" />
    <glyph glyph-name="Uacute" unicode="&#xda;" horiz-adv-x="719" 
d="M275 755l89 179h204l-132 -179h-161zM460 707h205v-411q0 -75 -17 -132.5t-53.5 -96.5t-95 -59t-140.5 -20q-83 0 -140.5 20t-94.5 59t-53.5 96.5t-16.5 132.5v411h205v-417q0 -29 4 -53.5t15.5 -42.5t31 -28.5t49.5 -10.5t50 10.5t31 28.5t15.5 42.5t4.5 53.5v417z" />
    <glyph glyph-name="Ucircumflex" unicode="&#xdb;" horiz-adv-x="719" 
d="M434 934l128 -179h-149l-54 78l-54 -78h-149l128 179h150zM460 707h205v-411q0 -75 -17 -132.5t-53.5 -96.5t-95 -59t-140.5 -20q-83 0 -140.5 20t-94.5 59t-53.5 96.5t-16.5 132.5v411h205v-417q0 -29 4 -53.5t15.5 -42.5t31 -28.5t49.5 -10.5t50 10.5t31 28.5
t15.5 42.5t4.5 53.5v417z" />
    <glyph glyph-name="Udieresis" unicode="&#xdc;" horiz-adv-x="719" 
d="M339 847q0 -40 -21.5 -66t-72.5 -26q-50 0 -72 25t-22 67q0 40 22 65.5t72 25.5q51 0 72.5 -25.5t21.5 -65.5zM571 847q0 -40 -22 -66t-72 -26q-51 0 -72.5 25t-21.5 67q0 40 21.5 65.5t72.5 25.5q50 0 72 -25.5t22 -65.5zM460 707h205v-411q0 -75 -17 -132.5
t-53.5 -96.5t-95 -59t-140.5 -20q-83 0 -140.5 20t-94.5 59t-53.5 96.5t-16.5 132.5v411h205v-417q0 -29 4 -53.5t15.5 -42.5t31 -28.5t49.5 -10.5t50 10.5t31 28.5t15.5 42.5t4.5 53.5v417z" />
    <glyph glyph-name="Yacute" unicode="&#xdd;" horiz-adv-x="701" 
d="M265 755l89 179h204l-132 -179h-161zM248 0v243l-239 464h216l104 -234l22 -62l22 63l100 233h219l-238 -462v-245h-206z" />
    <glyph glyph-name="Thorn" unicode="&#xde;" horiz-adv-x="672" 
d="M264 707v-87h79q86 0 142 -19t89 -52t46 -78.5t13 -99.5q0 -50 -13 -96t-45.5 -81.5t-88.5 -57t-142 -21.5h-80v-115h-205v707h205zM264 282h70q29 0 47 6.5t28.5 18t14 27.5t3.5 36t-3.5 35.5t-14 26t-28.5 16t-47 5.5h-70v-171z" />
    <glyph glyph-name="germandbls" unicode="&#xdf;" horiz-adv-x="648" 
d="M302 146q4 -1 9 -2t10.5 -1.5t13.5 -0.5q42 0 60 20t18 61q0 39 -16.5 59.5t-58.5 20.5q-7 0 -13.5 -0.5t-11.5 -1.5q-6 -1 -12 -1v148q2 -1 6 -1h15q38 0 57.5 16t19.5 53q0 35 -17 54t-54 19t-57.5 -19.5t-20.5 -59.5v-510h-201v514q0 69 26 113.5t67 70t91 35.5t97 10
q68 0 117.5 -16t82 -43t48 -62.5t15.5 -75.5q0 -45 -16 -75.5t-36 -50.5q-23 -23 -52 -36q35 -11 62 -35q23 -20 43 -56t20 -93q0 -42 -13.5 -80.5t-42 -68t-73 -46.5t-107.5 -17q-21 0 -38 1.5t-29 3.5q-14 3 -25 6z" />
    <glyph glyph-name="agrave" unicode="&#xe0;" horiz-adv-x="574" 
d="M237 592l-132 179h204l89 -179h-161zM63 499q27 11 61 20q29 8 70.5 14t93.5 6q57 0 102 -10t76 -32.5t47.5 -59.5t16.5 -91v-346h-158l-17 56q-16 -19 -40 -34q-20 -13 -51.5 -23.5t-74.5 -10.5q-74 0 -116.5 42.5t-42.5 109.5q0 81 69.5 125.5t222.5 45.5h7v15
q0 31 -21 45t-69 14q-32 0 -59 -5.5t-47 -12.5q-24 -8 -42 -17zM329 204q-4 1 -9 2t-10.5 1.5t-13.5 0.5q-32 0 -50 -11.5t-18 -34.5q0 -20 13.5 -30.5t36.5 -10.5q12 0 21.5 2.5t16.5 5.5q8 4 13 9v66z" />
    <glyph glyph-name="aacute" unicode="&#xe1;" horiz-adv-x="574" 
d="M183 592l89 179h204l-132 -179h-161zM63 499q27 11 61 20q29 8 70.5 14t93.5 6q57 0 102 -10t76 -32.5t47.5 -59.5t16.5 -91v-346h-158l-17 56q-16 -19 -40 -34q-20 -13 -51.5 -23.5t-74.5 -10.5q-74 0 -116.5 42.5t-42.5 109.5q0 81 69.5 125.5t222.5 45.5h7v15
q0 31 -21 45t-69 14q-32 0 -59 -5.5t-47 -12.5q-24 -8 -42 -17zM329 204q-4 1 -9 2t-10.5 1.5t-13.5 0.5q-32 0 -50 -11.5t-18 -34.5q0 -20 13.5 -30.5t36.5 -10.5q12 0 21.5 2.5t16.5 5.5q8 4 13 9v66z" />
    <glyph glyph-name="acircumflex" unicode="&#xe2;" horiz-adv-x="574" 
d="M63 499q27 11 61 20q29 8 70.5 14t93.5 6q57 0 102 -10t76 -32.5t47.5 -59.5t16.5 -91v-346h-158l-17 56q-16 -19 -40 -34q-20 -13 -51.5 -23.5t-74.5 -10.5q-74 0 -116.5 42.5t-42.5 109.5q0 81 69.5 125.5t222.5 45.5h7v15q0 31 -21 45t-69 14q-32 0 -59 -5.5
t-47 -12.5q-24 -8 -42 -17zM369 771l128 -179h-149l-54 78l-54 -78h-149l128 179h150zM329 204q-4 1 -9 2t-10.5 1.5t-13.5 0.5q-32 0 -50 -11.5t-18 -34.5q0 -20 13.5 -30.5t36.5 -10.5q12 0 21.5 2.5t16.5 5.5q8 4 13 9v66z" />
    <glyph glyph-name="atilde" unicode="&#xe3;" horiz-adv-x="574" 
d="M95 590q-1 5 -2 11q-1 5 -1.5 12t-0.5 17q0 27 7.5 52.5t22.5 45t38 31t54 11.5q22 0 41.5 -7.5t35 -16.5t28 -16.5t20.5 -7.5q20 0 20 23q0 6 -2 14q-1 4 -1 8h133l2 -14q1 -6 1.5 -13t0.5 -13q0 -27 -7.5 -52.5t-22.5 -45t-38 -31t-54 -11.5q-23 0 -41.5 7.5t-34 16.5
t-28 16.5t-22.5 7.5q-19 0 -19 -24q0 -11 1 -15t2 -6h-133zM63 499q27 11 61 20q29 8 70.5 14t93.5 6q57 0 102 -10t76 -32.5t47.5 -59.5t16.5 -91v-346h-158l-17 56q-16 -19 -40 -34q-20 -13 -51.5 -23.5t-74.5 -10.5q-74 0 -116.5 42.5t-42.5 109.5q0 81 69.5 125.5
t222.5 45.5h7v15q0 31 -21 45t-69 14q-32 0 -59 -5.5t-47 -12.5q-24 -8 -42 -17zM329 204q-4 1 -9 2t-10.5 1.5t-13.5 0.5q-32 0 -50 -11.5t-18 -34.5q0 -20 13.5 -30.5t36.5 -10.5q12 0 21.5 2.5t16.5 5.5q8 4 13 9v66z" />
    <glyph glyph-name="adieresis" unicode="&#xe4;" horiz-adv-x="574" 
d="M270 667q0 -40 -21.5 -66t-72.5 -26q-50 0 -72 25t-22 67q0 40 22 65.5t72 25.5q51 0 72.5 -25.5t21.5 -65.5zM502 667q0 -40 -22 -66t-72 -26q-51 0 -72.5 25t-21.5 67q0 40 21.5 65.5t72.5 25.5q50 0 72 -25.5t22 -65.5zM63 499q27 11 61 20q29 8 70.5 14t93.5 6
q57 0 102 -10t76 -32.5t47.5 -59.5t16.5 -91v-346h-158l-17 56q-16 -19 -40 -34q-20 -13 -51.5 -23.5t-74.5 -10.5q-74 0 -116.5 42.5t-42.5 109.5q0 81 69.5 125.5t222.5 45.5h7v15q0 31 -21 45t-69 14q-32 0 -59 -5.5t-47 -12.5q-24 -8 -42 -17zM329 204q-4 1 -9 2
t-10.5 1.5t-13.5 0.5q-32 0 -50 -11.5t-18 -34.5q0 -20 13.5 -30.5t36.5 -10.5q12 0 21.5 2.5t16.5 5.5q8 4 13 9v66z" />
    <glyph glyph-name="aring" unicode="&#xe5;" horiz-adv-x="574" 
d="M63 499q27 11 61 20q29 8 70.5 14t93.5 6q57 0 102 -10t76 -32.5t47.5 -59.5t16.5 -91v-346h-158l-17 56q-16 -19 -40 -34q-20 -13 -51.5 -23.5t-74.5 -10.5q-74 0 -116.5 42.5t-42.5 109.5q0 81 69.5 125.5t222.5 45.5h7v15q0 31 -21 45t-69 14q-32 0 -59 -5.5
t-47 -12.5q-24 -8 -42 -17zM294 587q-71 0 -104.5 37t-33.5 93q0 66 39.5 102t106.5 36q69 0 104 -36t35 -98q0 -60 -34.5 -97t-112.5 -37zM329 204q-4 1 -9 2t-10.5 1.5t-13.5 0.5q-32 0 -50 -11.5t-18 -34.5q0 -20 13.5 -30.5t36.5 -10.5q12 0 21.5 2.5t16.5 5.5q8 4 13 9
v66zM299 680q37 0 37 43q0 17 -8 28t-27 11q-20 0 -30 -11.5t-10 -29.5q0 -19 9 -30t29 -11z" />
    <glyph glyph-name="ae" unicode="&#xe6;" horiz-adv-x="845" 
d="M782 16q-22 -8 -50 -14q-24 -5 -59.5 -9.5t-80.5 -4.5q-70 0 -121 17t-86 49q-4 -5 -16 -16t-33.5 -22t-52.5 -19.5t-74 -8.5q-89 0 -134 42.5t-45 109.5q0 40 15.5 71.5t49 53.5t87.5 33.5t131 12.5q3 24 9 45q-17 29 -83 29q-32 0 -59 -5.5t-47 -12.5q-24 -8 -42 -17
l-28 149q27 11 61 20q29 8 70.5 14t93.5 6q49 0 86.5 -7t64.5 -24q59 31 139 31q66 0 110.5 -20t71.5 -52t38 -74t11 -85q0 -21 -2 -38.5t-4 -31.5q-3 -16 -6 -29h-280q5 -35 27.5 -53.5t78.5 -18.5q31 0 56 3t43 7q21 4 37 11zM621 326q0 33 -10.5 52t-40.5 19
q-32 0 -42.5 -21t-11.5 -60h105v10zM278 121q17 0 31 4.5t22 8.5q-13 33 -18 73q-5 1 -8.5 1h-8.5q-32 0 -50 -11.5t-18 -34.5q0 -20 13.5 -30.5t36.5 -10.5z" />
    <glyph glyph-name="ccedilla" unicode="&#xe7;" horiz-adv-x="500" 
d="M436 369q-12 3 -26 7q-12 3 -28 5.5t-34 2.5q-54 0 -86 -27.5t-32 -93.5q0 -65 32.5 -92.5t87.5 -27.5q17 0 33 2t28 5q14 3 25 7l25 -144q-15 -7 -34 -11q-17 -5 -40 -8t-51 -5l-6 -28l12 1q48 0 81.5 -21t33.5 -72q0 -22 -8 -41.5t-26 -33.5t-47.5 -22.5t-72.5 -8.5
q-23 0 -40 2t-29 4q-14 3 -24 7l15 80q6 -3 16 -5q17 -5 44 -5q20 0 39.5 5.5t19.5 20.5q0 14 -16.5 18.5t-39.5 4.5q-12 0 -24 -1t-21 -2q-11 -1 -21 -2l25 103q-106 16 -162 85.5t-56 184.5q0 133 74 204.5t213 71.5q34 0 60.5 -3.5t45.5 -8.5q22 -5 39 -12l-25 -146v0z
" />
    <glyph glyph-name="egrave" unicode="&#xe8;" horiz-adv-x="572" 
d="M230 592l-132 179h204l89 -179h-161zM510 24q-25 -10 -58 -18q-28 -7 -66 -12.5t-84 -5.5q-77 0 -129 20.5t-84 56.5t-46 85t-14 106q0 66 17.5 118t51 89t83.5 56.5t115 19.5q62 0 107 -18t74.5 -48.5t44 -72.5t14.5 -90q0 -20 -2 -38.5t-4 -32.5q-3 -17 -6 -32h-293
q5 -37 32.5 -53.5t81.5 -16.5q32 0 57.5 4t44.5 9q22 6 39 14zM343 332q0 31 -12 48t-42 17q-32 0 -45 -20.5t-14 -59.5h113v15z" />
    <glyph glyph-name="eacute" unicode="&#xe9;" horiz-adv-x="572" 
d="M206 592l89 179h204l-132 -179h-161zM510 24q-25 -10 -58 -18q-28 -7 -66 -12.5t-84 -5.5q-77 0 -129 20.5t-84 56.5t-46 85t-14 106q0 66 17.5 118t51 89t83.5 56.5t115 19.5q62 0 107 -18t74.5 -48.5t44 -72.5t14.5 -90q0 -20 -2 -38.5t-4 -32.5q-3 -17 -6 -32h-293
q5 -37 32.5 -53.5t81.5 -16.5q32 0 57.5 4t44.5 9q22 6 39 14zM343 332q0 31 -12 48t-42 17q-32 0 -45 -20.5t-14 -59.5h113v15z" />
    <glyph glyph-name="ecircumflex" unicode="&#xea;" horiz-adv-x="572" 
d="M371 771l128 -179h-149l-54 78l-54 -78h-149l128 179h150zM510 24q-25 -10 -58 -18q-28 -7 -66 -12.5t-84 -5.5q-77 0 -129 20.5t-84 56.5t-46 85t-14 106q0 66 17.5 118t51 89t83.5 56.5t115 19.5q62 0 107 -18t74.5 -48.5t44 -72.5t14.5 -90q0 -20 -2 -38.5t-4 -32.5
q-3 -17 -6 -32h-293q5 -37 32.5 -53.5t81.5 -16.5q32 0 57.5 4t44.5 9q22 6 39 14zM343 332q0 31 -12 48t-42 17q-32 0 -45 -20.5t-14 -59.5h113v15z" />
    <glyph glyph-name="edieresis" unicode="&#xeb;" horiz-adv-x="572" 
d="M272 667q0 -40 -21.5 -66t-72.5 -26q-50 0 -72 25t-22 67q0 40 22 65.5t72 25.5q51 0 72.5 -25.5t21.5 -65.5zM504 667q0 -40 -22 -66t-72 -26q-51 0 -72.5 25t-21.5 67q0 40 21.5 65.5t72.5 25.5q50 0 72 -25.5t22 -65.5zM510 24q-25 -10 -58 -18q-28 -7 -66 -12.5
t-84 -5.5q-77 0 -129 20.5t-84 56.5t-46 85t-14 106q0 66 17.5 118t51 89t83.5 56.5t115 19.5q62 0 107 -18t74.5 -48.5t44 -72.5t14.5 -90q0 -20 -2 -38.5t-4 -32.5q-3 -17 -6 -32h-293q5 -37 32.5 -53.5t81.5 -16.5q32 0 57.5 4t44.5 9q22 6 39 14zM343 332q0 31 -12 48
t-42 17q-32 0 -45 -20.5t-14 -59.5h113v15z" />
    <glyph glyph-name="igrave" unicode="&#xec;" horiz-adv-x="299" 
d="M49 0v527h201v-527h-201zM77 592l-132 179h204l89 -179h-161z" />
    <glyph glyph-name="iacute" unicode="&#xed;" horiz-adv-x="299" 
d="M49 0v527h201v-527h-201zM54 592l89 179h204l-132 -179h-161z" />
    <glyph glyph-name="icircumflex" unicode="&#xee;" horiz-adv-x="299" 
d="M49 0v527h201v-527h-201zM224 771l128 -179h-149l-54 78l-54 -78h-149l128 179h150z" />
    <glyph glyph-name="idieresis" unicode="&#xef;" horiz-adv-x="299" 
d="M49 0v527h201v-527h-201zM128 667q0 -40 -21.5 -66t-72.5 -26q-50 0 -72 25t-22 67q0 40 22 65.5t72 25.5q51 0 72.5 -25.5t21.5 -65.5zM360 667q0 -40 -22 -66t-72 -26q-51 0 -72.5 25t-21.5 67q0 40 21.5 65.5t72.5 25.5q50 0 72 -25.5t22 -65.5z" />
    <glyph glyph-name="eth" unicode="&#xf0;" horiz-adv-x="601" 
d="M171 619l47 47q-30 21 -66 42l99 102q20 -8 38.5 -17t35.5 -20l59 59l52 -52l-49 -49q46 -38 80.5 -85t58 -100.5t35 -112t11.5 -119.5q0 -68 -14 -127t-46 -103.5t-86 -70t-133 -25.5q-128 0 -196 71.5t-68 208.5q0 131 55.5 201t167.5 70q17 0 33 -3t28 -7
q14 -4 26 -10q-11 31 -25.5 53t-38.5 47l-52 -52zM368 371q-9 3 -19 7q-8 2 -19.5 4.5t-22.5 2.5q-44 0 -60.5 -33.5t-16.5 -86.5q0 -55 16.5 -89t59.5 -34q21 0 34 11t20 29t9 42.5t2 51.5q0 12 -0.5 28.5t-1.5 31.5q-1 18 -1 35z" />
    <glyph glyph-name="ntilde" unicode="&#xf1;" 
d="M117 590q-1 5 -2 11q-1 5 -1.5 12t-0.5 17q0 27 7.5 52.5t22.5 45t38 31t54 11.5q22 0 41.5 -7.5t35 -16.5t28 -16.5t20.5 -7.5q20 0 20 23q0 6 -2 14q-1 4 -1 8h133l2 -14q1 -6 1.5 -13t0.5 -13q0 -27 -7.5 -52.5t-22.5 -45t-38 -31t-54 -11.5q-23 0 -41.5 7.5t-34 16.5
t-28 16.5t-22.5 7.5q-19 0 -19 -24q0 -11 1 -15t2 -6h-133zM210 527l24 -57q18 19 43 34q21 13 51.5 24t69.5 11q82 0 126.5 -53.5t44.5 -146.5v-339h-201v319q0 34 -15.5 47.5t-40.5 13.5q-13 0 -24 -3t-19 -6q-10 -4 -19 -9v-362h-201v527h161z" />
    <glyph glyph-name="ograve" unicode="&#xf2;" horiz-adv-x="610" 
d="M248 592l-132 179h204l89 -179h-161zM305 -12q-66 0 -117.5 19.5t-87 55.5t-53.5 87t-18 114t18 114t53.5 86.5t87 55t117.5 19.5t117.5 -19.5t87 -55t53.5 -86.5t18 -114t-18 -114t-53.5 -87t-87 -55.5t-117.5 -19.5zM305 141q42 0 58.5 33.5t16.5 89.5t-16 89t-59 33
q-42 0 -58.5 -33t-16.5 -89t16.5 -89.5t58.5 -33.5z" />
    <glyph glyph-name="oacute" unicode="&#xf3;" horiz-adv-x="610" 
d="M205 592l89 179h204l-132 -179h-161zM305 -12q-66 0 -117.5 19.5t-87 55.5t-53.5 87t-18 114t18 114t53.5 86.5t87 55t117.5 19.5t117.5 -19.5t87 -55t53.5 -86.5t18 -114t-18 -114t-53.5 -87t-87 -55.5t-117.5 -19.5zM305 141q42 0 58.5 33.5t16.5 89.5t-16 89t-59 33
q-42 0 -58.5 -33t-16.5 -89t16.5 -89.5t58.5 -33.5z" />
    <glyph glyph-name="ocircumflex" unicode="&#xf4;" horiz-adv-x="610" 
d="M378 771l128 -179h-149l-54 78l-54 -78h-149l128 179h150zM305 -12q-66 0 -117.5 19.5t-87 55.5t-53.5 87t-18 114t18 114t53.5 86.5t87 55t117.5 19.5t117.5 -19.5t87 -55t53.5 -86.5t18 -114t-18 -114t-53.5 -87t-87 -55.5t-117.5 -19.5zM305 141q42 0 58.5 33.5
t16.5 89.5t-16 89t-59 33q-42 0 -58.5 -33t-16.5 -89t16.5 -89.5t58.5 -33.5z" />
    <glyph glyph-name="otilde" unicode="&#xf5;" horiz-adv-x="610" 
d="M111 590q-1 5 -2 11q-1 5 -1.5 12t-0.5 17q0 27 7.5 52.5t22.5 45t38 31t54 11.5q22 0 41.5 -7.5t35 -16.5t28 -16.5t20.5 -7.5q20 0 20 23q0 6 -2 14q-1 4 -1 8h133l2 -14q1 -6 1.5 -13t0.5 -13q0 -27 -7.5 -52.5t-22.5 -45t-38 -31t-54 -11.5q-23 0 -41.5 7.5t-34 16.5
t-28 16.5t-22.5 7.5q-19 0 -19 -24q0 -11 1 -15t2 -6h-133zM305 -12q-66 0 -117.5 19.5t-87 55.5t-53.5 87t-18 114t18 114t53.5 86.5t87 55t117.5 19.5t117.5 -19.5t87 -55t53.5 -86.5t18 -114t-18 -114t-53.5 -87t-87 -55.5t-117.5 -19.5zM305 141q42 0 58.5 33.5
t16.5 89.5t-16 89t-59 33q-42 0 -58.5 -33t-16.5 -89t16.5 -89.5t58.5 -33.5z" />
    <glyph glyph-name="odieresis" unicode="&#xf6;" horiz-adv-x="610" 
d="M279 667q0 -40 -21.5 -66t-72.5 -26q-50 0 -72 25t-22 67q0 40 22 65.5t72 25.5q51 0 72.5 -25.5t21.5 -65.5zM511 667q0 -40 -22 -66t-72 -26q-51 0 -72.5 25t-21.5 67q0 40 21.5 65.5t72.5 25.5q50 0 72 -25.5t22 -65.5zM305 -12q-66 0 -117.5 19.5t-87 55.5t-53.5 87
t-18 114t18 114t53.5 86.5t87 55t117.5 19.5t117.5 -19.5t87 -55t53.5 -86.5t18 -114t-18 -114t-53.5 -87t-87 -55.5t-117.5 -19.5zM305 141q42 0 58.5 33.5t16.5 89.5t-16 89t-59 33q-42 0 -58.5 -33t-16.5 -89t16.5 -89.5t58.5 -33.5z" />
    <glyph glyph-name="divide" unicode="&#xf7;" horiz-adv-x="588" 
d="M397 81q0 -41 -24 -67t-79 -26q-56 0 -79.5 25.5t-23.5 67.5q0 41 23.5 67t79.5 26q55 0 79 -26t24 -67zM397 498q0 -41 -24 -67.5t-79 -26.5q-56 0 -79.5 26t-23.5 68q0 41 23.5 66.5t79.5 25.5q55 0 79 -25.5t24 -66.5zM44 219v143h500v-143h-500z" />
    <glyph glyph-name="oslash" unicode="&#xf8;" horiz-adv-x="610" 
d="M305 -12q-31 0 -54 4l-31 -84h-94l40 108q-67 32 -102 96t-35 152q0 63 18 114t53.5 86.5t87 55t117.5 19.5q31 0 54 -4l28 74h95l-37 -99q66 -32 101 -95t35 -151q0 -63 -18 -114t-53.5 -87t-87 -55.5t-117.5 -19.5zM230 264q0 -36 6 -61l68 183q-42 -1 -58 -34t-16 -88
zM380 264q0 32 -6 58l-67 -181q41 1 57 34.5t16 88.5z" />
    <glyph glyph-name="ugrave" unicode="&#xf9;" 
d="M233 592l-132 179h204l89 -179h-161zM245 527v-319q0 -34 15.5 -47.5t40.5 -13.5q12 0 23.5 2.5t19.5 6.5q10 4 19 9v362h201v-527h-161l-24 57q-18 -20 -43 -35q-21 -13 -51.5 -23.5t-69.5 -10.5q-82 0 -126.5 53.5t-44.5 146.5v339h201z" />
    <glyph glyph-name="uacute" unicode="&#xfa;" 
d="M207 592l89 179h204l-132 -179h-161zM245 527v-319q0 -34 15.5 -47.5t40.5 -13.5q12 0 23.5 2.5t19.5 6.5q10 4 19 9v362h201v-527h-161l-24 57q-18 -20 -43 -35q-21 -13 -51.5 -23.5t-69.5 -10.5q-82 0 -126.5 53.5t-44.5 146.5v339h201z" />
    <glyph glyph-name="ucircumflex" unicode="&#xfb;" 
d="M375 771l128 -179h-149l-54 78l-54 -78h-149l128 179h150zM245 527v-319q0 -34 15.5 -47.5t40.5 -13.5q12 0 23.5 2.5t19.5 6.5q10 4 19 9v362h201v-527h-161l-24 57q-18 -20 -43 -35q-21 -13 -51.5 -23.5t-69.5 -10.5q-82 0 -126.5 53.5t-44.5 146.5v339h201z" />
    <glyph glyph-name="udieresis" unicode="&#xfc;" 
d="M281 667q0 -40 -21.5 -66t-72.5 -26q-50 0 -72 25t-22 67q0 40 22 65.5t72 25.5q51 0 72.5 -25.5t21.5 -65.5zM513 667q0 -40 -22 -66t-72 -26q-51 0 -72.5 25t-21.5 67q0 40 21.5 65.5t72.5 25.5q50 0 72 -25.5t22 -65.5zM245 527v-319q0 -34 15.5 -47.5t40.5 -13.5
q12 0 23.5 2.5t19.5 6.5q10 4 19 9v362h201v-527h-161l-24 57q-18 -20 -43 -35q-21 -13 -51.5 -23.5t-69.5 -10.5q-82 0 -126.5 53.5t-44.5 146.5v339h201z" />
    <glyph glyph-name="yacute" unicode="&#xfd;" horiz-adv-x="571" 
d="M197 592l89 179h204l-132 -179h-161zM35 -52q7 -3 17 -6q18 -5 44 -5q30 0 47.5 10t27.5 22q11 14 15 33l-182 525h209l52 -240l18 -128l83 368h201l-189 -550q-17 -50 -39.5 -86t-53.5 -60t-71 -35.5t-92 -11.5q-24 0 -44 2t-34 4q-17 3 -29 7z" />
    <glyph glyph-name="thorn" unicode="&#xfe;" horiz-adv-x="612" 
d="M250 731v-246q15 18 49.5 36t84.5 18q43 0 79.5 -17t63 -50t41.5 -82t15 -112q0 -75 -21 -129.5t-57 -90.5t-84.5 -53t-103.5 -17q-22 0 -38.5 2.5t-31.5 6.5l3 -35v-166h-201v935h201zM250 149q6 -2 14 -4q7 -2 15 -3t19 -1q45 0 64.5 29t19.5 91q0 51 -15.5 84
t-57.5 33q-13 0 -23.5 -3t-18.5 -6q-10 -4 -17 -8v-212z" />
    <glyph glyph-name="ydieresis" unicode="&#xff;" horiz-adv-x="571" 
d="M268 667q0 -40 -21.5 -66t-72.5 -26q-50 0 -72 25t-22 67q0 40 22 65.5t72 25.5q51 0 72.5 -25.5t21.5 -65.5zM500 667q0 -40 -22 -66t-72 -26q-51 0 -72.5 25t-21.5 67q0 40 21.5 65.5t72.5 25.5q50 0 72 -25.5t22 -65.5zM35 -52q7 -3 17 -6q18 -5 44 -5q30 0 47.5 10
t27.5 22q11 14 15 33l-182 525h209l52 -240l18 -128l83 368h201l-189 -550q-17 -50 -39.5 -86t-53.5 -60t-71 -35.5t-92 -11.5q-24 0 -44 2t-34 4q-17 3 -29 7z" />
    <glyph glyph-name="Amacron" unicode="&#x100;" horiz-adv-x="730" 
d="M191 765v123h349v-123h-349zM491 707l225 -707h-208l-37 132h-212l-37 -132h-208l225 707h252zM343 426l-44 -148h131l-43 148l-22 94z" />
    <glyph glyph-name="amacron" unicode="&#x101;" horiz-adv-x="574" 
d="M63 499q27 11 61 20q29 8 70.5 14t93.5 6q57 0 102 -10t76 -32.5t47.5 -59.5t16.5 -91v-346h-158l-17 56q-16 -19 -40 -34q-20 -13 -51.5 -23.5t-74.5 -10.5q-74 0 -116.5 42.5t-42.5 109.5q0 81 69.5 125.5t222.5 45.5h7v15q0 31 -21 45t-69 14q-32 0 -59 -5.5
t-47 -12.5q-24 -8 -42 -17zM113 608v123h349v-123h-349zM329 204q-4 1 -9 2t-10.5 1.5t-13.5 0.5q-32 0 -50 -11.5t-18 -34.5q0 -20 13.5 -30.5t36.5 -10.5q12 0 21.5 2.5t16.5 5.5q8 4 13 9v66z" />
    <glyph glyph-name="Abreve" unicode="&#x102;" horiz-adv-x="730" 
d="M544 941q0 -37 -11.5 -70.5t-34.5 -59t-57 -41t-78 -15.5t-74.5 12t-51 30t-31.5 40t-16.5 43t-6.5 37.5t-1 23.5h127q0 -3 1 -13t6.5 -21t16 -19.5t30.5 -8.5q26 0 40 18.5t14 43.5h127zM491 707l225 -707h-208l-37 132h-212l-37 -132h-208l225 707h252zM343 426
l-44 -148h131l-43 148l-22 94z" />
    <glyph glyph-name="abreve" unicode="&#x103;" horiz-adv-x="574" 
d="M469 775q0 -37 -11.5 -70.5t-34.5 -59t-57 -41t-78 -15.5t-74.5 12t-51 30t-31.5 40t-16.5 43t-6.5 37.5t-1 23.5h127q0 -3 1 -13t6.5 -21t16 -19.5t30.5 -8.5q26 0 40 18.5t14 43.5h127zM63 499q27 11 61 20q29 8 70.5 14t93.5 6q57 0 102 -10t76 -32.5t47.5 -59.5
t16.5 -91v-346h-158l-17 56q-16 -19 -40 -34q-20 -13 -51.5 -23.5t-74.5 -10.5q-74 0 -116.5 42.5t-42.5 109.5q0 81 69.5 125.5t222.5 45.5h7v15q0 31 -21 45t-69 14q-32 0 -59 -5.5t-47 -12.5q-24 -8 -42 -17zM329 204q-4 1 -9 2t-10.5 1.5t-13.5 0.5q-32 0 -50 -11.5
t-18 -34.5q0 -20 13.5 -30.5t36.5 -10.5q12 0 21.5 2.5t16.5 5.5q8 4 13 9v66z" />
    <glyph glyph-name="Aogonek" unicode="&#x104;" horiz-adv-x="730" 
d="M716 0q-42 -9 -64.5 -29.5t-22.5 -37.5q0 -11 10.5 -18.5t33.5 -7.5q11 0 23.5 2t28.5 6l4 -109q-58 -23 -121 -23q-29 0 -55 5.5t-46 16.5t-32 28.5t-12 40.5q0 38 27.5 70.5t69.5 55.5h156zM491 707l225 -707h-208l-37 132h-212l-37 -132h-208l225 707h252zM343 426
l-44 -148h131l-43 148l-22 94z" />
    <glyph glyph-name="aogonek" unicode="&#x105;" horiz-adv-x="574" 
d="M63 499q27 11 61 20q29 8 70.5 14t93.5 6q57 0 102 -10t76 -32.5t47.5 -59.5t16.5 -91v-346q-42 -9 -64.5 -29.5t-22.5 -37.5q0 -11 10.5 -18.5t33.5 -7.5q11 0 23.5 2t28.5 6l4 -109q-58 -23 -121 -23q-29 0 -55 5.5t-46 16.5t-32 28.5t-12 40.5q0 27 11.5 48.5t27.5 37
t32.5 25.5t26.5 15h-3l-17 56q-16 -19 -40 -34q-20 -13 -51.5 -23.5t-74.5 -10.5q-74 0 -116.5 42.5t-42.5 109.5q0 81 69.5 125.5t222.5 45.5h7v15q0 31 -21 45t-69 14q-32 0 -59 -5.5t-47 -12.5q-24 -8 -42 -17zM329 204q-4 1 -9 2t-10.5 1.5t-13.5 0.5q-32 0 -50 -11.5
t-18 -34.5q0 -20 13.5 -30.5t36.5 -10.5q12 0 21.5 2.5t16.5 5.5q8 4 13 9v66z" />
    <glyph glyph-name="Cacute" unicode="&#x106;" horiz-adv-x="622" 
d="M275 755l89 179h204l-132 -179h-161zM241 354q0 -55 15.5 -92.5t41.5 -60.5t60.5 -33t72.5 -10q24 0 45 3t37 7q18 4 33 11l27 -161q-18 -9 -44 -15q-22 -6 -54 -10.5t-74 -4.5q-95 0 -164 26t-113.5 74t-66 115t-21.5 150t23.5 150.5t69.5 115.5t115 74t160 26
q42 0 74 -5t53 -10q25 -7 42 -15l-27 -161q-15 6 -33 10q-16 4 -37 7.5t-46 3.5q-38 0 -72 -10t-60 -33t-41.5 -60t-15.5 -92z" />
    <glyph glyph-name="cacute" unicode="&#x107;" horiz-adv-x="500" 
d="M190 592l89 179h204l-132 -179h-161zM436 369q-12 3 -26 7q-12 3 -28 5.5t-34 2.5q-54 0 -86 -27.5t-32 -93.5q0 -65 32.5 -92.5t87.5 -27.5q17 0 33 2t28 5q14 3 25 7l25 -144q-19 -8 -42 -13q-20 -5 -47.5 -8.5t-60.5 -3.5q-137 0 -209.5 72t-72.5 203q0 133 74 204.5
t213 71.5q34 0 60.5 -3.5t45.5 -8.5q22 -5 39 -12z" />
    <glyph glyph-name="Ccircumflex" unicode="&#x108;" horiz-adv-x="622" 
d="M452 934l128 -179h-149l-54 78l-54 -78h-149l128 179h150zM241 354q0 -55 15.5 -92.5t41.5 -60.5t60.5 -33t72.5 -10q24 0 45 3t37 7q18 4 33 11l27 -161q-18 -9 -44 -15q-22 -6 -54 -10.5t-74 -4.5q-95 0 -164 26t-113.5 74t-66 115t-21.5 150t23.5 150.5t69.5 115.5
t115 74t160 26q42 0 74 -5t53 -10q25 -7 42 -15l-27 -161q-15 6 -33 10q-16 4 -37 7.5t-46 3.5q-38 0 -72 -10t-60 -33t-41.5 -60t-15.5 -92z" />
    <glyph glyph-name="ccircumflex" unicode="&#x109;" horiz-adv-x="500" 
d="M359 771l128 -179h-149l-54 78l-54 -78h-149l128 179h150zM436 369q-12 3 -26 7q-12 3 -28 5.5t-34 2.5q-54 0 -86 -27.5t-32 -93.5q0 -65 32.5 -92.5t87.5 -27.5q17 0 33 2t28 5q14 3 25 7l25 -144q-19 -8 -42 -13q-20 -5 -47.5 -8.5t-60.5 -3.5q-137 0 -209.5 72
t-72.5 203q0 133 74 204.5t213 71.5q34 0 60.5 -3.5t45.5 -8.5q22 -5 39 -12z" />
    <glyph glyph-name="Cdotaccent" unicode="&#x10a;" horiz-adv-x="622" 
d="M482 852q0 -42 -24 -69.5t-80 -27.5t-80.5 26.5t-24.5 70.5q0 42 24.5 69t80.5 27t80 -27t24 -69zM241 354q0 -55 15.5 -92.5t41.5 -60.5t60.5 -33t72.5 -10q24 0 45 3t37 7q18 4 33 11l27 -161q-18 -9 -44 -15q-22 -6 -54 -10.5t-74 -4.5q-95 0 -164 26t-113.5 74
t-66 115t-21.5 150t23.5 150.5t69.5 115.5t115 74t160 26q42 0 74 -5t53 -10q25 -7 42 -15l-27 -161q-15 6 -33 10q-16 4 -37 7.5t-46 3.5q-38 0 -72 -10t-60 -33t-41.5 -60t-15.5 -92z" />
    <glyph glyph-name="cdotaccent" unicode="&#x10b;" horiz-adv-x="500" 
d="M391 687q0 -42 -24 -69.5t-80 -27.5t-80.5 26.5t-24.5 70.5q0 42 24.5 69t80.5 27t80 -27t24 -69zM436 369q-12 3 -26 7q-12 3 -28 5.5t-34 2.5q-54 0 -86 -27.5t-32 -93.5q0 -65 32.5 -92.5t87.5 -27.5q17 0 33 2t28 5q14 3 25 7l25 -144q-19 -8 -42 -13
q-20 -5 -47.5 -8.5t-60.5 -3.5q-137 0 -209.5 72t-72.5 203q0 133 74 204.5t213 71.5q34 0 60.5 -3.5t45.5 -8.5q22 -5 39 -12z" />
    <glyph glyph-name="Ccaron" unicode="&#x10c;" horiz-adv-x="622" 
d="M295 755l-128 179h149l54 -78l54 78h149l-128 -179h-150zM241 354q0 -55 15.5 -92.5t41.5 -60.5t60.5 -33t72.5 -10q24 0 45 3t37 7q18 4 33 11l27 -161q-18 -9 -44 -15q-22 -6 -54 -10.5t-74 -4.5q-95 0 -164 26t-113.5 74t-66 115t-21.5 150t23.5 150.5t69.5 115.5
t115 74t160 26q42 0 74 -5t53 -10q25 -7 42 -15l-27 -161q-15 6 -33 10q-16 4 -37 7.5t-46 3.5q-38 0 -72 -10t-60 -33t-41.5 -60t-15.5 -92z" />
    <glyph glyph-name="ccaron" unicode="&#x10d;" horiz-adv-x="500" 
d="M219 592l-128 179h149l54 -78l54 78h149l-128 -179h-150zM436 369q-12 3 -26 7q-12 3 -28 5.5t-34 2.5q-54 0 -86 -27.5t-32 -93.5q0 -65 32.5 -92.5t87.5 -27.5q17 0 33 2t28 5q14 3 25 7l25 -144q-19 -8 -42 -13q-20 -5 -47.5 -8.5t-60.5 -3.5q-137 0 -209.5 72
t-72.5 203q0 133 74 204.5t213 71.5q34 0 60.5 -3.5t45.5 -8.5q22 -5 39 -12z" />
    <glyph glyph-name="Dcaron" unicode="&#x10e;" horiz-adv-x="723" 
d="M246 755l-128 179h149l54 -78l54 78h149l-128 -179h-150zM59 707h269q107 0 176.5 -27.5t110 -75.5t56.5 -113t16 -139q0 -73 -17 -137t-58 -112t-110 -75.5t-174 -27.5h-269v707zM360 168q32 0 55 14t38 38.5t22 58.5t7 74t-6.5 74.5t-21.5 59.5t-38.5 39t-57.5 14h-94
v-372h96z" />
    <glyph glyph-name="dcaron" unicode="&#x10f;" horiz-adv-x="815" 
d="M606 476q7 3 18.5 13.5t23.5 24t21.5 28.5t11.5 27q-39 2 -53.5 27.5t-14.5 57.5q0 38 22 63t75 25q39 0 67.5 -25.5t28.5 -83.5q0 -44 -16.5 -80.5t-37.5 -63t-41 -42t-28 -18.5zM401 0l-23 59q-16 -20 -38 -36q-19 -14 -47 -24.5t-66 -10.5q-43 0 -79 17t-62.5 50
t-41.5 81.5t-15 111.5q0 78 22 133t60 90.5t88.5 51.5t106.5 16q17 0 31 -1.5t27 -3.5l-2 31v166h201v-731h-162zM362 378q-6 2 -14 4q-7 2 -15.5 3t-18.5 1q-45 0 -64.5 -29t-19.5 -91q0 -51 15.5 -84t57.5 -33q12 0 23 2.5t19 5.5q10 4 17 9v212z" />
    <glyph glyph-name="Dcroat" unicode="&#x110;" horiz-adv-x="723" 
d="M7 427h52v280h269q107 0 176.5 -27.5t110 -75.5t56.5 -113t16 -139q0 -73 -17 -137t-58 -112t-110 -75.5t-174 -27.5h-269v269h-52v158zM360 168q32 0 55 14t38 38.5t22 58.5t7 74t-6.5 74.5t-21.5 59.5t-38.5 39t-57.5 14h-94v-113h110v-158h-110v-101h96z" />
    <glyph glyph-name="dcroat" unicode="&#x111;" horiz-adv-x="612" 
d="M401 0l-23 59q-16 -20 -38 -36q-19 -14 -47 -24.5t-66 -10.5q-43 0 -79 17t-62.5 50t-41.5 81.5t-15 111.5q0 78 22 133t60 90.5t88.5 51.5t106.5 16q17 0 31 -1.5t27 -3.5l-2 31v12h-115v106h115v48h201v-48h67v-106h-67v-577h-162zM362 378q-6 2 -14 4q-7 2 -15.5 3
t-18.5 1q-45 0 -64.5 -29t-19.5 -91q0 -51 15.5 -84t57.5 -33q12 0 23 2.5t19 5.5q10 4 17 9v212z" />
    <glyph glyph-name="Emacron" unicode="&#x112;" horiz-adv-x="629" 
d="M148 765v123h349v-123h-349zM59 0v707h518v-167h-313v-102h267v-168h-267v-102h313v-168h-518z" />
    <glyph glyph-name="emacron" unicode="&#x113;" horiz-adv-x="572" 
d="M120 608v123h349v-123h-349zM510 24q-25 -10 -58 -18q-28 -7 -66 -12.5t-84 -5.5q-77 0 -129 20.5t-84 56.5t-46 85t-14 106q0 66 17.5 118t51 89t83.5 56.5t115 19.5q62 0 107 -18t74.5 -48.5t44 -72.5t14.5 -90q0 -20 -2 -38.5t-4 -32.5q-3 -17 -6 -32h-293
q5 -37 32.5 -53.5t81.5 -16.5q32 0 57.5 4t44.5 9q22 6 39 14zM343 332q0 31 -12 48t-42 17q-32 0 -45 -20.5t-14 -59.5h113v15z" />
    <glyph glyph-name="Ebreve" unicode="&#x114;" horiz-adv-x="629" 
d="M503 941q0 -37 -11.5 -70.5t-34.5 -59t-57 -41t-78 -15.5t-74.5 12t-51 30t-31.5 40t-16.5 43t-6.5 37.5t-1 23.5h127q0 -3 1 -13t6.5 -21t16 -19.5t30.5 -8.5q26 0 40 18.5t14 43.5h127zM59 0v707h518v-167h-313v-102h267v-168h-267v-102h313v-168h-518z" />
    <glyph glyph-name="ebreve" unicode="&#x115;" horiz-adv-x="572" 
d="M466 775q0 -37 -11.5 -70.5t-34.5 -59t-57 -41t-78 -15.5t-74.5 12t-51 30t-31.5 40t-16.5 43t-6.5 37.5t-1 23.5h127q0 -3 1 -13t6.5 -21t16 -19.5t30.5 -8.5q26 0 40 18.5t14 43.5h127zM510 24q-25 -10 -58 -18q-28 -7 -66 -12.5t-84 -5.5q-77 0 -129 20.5t-84 56.5
t-46 85t-14 106q0 66 17.5 118t51 89t83.5 56.5t115 19.5q62 0 107 -18t74.5 -48.5t44 -72.5t14.5 -90q0 -20 -2 -38.5t-4 -32.5q-3 -17 -6 -32h-293q5 -37 32.5 -53.5t81.5 -16.5q32 0 57.5 4t44.5 9q22 6 39 14zM343 332q0 31 -12 48t-42 17q-32 0 -45 -20.5t-14 -59.5
h113v15z" />
    <glyph glyph-name="Edotaccent" unicode="&#x116;" horiz-adv-x="629" 
d="M427 852q0 -42 -24 -69.5t-80 -27.5t-80.5 26.5t-24.5 70.5q0 42 24.5 69t80.5 27t80 -27t24 -69zM59 0v707h518v-167h-313v-102h267v-168h-267v-102h313v-168h-518z" />
    <glyph glyph-name="edotaccent" unicode="&#x117;" horiz-adv-x="572" 
d="M390 687q0 -42 -24 -69.5t-80 -27.5t-80.5 26.5t-24.5 70.5q0 42 24.5 69t80.5 27t80 -27t24 -69zM510 24q-25 -10 -58 -18q-28 -7 -66 -12.5t-84 -5.5q-77 0 -129 20.5t-84 56.5t-46 85t-14 106q0 66 17.5 118t51 89t83.5 56.5t115 19.5q62 0 107 -18t74.5 -48.5
t44 -72.5t14.5 -90q0 -20 -2 -38.5t-4 -32.5q-3 -17 -6 -32h-293q5 -37 32.5 -53.5t81.5 -16.5q32 0 57.5 4t44.5 9q22 6 39 14zM343 332q0 31 -12 48t-42 17q-32 0 -45 -20.5t-14 -59.5h113v15z" />
    <glyph glyph-name="Eogonek" unicode="&#x118;" horiz-adv-x="642" 
d="M577 0q-42 -9 -64.5 -29.5t-22.5 -37.5q0 -11 10.5 -18.5t33.5 -7.5q11 0 23.5 2t28.5 6l4 -109q-58 -23 -121 -23q-29 0 -55 5.5t-46 16.5t-32 28.5t-12 40.5q0 38 27.5 70.5t69.5 55.5h-362v707h518v-167h-313v-102h267v-168h-267v-102h313v-168v0z" />
    <glyph glyph-name="eogonek" unicode="&#x119;" horiz-adv-x="572" 
d="M510 24q-12 -5 -27 -9q-13 -4 -31 -8.5t-40 -8.5q-37 -11 -57 -29.5t-20 -35.5q0 -11 10.5 -18.5t33.5 -7.5q11 0 23.5 2t28.5 6l4 -109q-58 -23 -121 -23q-29 0 -55 5.5t-46 16.5t-32 28.5t-12 40.5q0 34 23 64t58 53q-62 7 -104 29.5t-68 58t-37.5 80.5t-11.5 97
q0 66 17.5 118t51 89t83.5 56.5t115 19.5q62 0 107 -18t74.5 -48.5t44 -72.5t14.5 -90q0 -20 -2 -38.5t-4 -32.5q-3 -17 -6 -32h-293q5 -37 32.5 -53.5t81.5 -16.5q32 0 57.5 4t44.5 9q22 6 39 14zM343 332q0 31 -12 48t-42 17q-32 0 -45 -20.5t-14 -59.5h113v15z" />
    <glyph glyph-name="Ecaron" unicode="&#x11a;" horiz-adv-x="629" 
d="M245 755l-128 179h149l54 -78l54 78h149l-128 -179h-150zM59 0v707h518v-167h-313v-102h267v-168h-267v-102h313v-168h-518z" />
    <glyph glyph-name="ecaron" unicode="&#x11b;" horiz-adv-x="572" 
d="M218 592l-128 179h149l54 -78l54 78h149l-128 -179h-150zM510 24q-25 -10 -58 -18q-28 -7 -66 -12.5t-84 -5.5q-77 0 -129 20.5t-84 56.5t-46 85t-14 106q0 66 17.5 118t51 89t83.5 56.5t115 19.5q62 0 107 -18t74.5 -48.5t44 -72.5t14.5 -90q0 -20 -2 -38.5t-4 -32.5
q-3 -17 -6 -32h-293q5 -37 32.5 -53.5t81.5 -16.5q32 0 57.5 4t44.5 9q22 6 39 14zM343 332q0 31 -12 48t-42 17q-32 0 -45 -20.5t-14 -59.5h113v15z" />
    <glyph glyph-name="Gcircumflex" unicode="&#x11c;" horiz-adv-x="675" 
d="M241 351q0 -53 14 -90t38.5 -60t57.5 -33t71 -10h3v188h196v-324q-27 -10 -60 -17q-29 -7 -67 -12t-85 -5q-99 0 -169.5 27t-115.5 75.5t-66.5 114.5t-21.5 144q0 84 24 152t71 116.5t118 75t166 26.5q42 0 76 -4.5t60 -9.5q29 -6 53 -14l-29 -163q-18 6 -40 10
q-19 4 -43.5 7.5t-51.5 3.5q-42 0 -78.5 -10t-63 -33t-42 -61t-15.5 -94zM453 934l128 -179h-149l-54 78l-54 -78h-149l128 179h150z" />
    <glyph glyph-name="gcircumflex" unicode="&#x11d;" horiz-adv-x="620" 
d="M370 771l128 -179h-149l-54 78l-54 -78h-149l128 179h150zM520 395q1 -5 2 -11q1 -5 1.5 -11.5t0.5 -12.5q0 -40 -15 -72.5t-46.5 -56t-79 -36.5t-112.5 -13h-15.5t-15.5 1q-1 -1 -2 -3q-2 -4 -2 -10q0 -17 25 -18l124 -8q31 -2 64.5 -8.5t61.5 -22.5t46 -43.5t18 -70.5
q0 -41 -16.5 -79.5t-54.5 -68.5t-99.5 -48.5t-151.5 -18.5q-126 0 -185 33t-59 86q0 42 32 70t83 42q-21 7 -34.5 17t-21.5 22t-11 23.5t-3 21.5q0 32 24 59.5t58 42.5q-45 19 -75 57.5t-30 98.5q0 45 18 79t51 57t79.5 34.5t102.5 11.5q45 0 84.5 -7.5t69.5 -22.5l157 20
l9 -134h-82zM230 0q-7 -6 -12 -13q-5 -6 -8 -15t-3 -19q0 -20 17.5 -35t61.5 -15q42 0 70.5 14.5t28.5 40.5q0 17 -15 27.5t-49 12.5zM339 356q0 33 -18 49.5t-44 16.5q-28 0 -44.5 -17.5t-16.5 -49.5q0 -29 15.5 -46.5t45.5 -17.5q32 0 47 18.5t15 46.5z" />
    <glyph glyph-name="Gbreve" unicode="&#x11e;" horiz-adv-x="675" 
d="M241 351q0 -53 14 -90t38.5 -60t57.5 -33t71 -10h3v188h196v-324q-27 -10 -60 -17q-29 -7 -67 -12t-85 -5q-99 0 -169.5 27t-115.5 75.5t-66.5 114.5t-21.5 144q0 84 24 152t71 116.5t118 75t166 26.5q42 0 76 -4.5t60 -9.5q29 -6 53 -14l-29 -163q-18 6 -40 10
q-19 4 -43.5 7.5t-51.5 3.5q-42 0 -78.5 -10t-63 -33t-42 -61t-15.5 -94zM557 941q0 -37 -11.5 -70.5t-34.5 -59t-57 -41t-78 -15.5t-74.5 12t-51 30t-31.5 40t-16.5 43t-6.5 37.5t-1 23.5h127q0 -3 1 -13t6.5 -21t16 -19.5t30.5 -8.5q26 0 40 18.5t14 43.5h127z" />
    <glyph glyph-name="gbreve" unicode="&#x11f;" horiz-adv-x="620" 
d="M467 775q0 -37 -11.5 -70.5t-34.5 -59t-57 -41t-78 -15.5t-74.5 12t-51 30t-31.5 40t-16.5 43t-6.5 37.5t-1 23.5h127q0 -3 1 -13t6.5 -21t16 -19.5t30.5 -8.5q26 0 40 18.5t14 43.5h127zM520 395q1 -5 2 -11q1 -5 1.5 -11.5t0.5 -12.5q0 -40 -15 -72.5t-46.5 -56
t-79 -36.5t-112.5 -13h-15.5t-15.5 1q-1 -1 -2 -3q-2 -4 -2 -10q0 -17 25 -18l124 -8q31 -2 64.5 -8.5t61.5 -22.5t46 -43.5t18 -70.5q0 -41 -16.5 -79.5t-54.5 -68.5t-99.5 -48.5t-151.5 -18.5q-126 0 -185 33t-59 86q0 42 32 70t83 42q-21 7 -34.5 17t-21.5 22t-11 23.5
t-3 21.5q0 32 24 59.5t58 42.5q-45 19 -75 57.5t-30 98.5q0 45 18 79t51 57t79.5 34.5t102.5 11.5q45 0 84.5 -7.5t69.5 -22.5l157 20l9 -134h-82zM230 0q-7 -6 -12 -13q-5 -6 -8 -15t-3 -19q0 -20 17.5 -35t61.5 -15q42 0 70.5 14.5t28.5 40.5q0 17 -15 27.5t-49 12.5z
M339 356q0 33 -18 49.5t-44 16.5q-28 0 -44.5 -17.5t-16.5 -49.5q0 -29 15.5 -46.5t45.5 -17.5q32 0 47 18.5t15 46.5z" />
    <glyph glyph-name="Gdotaccent" unicode="&#x120;" horiz-adv-x="675" 
d="M241 351q0 -53 14 -90t38.5 -60t57.5 -33t71 -10h3v188h196v-324q-27 -10 -60 -17q-29 -7 -67 -12t-85 -5q-99 0 -169.5 27t-115.5 75.5t-66.5 114.5t-21.5 144q0 84 24 152t71 116.5t118 75t166 26.5q42 0 76 -4.5t60 -9.5q29 -6 53 -14l-29 -163q-18 6 -40 10
q-19 4 -43.5 7.5t-51.5 3.5q-42 0 -78.5 -10t-63 -33t-42 -61t-15.5 -94zM494 852q0 -42 -24 -69.5t-80 -27.5t-80.5 26.5t-24.5 70.5q0 42 24.5 69t80.5 27t80 -27t24 -69z" />
    <glyph glyph-name="gdotaccent" unicode="&#x121;" horiz-adv-x="620" 
d="M387 687q0 -42 -24 -69.5t-80 -27.5t-80.5 26.5t-24.5 70.5q0 42 24.5 69t80.5 27t80 -27t24 -69zM520 395q1 -5 2 -11q1 -5 1.5 -11.5t0.5 -12.5q0 -40 -15 -72.5t-46.5 -56t-79 -36.5t-112.5 -13h-15.5t-15.5 1q-1 -1 -2 -3q-2 -4 -2 -10q0 -17 25 -18l124 -8
q31 -2 64.5 -8.5t61.5 -22.5t46 -43.5t18 -70.5q0 -41 -16.5 -79.5t-54.5 -68.5t-99.5 -48.5t-151.5 -18.5q-126 0 -185 33t-59 86q0 42 32 70t83 42q-21 7 -34.5 17t-21.5 22t-11 23.5t-3 21.5q0 32 24 59.5t58 42.5q-45 19 -75 57.5t-30 98.5q0 45 18 79t51 57t79.5 34.5
t102.5 11.5q45 0 84.5 -7.5t69.5 -22.5l157 20l9 -134h-82zM230 0q-7 -6 -12 -13q-5 -6 -8 -15t-3 -19q0 -20 17.5 -35t61.5 -15q42 0 70.5 14.5t28.5 40.5q0 17 -15 27.5t-49 12.5zM339 356q0 33 -18 49.5t-44 16.5q-28 0 -44.5 -17.5t-16.5 -49.5q0 -29 15.5 -46.5
t45.5 -17.5q32 0 47 18.5t15 46.5z" />
    <glyph glyph-name="Gcommaaccent" unicode="&#x122;" horiz-adv-x="675" 
d="M241 351q0 -53 14 -90t38.5 -60t57.5 -33t71 -10h3v188h196v-324q-27 -10 -60 -17q-29 -7 -67 -12t-85 -5q-99 0 -169.5 27t-115.5 75.5t-66.5 114.5t-21.5 144q0 84 24 152t71 116.5t118 75t166 26.5q42 0 76 -4.5t60 -9.5q29 -6 53 -14l-29 -163q-18 6 -40 10
q-19 4 -43.5 7.5t-51.5 3.5q-42 0 -78.5 -10t-63 -33t-42 -61t-15.5 -94zM301 -327q7 3 18.5 13.5t23.5 24t21.5 28.5t11.5 27q-39 2 -53.5 27.5t-14.5 57.5q0 38 22 63t75 25q39 0 67.5 -25.5t28.5 -83.5q0 -44 -16.5 -80.5t-37.5 -63t-41 -42t-28 -18.5z" />
    <glyph glyph-name="gcommaaccent" unicode="&#x123;" horiz-adv-x="620" 
d="M379 856q-7 -3 -18.5 -13.5t-23.5 -24t-21.5 -28.5t-11.5 -27q39 -2 53.5 -27.5t14.5 -57.5q0 -38 -22 -63t-75 -25q-39 0 -67.5 25.5t-28.5 83.5q0 44 16.5 80.5t37.5 63t41 42t28 18.5zM520 395q1 -5 2 -11q1 -5 1.5 -11.5t0.5 -12.5q0 -40 -15 -72.5t-46.5 -56
t-79 -36.5t-112.5 -13h-15.5t-15.5 1q-1 -1 -2 -3q-2 -4 -2 -10q0 -17 25 -18l124 -8q31 -2 64.5 -8.5t61.5 -22.5t46 -43.5t18 -70.5q0 -41 -16.5 -79.5t-54.5 -68.5t-99.5 -48.5t-151.5 -18.5q-126 0 -185 33t-59 86q0 42 32 70t83 42q-21 7 -34.5 17t-21.5 22t-11 23.5
t-3 21.5q0 32 24 59.5t58 42.5q-45 19 -75 57.5t-30 98.5q0 45 18 79t51 57t79.5 34.5t102.5 11.5q45 0 84.5 -7.5t69.5 -22.5l157 20l9 -134h-82zM230 0q-7 -6 -12 -13q-5 -6 -8 -15t-3 -19q0 -20 17.5 -35t61.5 -15q42 0 70.5 14.5t28.5 40.5q0 17 -15 27.5t-49 12.5z
M339 356q0 33 -18 49.5t-44 16.5q-28 0 -44.5 -17.5t-16.5 -49.5q0 -29 15.5 -46.5t45.5 -17.5q32 0 47 18.5t15 46.5z" />
    <glyph glyph-name="Hcircumflex" unicode="&#x124;" horiz-adv-x="747" 
d="M441 934l128 -179h-149l-54 78l-54 -78h-149l128 179h150zM483 0v258h-219v-258h-205v707h205v-266h219v266h205v-707h-205z" />
    <glyph glyph-name="hcircumflex" unicode="&#x125;" 
d="M215 965l128 -179h-149l-54 78l-54 -78h-149l128 179h150zM250 731v-197l-3 -56q6 7 19 17t31.5 20t43.5 17t57 7q82 0 126.5 -53.5t44.5 -146.5v-339h-201v319q0 34 -15.5 47.5t-40.5 13.5q-13 0 -24 -3t-19 -6q-10 -4 -19 -9v-362h-201v731h201z" />
    <glyph glyph-name="Hbar" unicode="&#x126;" horiz-adv-x="747" 
d="M483 0v258h-219v-258h-205v526h-44v111h44v70h205v-70h219v70h205v-70h44v-111h-44v-526h-205zM483 441v85h-219v-85h219z" />
    <glyph glyph-name="hbar" unicode="&#x127;" 
d="M250 731v-48h120v-106h-120v-43l-3 -56q6 7 19 17t31.5 20t43.5 17t57 7q82 0 126.5 -53.5t44.5 -146.5v-339h-201v319q0 34 -15.5 47.5t-40.5 13.5q-13 0 -24 -3t-19 -6q-10 -4 -19 -9v-362h-201v577h-62v106h62v48h201z" />
    <glyph glyph-name="Itilde" unicode="&#x128;" horiz-adv-x="329" 
d="M62 0v707h205v-707h-205zM-32 758q-1 5 -2 11q-1 5 -1.5 12t-0.5 17q0 27 7.5 52.5t22.5 45t38 31t54 11.5q22 0 41.5 -7.5t35 -16.5t28 -16.5t20.5 -7.5q20 0 20 23q0 6 -2 14q-1 4 -1 8h133l2 -14q1 -6 1.5 -13t0.5 -13q0 -27 -7.5 -52.5t-22.5 -45t-38 -31t-54 -11.5
q-23 0 -41.5 7.5t-34 16.5t-28 16.5t-22.5 7.5q-19 0 -19 -24q0 -11 1 -15t2 -6h-133z" />
    <glyph glyph-name="itilde" unicode="&#x129;" horiz-adv-x="299" 
d="M59 0v527h201v-527h-201zM-47 590q-1 5 -2 11q-1 5 -1.5 12t-0.5 17q0 27 7.5 52.5t22.5 45t38 31t54 11.5q22 0 41.5 -7.5t35 -16.5t28 -16.5t20.5 -7.5q20 0 20 23q0 6 -2 14q-1 4 -1 8h133l2 -14q1 -6 1.5 -13t0.5 -13q0 -27 -7.5 -52.5t-22.5 -45t-38 -31t-54 -11.5
q-23 0 -41.5 7.5t-34 16.5t-28 16.5t-22.5 7.5q-19 0 -19 -24q0 -11 1 -15t2 -6h-133z" />
    <glyph glyph-name="Imacron" unicode="&#x12a;" horiz-adv-x="329" 
d="M-10 765v123h349v-123h-349zM62 0v707h205v-707h-205z" />
    <glyph glyph-name="imacron" unicode="&#x12b;" horiz-adv-x="299" 
d="M49 0v527h201v-527h-201zM-25 608v123h349v-123h-349z" />
    <glyph glyph-name="Ibreve" unicode="&#x12c;" horiz-adv-x="329" 
d="M62 0v707h205v-707h-205zM346 941q0 -37 -11.5 -70.5t-34.5 -59t-57 -41t-78 -15.5t-74.5 12t-51 30t-31.5 40t-16.5 43t-6.5 37.5t-1 23.5h127q0 -3 1 -13t6.5 -21t16 -19.5t30.5 -8.5q26 0 40 18.5t14 43.5h127z" />
    <glyph glyph-name="ibreve" unicode="&#x12d;" horiz-adv-x="299" 
d="M49 0v527h201v-527h-201zM331 775q0 -37 -11.5 -70.5t-34.5 -59t-57 -41t-78 -15.5t-74.5 12t-51 30t-31.5 40t-16.5 43t-6.5 37.5t-1 23.5h127q0 -3 1 -13t6.5 -21t16 -19.5t30.5 -8.5q26 0 40 18.5t14 43.5h127z" />
    <glyph glyph-name="Iogonek" unicode="&#x12e;" horiz-adv-x="329" 
d="M267 0q-42 -9 -64.5 -29.5t-22.5 -37.5q0 -11 10.5 -18.5t33.5 -7.5q11 0 23.5 2t28.5 6l4 -109q-58 -23 -121 -23q-29 0 -55 5.5t-46 16.5t-32 28.5t-12 40.5q0 38 27.5 70.5t69.5 55.5h-49v707h205v-707v0z" />
    <glyph glyph-name="iogonek" unicode="&#x12f;" horiz-adv-x="299" 
d="M250 0q-42 -9 -64.5 -29.5t-22.5 -37.5q0 -11 10.5 -18.5t33.5 -7.5q11 0 23.5 2t28.5 6l4 -109q-58 -23 -121 -23q-29 0 -55 5.5t-46 16.5t-32 28.5t-12 40.5q0 38 27.5 70.5t69.5 55.5h-45v527h201v-527zM257 661q0 -48 -27.5 -69t-81.5 -21q-57 0 -83.5 22t-26.5 66
t27 67.5t85 23.5q61 0 84 -24.5t23 -64.5z" />
    <glyph glyph-name="Idotaccent" unicode="&#x130;" horiz-adv-x="329" 
d="M269 852q0 -42 -24 -69.5t-80 -27.5t-80.5 26.5t-24.5 70.5q0 42 24.5 69t80.5 27t80 -27t24 -69zM267 0h-205v707h205v-707z" />
    <glyph glyph-name="dotlessi" unicode="&#x131;" horiz-adv-x="299" 
d="M49 0v527h201v-527h-201z" />
    <glyph glyph-name="IJ" unicode="&#x132;" horiz-adv-x="805" 
d="M62 0v707h205v-707h-205zM546 707h205v-459q0 -55 -12.5 -102.5t-42.5 -82.5t-79 -55t-121 -20q-34 0 -58 3.5t-40 8.5q-18 5 -31 12l14 158q9 -4 20 -8q10 -3 23 -5t30 -2q42 0 67 21t25 73v458z" />
    <glyph glyph-name="ij" unicode="&#x133;" horiz-adv-x="608" 
d="M49 0v527h201v-527h-201zM255 -58q6 -2 12 -3q5 -1 12.5 -1.5t15.5 -0.5q32 0 48 15t16 48v527h200v-524q0 -107 -58.5 -163t-164.5 -56q-17 0 -33.5 1t-28.5 3q-15 2 -27 4zM257 661q0 -48 -27.5 -69t-81.5 -21q-57 0 -83.5 22t-26.5 66t27 67.5t85 23.5q61 0 84 -24.5
t23 -64.5zM566 661q0 -48 -27.5 -69t-81.5 -21q-57 0 -83.5 22t-26.5 66t27 67.5t85 23.5q61 0 84 -24.5t23 -64.5z" />
    <glyph glyph-name="Jcircumflex" unicode="&#x134;" horiz-adv-x="462" 
d="M377 934l128 -179h-149l-54 78l-54 -78h-149l128 179h150zM203 707h205v-459q0 -55 -12.5 -102.5t-42.5 -82.5t-79 -55t-121 -20q-34 0 -58 3.5t-40 8.5q-18 5 -31 12l14 158q9 -4 20 -8q10 -3 23 -5t30 -2q42 0 67 21t25 73v458z" />
    <glyph glyph-name="jcircumflex" unicode="&#x135;" horiz-adv-x="294" 
d="M-53 -59q15 -4 33 -4q29 0 50 16t21 49v525h200v-524q0 -53 -18.5 -94t-49.5 -69t-71.5 -42t-85.5 -14q-19 0 -34.5 1t-27.5 3q-14 2 -25 4zM219 771l128 -179h-149l-54 78l-54 -78h-149l128 179h150z" />
    <glyph glyph-name="Kcommaaccent" unicode="&#x136;" horiz-adv-x="708" 
d="M260 -327q7 3 18.5 13.5t23.5 24t21.5 28.5t11.5 27q-39 2 -53.5 27.5t-14.5 57.5q0 38 22 63t75 25q39 0 67.5 -25.5t28.5 -83.5q0 -44 -16.5 -80.5t-37.5 -63t-41 -42t-28 -18.5zM459 0l-163 256h-32v-256h-205v707h205v-288q11 2 17 4t9 4q4 2 5 3q10 14 23 33.5
t26.5 41.5t27.5 45.5t27 46.5q30 53 62 110h220q-3 -12 -15 -36t-29.5 -55t-39.5 -66.5t-44.5 -71t-44 -68.5t-38.5 -58l221 -352h-232z" />
    <glyph glyph-name="kcommaaccent" unicode="&#x137;" horiz-adv-x="608" 
d="M209 -327q7 3 18.5 13.5t23.5 24t21.5 28.5t11.5 27q-39 2 -53.5 27.5t-14.5 57.5q0 38 22 63t75 25q39 0 67.5 -25.5t28.5 -83.5q0 -44 -16.5 -80.5t-37.5 -63t-41 -42t-28 -18.5zM375 0q-2 3 -7.5 13t-13.5 24.5t-18 31.5t-20 35q-24 41 -53 92h-18v-196h-201v731h201
v-401q11 4 15.5 5t15.5 6q9 11 25.5 42t33.5 63q19 38 42 81h213q-3 -14 -19 -46t-38 -71t-46 -78.5t-42 -67.5l159 -264h-229z" />
    <glyph glyph-name="kgreenlandic" unicode="&#x138;" horiz-adv-x="605" 
d="M374 0q-2 3 -7.5 13t-13 24.5t-17 31.5t-18.5 35q-22 41 -50 92h-18v-196h-201v527h201v-197q11 4 15.5 5t15.5 6q9 11 24 42t29 63q17 38 35 81h213q-3 -14 -17.5 -46t-35 -70.5t-43 -78t-40.5 -67.5l155 -265h-227z" />
    <glyph glyph-name="Lacute" unicode="&#x139;" horiz-adv-x="562" 
d="M70 755l89 179h204l-132 -179h-161zM59 0v707h205v-535h259v-172h-464z" />
    <glyph glyph-name="lacute" unicode="&#x13a;" horiz-adv-x="356" 
d="M59 785l89 179h204l-132 -179h-161zM332 13q-11 -6 -37.5 -15.5t-73.5 -9.5q-51 0 -84.5 14t-53 39t-27 59t-7.5 74v557h202v-534q0 -34 12.5 -44.5t33.5 -10.5q13 0 21 2q4 1 6 3z" />
    <glyph glyph-name="Lcommaaccent" unicode="&#x13b;" horiz-adv-x="553" 
d="M189 -327q7 3 18.5 13.5t23.5 24t21.5 28.5t11.5 27q-39 2 -53.5 27.5t-14.5 57.5q0 38 22 63t75 25q39 0 67.5 -25.5t28.5 -83.5q0 -44 -16.5 -80.5t-37.5 -63t-41 -42t-28 -18.5zM50 0v707h205v-535h259v-172h-464z" />
    <glyph glyph-name="lcommaaccent" unicode="&#x13c;" horiz-adv-x="356" 
d="M96 -327q7 3 18.5 13.5t23.5 24t21.5 28.5t11.5 27q-39 2 -53.5 27.5t-14.5 57.5q0 38 22 63t75 25q39 0 67.5 -25.5t28.5 -83.5q0 -44 -16.5 -80.5t-37.5 -63t-41 -42t-28 -18.5zM332 13q-11 -6 -37.5 -15.5t-73.5 -9.5q-51 0 -84.5 14t-53 39t-27 59t-7.5 74v557h202
v-534q0 -34 12.5 -44.5t33.5 -10.5q13 0 21 2q4 1 6 3z" />
    <glyph glyph-name="Lcaron" unicode="&#x13d;" horiz-adv-x="570" 
d="M349 477q7 3 18.5 13.5t23.5 24t21.5 28.5t11.5 27q-39 2 -53.5 27.5t-14.5 57.5q0 38 22 63t75 25q39 0 67.5 -25.5t28.5 -83.5q0 -44 -16.5 -80.5t-37.5 -63t-41 -42t-28 -18.5zM59 0v707h205v-535h259v-172h-464z" />
    <glyph glyph-name="lcaron" unicode="&#x13e;" horiz-adv-x="511" 
d="M302 477q7 3 18.5 13.5t23.5 24t21.5 28.5t11.5 27q-39 2 -53.5 27.5t-14.5 57.5q0 38 22 63t75 25q39 0 67.5 -25.5t28.5 -83.5q0 -44 -16.5 -80.5t-37.5 -63t-41 -42t-28 -18.5zM332 13q-11 -6 -37.5 -15.5t-73.5 -9.5q-51 0 -84.5 14t-53 39t-27 59t-7.5 74v557h202
v-534q0 -34 12.5 -44.5t33.5 -10.5q13 0 21 2q4 1 6 3z" />
    <glyph glyph-name="Ldot" unicode="&#x13f;" horiz-adv-x="580" 
d="M536 372q0 -45 -25 -74.5t-84 -29.5t-84 28.5t-25 75.5q0 45 25 74t84 29t84 -29t25 -74zM59 0v707h205v-535h259v-172h-464z" />
    <glyph glyph-name="ldot" unicode="&#x140;" horiz-adv-x="596" 
d="M552 372q0 -45 -25 -74.5t-84 -29.5t-84 28.5t-25 75.5q0 45 25 74t84 29t84 -29t25 -74zM332 13q-11 -6 -37.5 -15.5t-73.5 -9.5q-51 0 -84.5 14t-53 39t-27 59t-7.5 74v557h202v-534q0 -34 12.5 -44.5t33.5 -10.5q13 0 21 2q4 1 6 3z" />
    <glyph glyph-name="Lslash" unicode="&#x141;" horiz-adv-x="562" 
d="M59 0v263l-54 -15l-41 153l95 27v279h205v-220l86 25l41 -153l-127 -37v-150h259v-172h-464z" />
    <glyph glyph-name="lslash" unicode="&#x142;" horiz-adv-x="356" 
d="M332 13q-11 -6 -37.5 -15.5t-73.5 -9.5q-51 0 -84.5 14t-53 39t-27 59t-7.5 74v90l-54 -16l-41 153l95 28v302h202v-243l79 24l41 -153l-120 -36v-126q0 -34 12.5 -44.5t33.5 -10.5q13 0 21 2q4 1 6 3z" />
    <glyph glyph-name="Nacute" unicode="&#x143;" horiz-adv-x="748" 
d="M288 755l89 179h204l-132 -179h-161zM490 0l-238 364l6 -81v-283h-199v707h195l242 -384l-5 88v296h198v-707h-199z" />
    <glyph glyph-name="nacute" unicode="&#x144;" 
d="M205 592l89 179h204l-132 -179h-161zM210 527l24 -57q18 19 43 34q21 13 51.5 24t69.5 11q82 0 126.5 -53.5t44.5 -146.5v-339h-201v319q0 34 -15.5 47.5t-40.5 13.5q-13 0 -24 -3t-19 -6q-10 -4 -19 -9v-362h-201v527h161z" />
    <glyph glyph-name="Ncommaaccent" unicode="&#x145;" horiz-adv-x="748" 
d="M274 -327q7 3 18.5 13.5t23.5 24t21.5 28.5t11.5 27q-39 2 -53.5 27.5t-14.5 57.5q0 38 22 63t75 25q39 0 67.5 -25.5t28.5 -83.5q0 -44 -16.5 -80.5t-37.5 -63t-41 -42t-28 -18.5zM490 0l-238 364l6 -81v-283h-199v707h195l242 -384l-5 88v296h198v-707h-199z" />
    <glyph glyph-name="ncommaaccent" unicode="&#x146;" 
d="M205 -327q7 3 18.5 13.5t23.5 24t21.5 28.5t11.5 27q-39 2 -53.5 27.5t-14.5 57.5q0 38 22 63t75 25q39 0 67.5 -25.5t28.5 -83.5q0 -44 -16.5 -80.5t-37.5 -63t-41 -42t-28 -18.5zM210 527l24 -57q18 19 43 34q21 13 51.5 24t69.5 11q82 0 126.5 -53.5t44.5 -146.5v-339
h-201v319q0 34 -15.5 47.5t-40.5 13.5q-13 0 -24 -3t-19 -6q-10 -4 -19 -9v-362h-201v527h161z" />
    <glyph glyph-name="Ncaron" unicode="&#x147;" horiz-adv-x="748" 
d="M290 755l-128 179h149l54 -78l54 78h149l-128 -179h-150zM490 0l-238 364l6 -81v-283h-199v707h195l242 -384l-5 88v296h198v-707h-199z" />
    <glyph glyph-name="ncaron" unicode="&#x148;" 
d="M229 592l-128 179h149l54 -78l54 78h149l-128 -179h-150zM210 527l24 -57q18 19 43 34q21 13 51.5 24t69.5 11q82 0 126.5 -53.5t44.5 -146.5v-339h-201v319q0 34 -15.5 47.5t-40.5 13.5q-13 0 -24 -3t-19 -6q-10 -4 -19 -9v-362h-201v527h161z" />
    <glyph glyph-name="napostrophe" unicode="&#x149;" horiz-adv-x="822" 
d="M29 477q7 3 18.5 13.5t23.5 24t21.5 28.5t11.5 27q-39 2 -53.5 27.5t-14.5 57.5q0 38 22 63t75 25q39 0 67.5 -25.5t28.5 -83.5q0 -44 -16.5 -80.5t-37.5 -63t-41 -42t-28 -18.5zM419 527l24 -57q18 19 43 34q21 13 51.5 24t69.5 11q82 0 126.5 -53.5t44.5 -146.5v-339
h-201v319q0 34 -15.5 47.5t-40.5 13.5q-13 0 -24 -3t-19 -6q-10 -4 -19 -9v-362h-201v527h161z" />
    <glyph glyph-name="Eng" unicode="&#x14a;" horiz-adv-x="748" 
d="M329 -44q9 -4 20 -8q10 -3 23 -5t30 -2q34 0 57 13.5t31 45.5l-238 364l6 -81v-283h-199v707h195l242 -384l-5 88v296h198v-707q0 -26 -11 -63t-39 -71t-75.5 -58t-119.5 -24q-34 0 -58 3.5t-40 8.5q-18 5 -31 12z" />
    <glyph glyph-name="eng" unicode="&#x14b;" 
d="M210 527l24 -57q18 19 44 34q21 13 52 24t70 11q82 0 125.5 -53.5t43.5 -146.5v-279q0 -54 -8 -104t-32 -88t-69 -61t-118 -23q-32 0 -55.5 3.5t-39.5 8.5q-18 5 -31 12l14 143q6 -4 16 -8q19 -7 50 -7q42 0 57 23.5t15 75.5v284q0 34 -16 47.5t-39 13.5q-13 0 -24 -3
t-20 -6q-11 -4 -19 -9v-362h-201v527h161z" />
    <glyph glyph-name="Omacron" unicode="&#x14c;" horiz-adv-x="763" 
d="M207 765v123h349v-123h-349zM376 -12q-86 0 -149.5 26.5t-106 74t-63.5 114t-21 146.5q0 82 22 150.5t66 117t109 75.5t151 27q85 0 149.5 -26.5t107.5 -74t64.5 -114t21.5 -146.5q0 -81 -22 -148.5t-66 -117t-109.5 -77t-153.5 -27.5zM383 155q66 0 102.5 49t36.5 152
q0 100 -36 148t-102 48q-69 0 -106 -49.5t-37 -148.5q0 -102 38 -150.5t104 -48.5z" />
    <glyph glyph-name="omacron" unicode="&#x14d;" horiz-adv-x="610" 
d="M131 608v123h349v-123h-349zM305 -12q-66 0 -117.5 19.5t-87 55.5t-53.5 87t-18 114t18 114t53.5 86.5t87 55t117.5 19.5t117.5 -19.5t87 -55t53.5 -86.5t18 -114t-18 -114t-53.5 -87t-87 -55.5t-117.5 -19.5zM305 141q42 0 58.5 33.5t16.5 89.5t-16 89t-59 33
q-42 0 -58.5 -33t-16.5 -89t16.5 -89.5t58.5 -33.5z" />
    <glyph glyph-name="Obreve" unicode="&#x14e;" horiz-adv-x="763" 
d="M562 941q0 -37 -11.5 -70.5t-34.5 -59t-57 -41t-78 -15.5t-74.5 12t-51 30t-31.5 40t-16.5 43t-6.5 37.5t-1 23.5h127q0 -3 1 -13t6.5 -21t16 -19.5t30.5 -8.5q26 0 40 18.5t14 43.5h127zM376 -12q-86 0 -149.5 26.5t-106 74t-63.5 114t-21 146.5q0 82 22 150.5t66 117
t109 75.5t151 27q85 0 149.5 -26.5t107.5 -74t64.5 -114t21.5 -146.5q0 -81 -22 -148.5t-66 -117t-109.5 -77t-153.5 -27.5zM383 155q66 0 102.5 49t36.5 152q0 100 -36 148t-102 48q-69 0 -106 -49.5t-37 -148.5q0 -102 38 -150.5t104 -48.5z" />
    <glyph glyph-name="obreve" unicode="&#x14f;" horiz-adv-x="610" 
d="M486 775q0 -37 -11.5 -70.5t-34.5 -59t-57 -41t-78 -15.5t-74.5 12t-51 30t-31.5 40t-16.5 43t-6.5 37.5t-1 23.5h127q0 -3 1 -13t6.5 -21t16 -19.5t30.5 -8.5q26 0 40 18.5t14 43.5h127zM305 -12q-66 0 -117.5 19.5t-87 55.5t-53.5 87t-18 114t18 114t53.5 86.5t87 55
t117.5 19.5t117.5 -19.5t87 -55t53.5 -86.5t18 -114t-18 -114t-53.5 -87t-87 -55.5t-117.5 -19.5zM305 141q42 0 58.5 33.5t16.5 89.5t-16 89t-59 33q-42 0 -58.5 -33t-16.5 -89t16.5 -89.5t58.5 -33.5z" />
    <glyph glyph-name="Ohungarumlaut" unicode="&#x150;" horiz-adv-x="763" 
d="M189 755l66 179h154l-67 -179h-153zM398 755l65 179h165l-97 -179h-133zM376 -12q-86 0 -149.5 26.5t-106 74t-63.5 114t-21 146.5q0 82 22 150.5t66 117t109 75.5t151 27q85 0 149.5 -26.5t107.5 -74t64.5 -114t21.5 -146.5q0 -81 -22 -148.5t-66 -117t-109.5 -77
t-153.5 -27.5zM383 155q66 0 102.5 49t36.5 152q0 100 -36 148t-102 48q-69 0 -106 -49.5t-37 -148.5q0 -102 38 -150.5t104 -48.5z" />
    <glyph glyph-name="ohungarumlaut" unicode="&#x151;" horiz-adv-x="610" 
d="M117 592l66 179h154l-67 -179h-153zM326 592l65 179h165l-97 -179h-133zM305 -12q-66 0 -117.5 19.5t-87 55.5t-53.5 87t-18 114t18 114t53.5 86.5t87 55t117.5 19.5t117.5 -19.5t87 -55t53.5 -86.5t18 -114t-18 -114t-53.5 -87t-87 -55.5t-117.5 -19.5zM305 141
q42 0 58.5 33.5t16.5 89.5t-16 89t-59 33q-42 0 -58.5 -33t-16.5 -89t16.5 -89.5t58.5 -33.5z" />
    <glyph glyph-name="OE" unicode="&#x152;" horiz-adv-x="1077" 
d="M537 0v33q-32 -21 -74 -33t-95 -12q-86 0 -148.5 26.5t-103 74t-60.5 114t-20 146.5q0 82 21 150.5t63 117t106 75.5t150 27q50 0 89.5 -11t71.5 -31v30h488v-167h-313v-102h267v-168h-267v-102h313v-168h-488zM375 155q66 0 98.5 49t32.5 152q0 100 -32 148t-98 48
q-135 0 -135 -198q0 -102 34 -150.5t100 -48.5z" />
    <glyph glyph-name="oe" unicode="&#x153;" horiz-adv-x="916" 
d="M853 16q-21 -8 -49 -14q-24 -5 -59 -9.5t-80 -4.5q-61 0 -107.5 13t-81.5 37q-32 -24 -74.5 -37t-96.5 -13q-66 0 -117.5 20t-87 56t-53.5 87t-18 113t18 113t53.5 87t87 55.5t117.5 19.5q106 0 172 -51q68 51 172 51q66 0 110.5 -20t71.5 -52t38 -74t11 -85
q0 -21 -2 -38.5t-4 -31.5q-3 -16 -6 -29h-280q5 -35 27.5 -53.5t78.5 -18.5q31 0 56 3t43 7q21 4 37 11zM305 141q42 0 58.5 33.5t16.5 89.5t-16 89t-59 33q-42 0 -58.5 -33t-16.5 -89t16.5 -89.5t58.5 -33.5zM692 326q0 33 -10.5 53t-40.5 20q-32 0 -42.5 -22t-11.5 -61
h105v10z" />
    <glyph glyph-name="Racute" unicode="&#x154;" horiz-adv-x="698" 
d="M231 755l89 179h204l-132 -179h-161zM362 707q86 0 141.5 -17.5t87.5 -49.5t44 -76.5t12 -98.5q0 -69 -27 -124.5t-92 -87.5l134 -253h-221l-113 222h-64v-222h-205v707h303zM264 382h74q63 0 83.5 21t20.5 61t-20.5 59t-83.5 19h-74v-160z" />
    <glyph glyph-name="racute" unicode="&#x155;" horiz-adv-x="420" 
d="M62 592l89 179h204l-132 -179h-161zM210 527l24 -59q26 31 68.5 51t99.5 20l-7 -174q-4 0 -8 1q-5 0 -11 0.5t-16 0.5q-26 0 -46.5 -4t-34.5 -9q-17 -5 -29 -12v-342h-201v527h161z" />
    <glyph glyph-name="Rcommaaccent" unicode="&#x156;" horiz-adv-x="698" 
d="M362 707q86 0 141.5 -17.5t87.5 -49.5t44 -76.5t12 -98.5q0 -69 -27 -124.5t-92 -87.5l134 -253h-221l-113 222h-64v-222h-205v707h303zM252 -327q7 3 18.5 13.5t23.5 24t21.5 28.5t11.5 27q-39 2 -53.5 27.5t-14.5 57.5q0 38 22 63t75 25q39 0 67.5 -25.5t28.5 -83.5
q0 -44 -16.5 -80.5t-37.5 -63t-41 -42t-28 -18.5zM264 382h74q63 0 83.5 21t20.5 61t-20.5 59t-83.5 19h-74v-160z" />
    <glyph glyph-name="rcommaaccent" unicode="&#x157;" horiz-adv-x="420" 
d="M48 -327q7 3 18.5 13.5t23.5 24t21.5 28.5t11.5 27q-39 2 -53.5 27.5t-14.5 57.5q0 38 22 63t75 25q39 0 67.5 -25.5t28.5 -83.5q0 -44 -16.5 -80.5t-37.5 -63t-41 -42t-28 -18.5zM210 527l24 -59q26 31 68.5 51t99.5 20l-7 -174q-4 0 -8 1q-5 0 -11 0.5t-16 0.5
q-26 0 -46.5 -4t-34.5 -9q-17 -5 -29 -12v-342h-201v527h161z" />
    <glyph glyph-name="Rcaron" unicode="&#x158;" horiz-adv-x="698" 
d="M362 707q86 0 141.5 -17.5t87.5 -49.5t44 -76.5t12 -98.5q0 -69 -27 -124.5t-92 -87.5l134 -253h-221l-113 222h-64v-222h-205v707h303zM258 755l-128 179h149l54 -78l54 78h149l-128 -179h-150zM264 382h74q63 0 83.5 21t20.5 61t-20.5 59t-83.5 19h-74v-160z" />
    <glyph glyph-name="rcaron" unicode="&#x159;" horiz-adv-x="420" 
d="M151 592l-128 179h149l54 -78l54 78h149l-128 -179h-150zM210 527l24 -59q26 31 68.5 51t99.5 20l-7 -174q-4 0 -8 1q-5 0 -11 0.5t-16 0.5q-26 0 -46.5 -4t-34.5 -9q-17 -5 -29 -12v-342h-201v527h161z" />
    <glyph glyph-name="Sacute" unicode="&#x15a;" horiz-adv-x="606" 
d="M218 754l89 179h204l-132 -179h-161zM78 194q22 -12 52 -22q25 -8 60.5 -15t79.5 -7t71 10.5t27 33.5q0 24 -20 35t-65 25q-41 13 -85 30t-80.5 44.5t-60 68.5t-23.5 103q0 106 73.5 162.5t210.5 56.5q52 0 93 -7t70 -15q33 -10 59 -21l-40 -155q-19 10 -45 18
q-23 7 -54.5 12.5t-73.5 5.5q-51 0 -70.5 -11.5t-19.5 -34.5q0 -11 5 -18.5t18.5 -15t37 -16.5t61.5 -22q41 -14 79.5 -30.5t68 -41.5t47.5 -62t18 -92q0 -109 -81 -167t-223 -58q-58 0 -100.5 7.5t-71.5 16.5q-33 11 -57 25z" />
    <glyph glyph-name="sacute" unicode="&#x15b;" horiz-adv-x="506" 
d="M161 592l89 179h204l-132 -179h-161zM63 165q20 -11 45 -19q21 -8 49.5 -13.5t63.5 -5.5q29 0 47 5.5t18 18.5q0 16 -19.5 21.5t-54.5 14.5q-28 7 -60 18t-59 31t-45 51t-18 79q0 37 13.5 69t42 55t74 36t109.5 13q44 0 78 -5.5t57 -11.5q27 -8 47 -17l-32 -139
q-19 8 -42 15q-20 5 -45 10t-54 5q-62 0 -62 -25q0 -16 26 -22.5t71 -19.5q80 -23 120.5 -59t40.5 -107q0 -90 -65.5 -132.5t-180.5 -42.5q-49 0 -85.5 5.5t-62.5 13.5q-30 9 -51 20z" />
    <glyph glyph-name="Scircumflex" unicode="&#x15c;" horiz-adv-x="606" 
d="M385 934l128 -179h-149l-54 78l-54 -78h-149l128 179h150zM78 194q22 -12 52 -22q25 -8 60.5 -15t79.5 -7t71 10.5t27 33.5q0 24 -20 35t-65 25q-41 13 -85 30t-80.5 44.5t-60 68.5t-23.5 103q0 106 73.5 162.5t210.5 56.5q52 0 93 -7t70 -15q33 -10 59 -21l-40 -155
q-19 10 -45 18q-23 7 -54.5 12.5t-73.5 5.5q-51 0 -70.5 -11.5t-19.5 -34.5q0 -11 5 -18.5t18.5 -15t37 -16.5t61.5 -22q41 -14 79.5 -30.5t68 -41.5t47.5 -62t18 -92q0 -109 -81 -167t-223 -58q-58 0 -100.5 7.5t-71.5 16.5q-33 11 -57 25z" />
    <glyph glyph-name="scircumflex" unicode="&#x15d;" horiz-adv-x="506" 
d="M330 771l128 -179h-149l-54 78l-54 -78h-149l128 179h150zM63 165q20 -11 45 -19q21 -8 49.5 -13.5t63.5 -5.5q29 0 47 5.5t18 18.5q0 16 -19.5 21.5t-54.5 14.5q-28 7 -60 18t-59 31t-45 51t-18 79q0 37 13.5 69t42 55t74 36t109.5 13q44 0 78 -5.5t57 -11.5
q27 -8 47 -17l-32 -139q-19 8 -42 15q-20 5 -45 10t-54 5q-62 0 -62 -25q0 -16 26 -22.5t71 -19.5q80 -23 120.5 -59t40.5 -107q0 -90 -65.5 -132.5t-180.5 -42.5q-49 0 -85.5 5.5t-62.5 13.5q-30 9 -51 20z" />
    <glyph glyph-name="Scedilla" unicode="&#x15e;" horiz-adv-x="606" 
d="M78 194q22 -12 52 -22q25 -8 60.5 -15t79.5 -7t71 10.5t27 33.5q0 24 -20 35t-65 25q-41 13 -85 30t-80.5 44.5t-60 68.5t-23.5 103q0 106 73.5 162.5t210.5 56.5q52 0 93 -7t70 -15q33 -10 59 -21l-40 -155q-19 10 -45 18q-23 7 -54.5 12.5t-73.5 5.5q-51 0 -70.5 -11.5
t-19.5 -34.5q0 -11 5 -18.5t18.5 -15t37 -16.5t61.5 -22q41 -14 79.5 -30.5t68 -41.5t47.5 -62t18 -92q0 -95 -61.5 -151t-172.5 -70l-7 -31l12 1q48 0 81.5 -21t33.5 -72q0 -22 -8 -41.5t-26 -33.5t-47.5 -22.5t-72.5 -8.5q-23 0 -40 2t-29 4q-14 3 -24 7l15 80q6 -3 16 -5
q17 -5 44 -5q20 0 39.5 5.5t19.5 20.5q0 14 -16.5 18.5t-39.5 4.5q-12 0 -24 -1t-21 -2q-11 -1 -21 -2l23 99q-53 2 -91.5 9t-64.5 16q-30 10 -51 23z" />
    <glyph glyph-name="scedilla" unicode="&#x15f;" horiz-adv-x="506" 
d="M63 165q20 -11 45 -19q21 -8 49.5 -13.5t63.5 -5.5q29 0 47 5.5t18 18.5q0 16 -19.5 21.5t-54.5 14.5q-28 7 -60 18t-59 31t-45 51t-18 79q0 37 13.5 69t42 55t74 36t109.5 13q44 0 78 -5.5t57 -11.5q27 -8 47 -17l-32 -139q-19 8 -42 15q-20 5 -45 10t-54 5
q-62 0 -62 -25q0 -16 26 -22.5t71 -19.5q80 -23 120.5 -59t40.5 -107q0 -79 -50.5 -121.5t-141.5 -50.5l-6 -30l12 1q48 0 81.5 -21t33.5 -72q0 -22 -8 -41.5t-26 -33.5t-47.5 -22.5t-72.5 -8.5q-23 0 -40 2t-29 4q-14 3 -24 7l15 80q6 -3 16 -5q17 -5 44 -5q20 0 39.5 5.5
t19.5 20.5q0 14 -16.5 18.5t-39.5 4.5q-12 0 -24 -1t-21 -2q-11 -1 -21 -2l24 99q-40 2 -70.5 8t-50.5 13q-25 8 -42 17z" />
    <glyph glyph-name="Scaron" unicode="&#x160;" horiz-adv-x="606" 
d="M234 755l-128 179h149l54 -78l54 78h149l-128 -179h-150zM78 194q22 -12 52 -22q25 -8 60.5 -15t79.5 -7t71 10.5t27 33.5q0 24 -20 35t-65 25q-41 13 -85 30t-80.5 44.5t-60 68.5t-23.5 103q0 106 73.5 162.5t210.5 56.5q52 0 93 -7t70 -15q33 -10 59 -21l-40 -155
q-19 10 -45 18q-23 7 -54.5 12.5t-73.5 5.5q-51 0 -70.5 -11.5t-19.5 -34.5q0 -11 5 -18.5t18.5 -15t37 -16.5t61.5 -22q41 -14 79.5 -30.5t68 -41.5t47.5 -62t18 -92q0 -109 -81 -167t-223 -58q-58 0 -100.5 7.5t-71.5 16.5q-33 11 -57 25z" />
    <glyph glyph-name="scaron" unicode="&#x161;" horiz-adv-x="506" 
d="M180 592l-128 179h149l54 -78l54 78h149l-128 -179h-150zM63 165q20 -11 45 -19q21 -8 49.5 -13.5t63.5 -5.5q29 0 47 5.5t18 18.5q0 16 -19.5 21.5t-54.5 14.5q-28 7 -60 18t-59 31t-45 51t-18 79q0 37 13.5 69t42 55t74 36t109.5 13q44 0 78 -5.5t57 -11.5
q27 -8 47 -17l-32 -139q-19 8 -42 15q-20 5 -45 10t-54 5q-62 0 -62 -25q0 -16 26 -22.5t71 -19.5q80 -23 120.5 -59t40.5 -107q0 -90 -65.5 -132.5t-180.5 -42.5q-49 0 -85.5 5.5t-62.5 13.5q-30 9 -51 20z" />
    <glyph glyph-name="Tcommaaccent" unicode="&#x162;" horiz-adv-x="637" 
d="M364 0l-9 -39l12 1q48 0 81.5 -21t33.5 -72q0 -22 -8 -41.5t-26 -33.5t-47.5 -22.5t-72.5 -8.5q-23 0 -40 2t-29 4q-14 3 -24 7l15 80q6 -3 16 -5q17 -5 44 -5q20 0 39.5 5.5t19.5 20.5q0 14 -16.5 18.5t-39.5 4.5q-12 0 -24 -1t-21 -2q-11 -1 -21 -2l27 110h-58v529
h-197v178h599v-178h-197v-529h-57z" />
    <glyph glyph-name="tcommaaccent" unicode="&#x163;" horiz-adv-x="422" 
d="M393 12q-13 -6 -31 -10q-15 -4 -36 -7.5t-47 -5.5l-6 -28l12 1q48 0 81.5 -21t33.5 -72q0 -22 -8 -41.5t-26 -33.5t-47.5 -22.5t-72.5 -8.5q-23 0 -40 2t-29 4q-14 3 -24 7l15 80q6 -3 16 -5q17 -5 44 -5q20 0 39.5 5.5t19.5 20.5q0 14 -16.5 18.5t-39.5 4.5
q-12 0 -24 -1t-21 -2q-11 -1 -21 -2l26 105q-57 13 -88.5 58.5t-31.5 141.5v175h-52v157h56l23 131h175v-131h114l-6 -157h-107v-174q0 -29 15 -39.5t41 -10.5q23 0 36 5q7 2 13 5z" />
    <glyph glyph-name="Tcaron" unicode="&#x164;" horiz-adv-x="637" 
d="M246 755l-128 179h149l54 -78l54 78h149l-128 -179h-150zM216 0v529h-197v178h599v-178h-197v-529h-205z" />
    <glyph glyph-name="tcaron" unicode="&#x165;" horiz-adv-x="629" 
d="M420 476q7 3 18.5 13.5t23.5 24t21.5 28.5t11.5 27q-39 2 -53.5 27.5t-14.5 57.5q0 38 22 63t75 25q39 0 67.5 -25.5t28.5 -83.5q0 -44 -16.5 -80.5t-37.5 -63t-41 -42t-28 -18.5zM393 12q-16 -7 -37 -12q-18 -5 -43 -8.5t-56 -3.5q-43 0 -77.5 9.5t-58.5 33.5t-37 64
t-13 100v175h-52v157h56l23 131h175v-131h114l-6 -157h-107v-174q0 -29 15 -39.5t41 -10.5q23 0 36 5q7 2 13 5z" />
    <glyph glyph-name="Tbar" unicode="&#x166;" horiz-adv-x="637" 
d="M216 0v279h-119v148h119v102h-197v178h599v-178h-197v-102h118v-148h-118v-279h-205z" />
    <glyph glyph-name="tbar" unicode="&#x167;" horiz-adv-x="422" 
d="M393 12q-16 -7 -37 -12q-18 -5 -43 -8.5t-56 -3.5q-43 0 -77.5 9.5t-58.5 33.5t-37 64t-13 100v24h-48v98h48v53h-52v157h56l23 131h175v-131h114l-6 -157h-107v-53h105v-98h-105v-23q0 -29 15 -39.5t41 -10.5q23 0 36 5q7 2 13 5z" />
    <glyph glyph-name="Utilde" unicode="&#x168;" horiz-adv-x="719" 
d="M168 758q-1 5 -2 11q-1 5 -1.5 12t-0.5 17q0 27 7.5 52.5t22.5 45t38 31t54 11.5q22 0 41.5 -7.5t35 -16.5t28 -16.5t20.5 -7.5q20 0 20 23q0 6 -2 14q-1 4 -1 8h133l2 -14q1 -6 1.5 -13t0.5 -13q0 -27 -7.5 -52.5t-22.5 -45t-38 -31t-54 -11.5q-23 0 -41.5 7.5t-34 16.5
t-28 16.5t-22.5 7.5q-19 0 -19 -24q0 -11 1 -15t2 -6h-133zM460 707h205v-411q0 -75 -17 -132.5t-53.5 -96.5t-95 -59t-140.5 -20q-83 0 -140.5 20t-94.5 59t-53.5 96.5t-16.5 132.5v411h205v-417q0 -29 4 -53.5t15.5 -42.5t31 -28.5t49.5 -10.5t50 10.5t31 28.5t15.5 42.5
t4.5 53.5v417z" />
    <glyph glyph-name="utilde" unicode="&#x169;" 
d="M112 590q-1 5 -2 11q-1 5 -1.5 12t-0.5 17q0 27 7.5 52.5t22.5 45t38 31t54 11.5q22 0 41.5 -7.5t35 -16.5t28 -16.5t20.5 -7.5q20 0 20 23q0 6 -2 14q-1 4 -1 8h133l2 -14q1 -6 1.5 -13t0.5 -13q0 -27 -7.5 -52.5t-22.5 -45t-38 -31t-54 -11.5q-23 0 -41.5 7.5t-34 16.5
t-28 16.5t-22.5 7.5q-19 0 -19 -24q0 -11 1 -15t2 -6h-133zM245 527v-319q0 -34 15.5 -47.5t40.5 -13.5q12 0 23.5 2.5t19.5 6.5q10 4 19 9v362h201v-527h-161l-24 57q-18 -20 -43 -35q-21 -13 -51.5 -23.5t-69.5 -10.5q-82 0 -126.5 53.5t-44.5 146.5v339h201z" />
    <glyph glyph-name="Umacron" unicode="&#x16a;" horiz-adv-x="719" 
d="M188 765v123h349v-123h-349zM460 707h205v-411q0 -75 -17 -132.5t-53.5 -96.5t-95 -59t-140.5 -20q-83 0 -140.5 20t-94.5 59t-53.5 96.5t-16.5 132.5v411h205v-417q0 -29 4 -53.5t15.5 -42.5t31 -28.5t49.5 -10.5t50 10.5t31 28.5t15.5 42.5t4.5 53.5v417z" />
    <glyph glyph-name="umacron" unicode="&#x16b;" 
d="M128 608v123h349v-123h-349zM245 527v-319q0 -34 15.5 -47.5t40.5 -13.5q12 0 23.5 2.5t19.5 6.5q10 4 19 9v362h201v-527h-161l-24 57q-18 -20 -43 -35q-21 -13 -51.5 -23.5t-69.5 -10.5q-82 0 -126.5 53.5t-44.5 146.5v339h201z" />
    <glyph glyph-name="Ubreve" unicode="&#x16c;" horiz-adv-x="719" 
d="M536 941q0 -37 -11.5 -70.5t-34.5 -59t-57 -41t-78 -15.5t-74.5 12t-51 30t-31.5 40t-16.5 43t-6.5 37.5t-1 23.5h127q0 -3 1 -13t6.5 -21t16 -19.5t30.5 -8.5q26 0 40 18.5t14 43.5h127zM460 707h205v-411q0 -75 -17 -132.5t-53.5 -96.5t-95 -59t-140.5 -20
q-83 0 -140.5 20t-94.5 59t-53.5 96.5t-16.5 132.5v411h205v-417q0 -29 4 -53.5t15.5 -42.5t31 -28.5t49.5 -10.5t50 10.5t31 28.5t15.5 42.5t4.5 53.5v417z" />
    <glyph glyph-name="ubreve" unicode="&#x16d;" 
d="M483 775q0 -37 -11.5 -70.5t-34.5 -59t-57 -41t-78 -15.5t-74.5 12t-51 30t-31.5 40t-16.5 43t-6.5 37.5t-1 23.5h127q0 -3 1 -13t6.5 -21t16 -19.5t30.5 -8.5q26 0 40 18.5t14 43.5h127zM245 527v-319q0 -34 15.5 -47.5t40.5 -13.5q12 0 23.5 2.5t19.5 6.5q10 4 19 9
v362h201v-527h-161l-24 57q-18 -20 -43 -35q-21 -13 -51.5 -23.5t-69.5 -10.5q-82 0 -126.5 53.5t-44.5 146.5v339h201z" />
    <glyph glyph-name="Uring" unicode="&#x16e;" horiz-adv-x="719" 
d="M355 742q-71 0 -104.5 37t-33.5 93q0 66 39.5 102t106.5 36q69 0 104 -36t35 -98q0 -60 -34.5 -97t-112.5 -37zM360 835q37 0 37 43q0 17 -8 28t-27 11q-20 0 -30 -11.5t-10 -29.5q0 -19 9 -30t29 -11zM460 707h205v-411q0 -75 -17 -132.5t-53.5 -96.5t-95 -59
t-140.5 -20q-83 0 -140.5 20t-94.5 59t-53.5 96.5t-16.5 132.5v411h205v-417q0 -29 4 -53.5t15.5 -42.5t31 -28.5t49.5 -10.5t50 10.5t31 28.5t15.5 42.5t4.5 53.5v417z" />
    <glyph glyph-name="uring" unicode="&#x16f;" 
d="M299 587q-71 0 -104.5 37t-33.5 93q0 66 39.5 102t106.5 36q69 0 104 -36t35 -98q0 -60 -34.5 -97t-112.5 -37zM304 680q37 0 37 43q0 17 -8 28t-27 11q-20 0 -30 -11.5t-10 -29.5q0 -19 9 -30t29 -11zM245 527v-319q0 -34 15.5 -47.5t40.5 -13.5q12 0 23.5 2.5t19.5 6.5
q10 4 19 9v362h201v-527h-161l-24 57q-18 -20 -43 -35q-21 -13 -51.5 -23.5t-69.5 -10.5q-82 0 -126.5 53.5t-44.5 146.5v339h201z" />
    <glyph glyph-name="Uhungarumlaut" unicode="&#x170;" horiz-adv-x="719" 
d="M180 755l66 179h154l-67 -179h-153zM389 755l65 179h165l-97 -179h-133zM460 707h205v-411q0 -75 -17 -132.5t-53.5 -96.5t-95 -59t-140.5 -20q-83 0 -140.5 20t-94.5 59t-53.5 96.5t-16.5 132.5v411h205v-417q0 -29 4 -53.5t15.5 -42.5t31 -28.5t49.5 -10.5t50 10.5
t31 28.5t15.5 42.5t4.5 53.5v417z" />
    <glyph glyph-name="uhungarumlaut" unicode="&#x171;" 
d="M118 592l66 179h154l-67 -179h-153zM327 592l65 179h165l-97 -179h-133zM245 527v-319q0 -34 15.5 -47.5t40.5 -13.5q12 0 23.5 2.5t19.5 6.5q10 4 19 9v362h201v-527h-161l-24 57q-18 -20 -43 -35q-21 -13 -51.5 -23.5t-69.5 -10.5q-82 0 -126.5 53.5t-44.5 146.5v339
h201z" />
    <glyph glyph-name="Uogonek" unicode="&#x172;" horiz-adv-x="719" 
d="M460 707h205v-411q0 -125 -47.5 -200t-156.5 -98q-34 -11 -52 -30t-18 -35q0 -11 10.5 -18.5t33.5 -7.5q11 0 23.5 2t28.5 6l4 -109q-58 -23 -121 -23q-29 0 -55 5.5t-46 16.5t-32 28.5t-12 40.5q0 33 21.5 63.5t56.5 53.5q-134 13 -191.5 90.5t-57.5 214.5v411h205v-417
q0 -29 4 -53.5t15.5 -42.5t31 -28.5t49.5 -10.5t50 10.5t31 28.5t15.5 42.5t4.5 53.5v417z" />
    <glyph glyph-name="uogonek" unicode="&#x173;" 
d="M245 527v-319q0 -34 15.5 -47.5t40.5 -13.5q12 0 23.5 2.5t19.5 6.5q10 4 19 9v362h201v-527q-42 -9 -64.5 -29.5t-22.5 -37.5q0 -11 10.5 -18.5t33.5 -7.5q11 0 23.5 2t28.5 6l4 -109q-58 -23 -121 -23q-29 0 -55 5.5t-46 16.5t-32 28.5t-12 40.5q0 37 26 70.5t65 56.5
l-23 56q-18 -20 -43 -35q-21 -13 -51.5 -23.5t-69.5 -10.5q-82 0 -126.5 53.5t-44.5 146.5v339h201z" />
    <glyph glyph-name="Wcircumflex" unicode="&#x174;" horiz-adv-x="1000" 
d="M576 934l128 -179h-149l-54 78l-54 -78h-149l128 179h150zM224 707l63 -382l13 -91l19 90l92 383h179l91 -382l19 -91l13 91l63 382h215l-161 -707h-218l-94 350l-18 74l-18 -74l-94 -350h-218l-161 707h215z" />
    <glyph glyph-name="wcircumflex" unicode="&#x175;" horiz-adv-x="849" 
d="M494 770l128 -179h-149l-54 78l-54 -78h-149l128 179h150zM201 527l41 -227l21 -159l23 160l47 226h183l48 -228l23 -158l21 160l40 226h207l-134 -527h-232l-26 117l-39 196l-37 -196l-26 -117h-232l-135 527h207z" />
    <glyph glyph-name="Ycircumflex" unicode="&#x176;" horiz-adv-x="701" 
d="M422 934l128 -179h-149l-54 78l-54 -78h-149l128 179h150zM248 0v243l-239 464h216l104 -234l22 -62l22 63l100 233h219l-238 -462v-245h-206z" />
    <glyph glyph-name="ycircumflex" unicode="&#x177;" horiz-adv-x="571" 
d="M364 753l128 -179h-149l-54 78l-54 -78h-149l128 179h150zM35 -52q7 -3 17 -6q18 -5 44 -5q30 0 47.5 10t27.5 22q11 14 15 33l-182 525h209l52 -240l18 -128l83 368h201l-189 -550q-17 -50 -39.5 -86t-53.5 -60t-71 -35.5t-92 -11.5q-24 0 -44 2t-34 4q-17 3 -29 7z" />
    <glyph glyph-name="Ydieresis" unicode="&#x178;" horiz-adv-x="711" 
d="M334 847q0 -40 -21.5 -66t-72.5 -26q-50 0 -72 25t-22 67q0 40 22 65.5t72 25.5q51 0 72.5 -25.5t21.5 -65.5zM566 847q0 -40 -22 -66t-72 -26q-51 0 -72.5 25t-21.5 67q0 40 21.5 65.5t72.5 25.5q50 0 72 -25.5t22 -65.5zM252 0v239l-243 468h227l98 -208l22 -72l22 73
l94 207h230l-241 -466v-241h-209z" />
    <glyph glyph-name="Zacute" unicode="&#x179;" horiz-adv-x="652" 
d="M230 755l89 179h204l-132 -179h-161zM46 0v168l304 375l-71 -3h-220v167h540v-167l-306 -377l78 5h235v-168h-560z" />
    <glyph glyph-name="zacute" unicode="&#x17a;" horiz-adv-x="539" 
d="M176 592l89 179h204l-132 -179h-161zM50 527h447v-151l-204 -224l55 4h149v-156h-455v151l203 224l-50 -4h-145v156z" />
    <glyph glyph-name="Zdotaccent" unicode="&#x17b;" horiz-adv-x="652" 
d="M437 852q0 -42 -24 -69.5t-80 -27.5t-80.5 26.5t-24.5 70.5q0 42 24.5 69t80.5 27t80 -27t24 -69zM46 0v168l304 375l-71 -3h-220v167h540v-167l-306 -377l78 5h235v-168h-560z" />
    <glyph glyph-name="zdotaccent" unicode="&#x17c;" horiz-adv-x="539" 
d="M386 687q0 -42 -24 -69.5t-80 -27.5t-80.5 26.5t-24.5 70.5q0 42 24.5 69t80.5 27t80 -27t24 -69zM50 527h447v-151l-204 -224l55 4h149v-156h-455v151l203 224l-50 -4h-145v156z" />
    <glyph glyph-name="Zcaron" unicode="&#x17d;" horiz-adv-x="652" 
d="M257 755l-128 179h149l54 -78l54 78h149l-128 -179h-150zM46 0v168l304 375l-71 -3h-220v167h540v-167l-306 -377l78 5h235v-168h-560z" />
    <glyph glyph-name="zcaron" unicode="&#x17e;" horiz-adv-x="539" 
d="M211 592l-128 179h149l54 -78l54 78h149l-128 -179h-150zM50 527h447v-151l-204 -224l55 4h149v-156h-455v151l203 224l-50 -4h-145v156z" />
    <glyph glyph-name="longs" unicode="&#x17f;" horiz-adv-x="401" 
d="M62 0v373h-53v154h53v38q0 64 21 104.5t54.5 63.5t76 32t85.5 9q25 0 45 -2.5t34 -4.5q17 -3 29 -6l-25 -149q-6 2 -13 4q-6 2 -15 3t-20 1q-71 0 -71 -61v-559h-201z" />
    <glyph glyph-name="florin" unicode="&#x192;" horiz-adv-x="576" 
d="M504 580q-7 2 -16 4q-8 2 -17.5 3t-20.5 1q-28 0 -50.5 -12.5t-25.5 -48.5l-11 -141h133v-156h-146l-21 -252q-5 -59 -28 -97t-56.5 -59.5t-72.5 -29.5t-75 -8q-23 0 -42.5 2t-33.5 4q-17 3 -31 7l23 148q3 -2 9 -4q9 -3 33 -3q29 0 53 10.5t27 44.5l20 237h-114v156h128
l14 161q5 60 28.5 98t57 59.5t72.5 30t77 8.5q23 0 43 -2.5t35 -4.5q17 -4 31 -7l-23 -149v0z" />
    <glyph glyph-name="Scommaaccent" unicode="&#x218;" horiz-adv-x="606" 
d="M212 -327q7 3 18.5 13.5t23.5 24t21.5 28.5t11.5 27q-39 2 -53.5 27.5t-14.5 57.5q0 38 22 63t75 25q39 0 67.5 -25.5t28.5 -83.5q0 -44 -16.5 -80.5t-37.5 -63t-41 -42t-28 -18.5zM78 194q22 -12 52 -22q25 -8 60.5 -15t79.5 -7t71 10.5t27 33.5q0 24 -20 35t-65 25
q-41 13 -85 30t-80.5 44.5t-60 68.5t-23.5 103q0 106 73.5 162.5t210.5 56.5q52 0 93 -7t70 -15q33 -10 59 -21l-40 -155q-19 10 -45 18q-23 7 -54.5 12.5t-73.5 5.5q-51 0 -70.5 -11.5t-19.5 -34.5q0 -11 5 -18.5t18.5 -15t37 -16.5t61.5 -22q41 -14 79.5 -30.5t68 -41.5
t47.5 -62t18 -92q0 -109 -81 -167t-223 -58q-58 0 -100.5 7.5t-71.5 16.5q-33 11 -57 25z" />
    <glyph glyph-name="scommaaccent" unicode="&#x219;" horiz-adv-x="506" 
d="M156 -327q7 3 18.5 13.5t23.5 24t21.5 28.5t11.5 27q-39 2 -53.5 27.5t-14.5 57.5q0 38 22 63t75 25q39 0 67.5 -25.5t28.5 -83.5q0 -44 -16.5 -80.5t-37.5 -63t-41 -42t-28 -18.5zM63 165q20 -11 45 -19q21 -8 49.5 -13.5t63.5 -5.5q29 0 47 5.5t18 18.5
q0 16 -19.5 21.5t-54.5 14.5q-28 7 -60 18t-59 31t-45 51t-18 79q0 37 13.5 69t42 55t74 36t109.5 13q44 0 78 -5.5t57 -11.5q27 -8 47 -17l-32 -139q-19 8 -42 15q-20 5 -45 10t-54 5q-62 0 -62 -25q0 -16 26 -22.5t71 -19.5q80 -23 120.5 -59t40.5 -107
q0 -90 -65.5 -132.5t-180.5 -42.5q-49 0 -85.5 5.5t-62.5 13.5q-30 9 -51 20z" />
    <glyph glyph-name="uni021A" unicode="&#x21a;" horiz-adv-x="637" 
d="M214 -327q7 3 18.5 13.5t23.5 24t21.5 28.5t11.5 27q-39 2 -53.5 27.5t-14.5 57.5q0 38 22 63t75 25q39 0 67.5 -25.5t28.5 -83.5q0 -44 -16.5 -80.5t-37.5 -63t-41 -42t-28 -18.5zM216 0v529h-197v178h599v-178h-197v-529h-205z" />
    <glyph glyph-name="uni021B" unicode="&#x21b;" horiz-adv-x="422" 
d="M145 -327q7 3 18.5 13.5t23.5 24t21.5 28.5t11.5 27q-39 2 -53.5 27.5t-14.5 57.5q0 38 22 63t75 25q39 0 67.5 -25.5t28.5 -83.5q0 -44 -16.5 -80.5t-37.5 -63t-41 -42t-28 -18.5zM393 12q-16 -7 -37 -12q-18 -5 -43 -8.5t-56 -3.5q-43 0 -77.5 9.5t-58.5 33.5t-37 64
t-13 100v175h-52v157h56l23 131h175v-131h114l-6 -157h-107v-174q0 -29 15 -39.5t41 -10.5q23 0 36 5q7 2 13 5z" />
    <glyph glyph-name="uni0237" unicode="&#x237;" horiz-adv-x="300" 
d="M-53 -58q6 -2 12 -3q5 -1 12.5 -1.5t15.5 -0.5q32 0 48 15t16 48v527h200v-524q0 -107 -58.5 -163t-164.5 -56q-17 0 -33.5 1t-28.5 3q-15 2 -27 4z" />
    <glyph glyph-name="circumflex" unicode="&#x2c6;" horiz-adv-x="454" 
d="M302 771l128 -179h-149l-54 78l-54 -78h-149l128 179h150z" />
    <glyph glyph-name="caron" unicode="&#x2c7;" horiz-adv-x="446" 
d="M150 592l-128 179h149l54 -78l54 78h149l-128 -179h-150z" />
    <glyph glyph-name="uni02C9" unicode="&#x2c9;" horiz-adv-x="407" 
d="M29 591v142h349v-142h-349z" />
    <glyph glyph-name="breve" unicode="&#x2d8;" horiz-adv-x="422" 
d="M392 775q0 -37 -11.5 -70.5t-34.5 -59t-57 -41t-78 -15.5t-74.5 12t-51 30t-31.5 40t-16.5 43t-6.5 37.5t-1 23.5h127q0 -3 1 -13t6.5 -21t16 -19.5t30.5 -8.5q26 0 40 18.5t14 43.5h127v0z" />
    <glyph glyph-name="dotaccent" unicode="&#x2d9;" horiz-adv-x="267" 
d="M238 687q0 -42 -24 -69.5t-80 -27.5t-80.5 26.5t-24.5 70.5q0 42 24.5 69t80.5 27t80 -27t24 -69z" />
    <glyph glyph-name="ring" unicode="&#x2da;" horiz-adv-x="343" 
d="M167 587q-71 0 -104.5 37t-33.5 93q0 66 39.5 102t106.5 36q69 0 104 -36t35 -98q0 -60 -34.5 -97t-112.5 -37zM172 680q37 0 37 43q0 17 -8 28t-27 11q-20 0 -30 -11.5t-10 -29.5q0 -19 9 -30t29 -11z" />
    <glyph glyph-name="ogonek" unicode="&#x2db;" horiz-adv-x="324" 
d="M282 -1q-42 -9 -64.5 -28.5t-22.5 -36.5q0 -11 10.5 -18.5t33.5 -7.5q11 0 23.5 2t28.5 6l4 -109q-58 -23 -121 -23q-29 0 -55 5.5t-46 16.5t-32 28.5t-12 40.5q0 25 13 47.5t34 42t49 34.5t58 24z" />
    <glyph glyph-name="tilde" unicode="&#x2dc;" horiz-adv-x="459" 
d="M33 590q-2 10 -3 20t-1 20q0 27 7.5 52.5t22.5 45t38 31t54 11.5q22 0 41.5 -7.5t35 -16.5t28 -16.5t20.5 -7.5q20 0 20 23q0 11 -4 22h134q2 -10 3 -20t1 -20q0 -27 -7.5 -52.5t-22.5 -45t-38 -31t-54 -11.5q-23 0 -41.5 7.5t-34 16.5t-28 16.5t-22.5 7.5q-19 0 -19 -24
q0 -5 1 -10t3 -11h-134z" />
    <glyph glyph-name="hungarumlaut" unicode="&#x2dd;" horiz-adv-x="517" 
d="M29 592l66 179h164l-67 -179h-163zM248 592l65 179h175l-97 -179h-143z" />
    <glyph glyph-name="Delta" unicode="&#x394;" horiz-adv-x="687" 
d="M-6 0l216 707h267l216 -707h-699zM338 496l-82 -318h168z" />
    <glyph glyph-name="Omega" unicode="&#x3a9;" horiz-adv-x="708" 
d="M383 0v167q21 25 39 60q14 29 26.5 73t12.5 102q0 67 -25.5 108.5t-81.5 41.5t-81.5 -41.5t-25.5 -108.5q0 -58 12 -102t27 -73q18 -35 40 -60v-167h-299v167h102q-28 25 -49 61q-18 31 -33 76.5t-15 107.5q0 58 18 113.5t56.5 98.5t99.5 69t147 26q87 0 148.5 -26.5
t100 -69.5t56.5 -98t18 -112q0 -64 -15.5 -110t-33.5 -76q-21 -35 -48 -60h102v-167h-298z" />
    <glyph glyph-name="mu" unicode="&#x3bc;" horiz-adv-x="619" 
d="M251 527v-310q0 -35 14.5 -48t39.5 -13q18 0 34.5 5t29.5 13v353h201v-527h-161l-24 57q-15 -16 -34 -29q-17 -11 -41.5 -22.5t-57.5 -15.5h-2v-194h-201v731h202z" />
    <glyph glyph-name="pi" unicode="&#x3c0;" horiz-adv-x="712" 
d="M682 12q-10 -7 -27 -12q-14 -5 -37 -8.5t-56 -3.5q-42 0 -76 10t-58 34t-37.5 63.5t-13.5 99.5v174h-86v-369h-201v369h-86v158h663v-158h-87v-173q0 -29 14 -39.5t34 -10.5q18 0 32 3l14 4z" />
    <glyph glyph-name="Wgrave" unicode="&#x1e80;" horiz-adv-x="1000" 
d="M412 755l-132 179h204l89 -179h-161zM224 707l63 -382l13 -91l19 90l92 383h179l91 -382l19 -91l13 91l63 382h215l-161 -707h-218l-94 350l-18 74l-18 -74l-94 -350h-218l-161 707h215z" />
    <glyph glyph-name="wgrave" unicode="&#x1e81;" horiz-adv-x="849" 
d="M342 592l-132 179h204l89 -179h-161zM201 527l41 -227l21 -159l23 160l47 226h183l48 -228l23 -158l21 160l40 226h207l-134 -527h-232l-26 117l-39 196l-37 -196l-26 -117h-232l-135 527h207z" />
    <glyph glyph-name="Wacute" unicode="&#x1e82;" horiz-adv-x="1000" 
d="M420 755l89 179h204l-132 -179h-161zM224 707l63 -382l13 -91l19 90l92 383h179l91 -382l19 -91l13 91l63 382h215l-161 -707h-218l-94 350l-18 74l-18 -74l-94 -350h-218l-161 707h215z" />
    <glyph glyph-name="wacute" unicode="&#x1e83;" horiz-adv-x="849" 
d="M342 592l89 179h204l-132 -179h-161zM201 527l41 -227l21 -159l23 160l47 226h183l48 -228l23 -158l21 160l40 226h207l-134 -527h-232l-26 117l-39 196l-37 -196l-26 -117h-232l-135 527h207z" />
    <glyph glyph-name="Wdieresis" unicode="&#x1e84;" horiz-adv-x="1000" 
d="M478 847q0 -40 -21.5 -66t-72.5 -26q-50 0 -72 25t-22 67q0 40 22 65.5t72 25.5q51 0 72.5 -25.5t21.5 -65.5zM710 847q0 -40 -22 -66t-72 -26q-51 0 -72.5 25t-21.5 67q0 40 21.5 65.5t72.5 25.5q50 0 72 -25.5t22 -65.5zM224 707l63 -382l13 -91l19 90l92 383h179
l91 -382l19 -91l13 91l63 382h215l-161 -707h-218l-94 350l-18 74l-18 -74l-94 -350h-218l-161 707h215z" />
    <glyph glyph-name="wdieresis" unicode="&#x1e85;" horiz-adv-x="849" 
d="M404 667q0 -40 -21.5 -66t-72.5 -26q-50 0 -72 25t-22 67q0 40 22 65.5t72 25.5q51 0 72.5 -25.5t21.5 -65.5zM636 667q0 -40 -22 -66t-72 -26q-51 0 -72.5 25t-21.5 67q0 40 21.5 65.5t72.5 25.5q50 0 72 -25.5t22 -65.5zM201 527l41 -227l21 -159l23 160l47 226h183
l48 -228l23 -158l21 160l40 226h207l-134 -527h-232l-26 117l-39 196l-37 -196l-26 -117h-232l-135 527h207z" />
    <glyph glyph-name="Ygrave" unicode="&#x1ef2;" horiz-adv-x="701" 
d="M248 0v243l-239 464h216l104 -234l22 -62l22 63l100 233h219l-238 -462v-245h-206zM274 755l-132 179h204l89 -179h-161z" />
    <glyph glyph-name="ygrave" unicode="&#x1ef3;" horiz-adv-x="571" 
d="M35 -52q7 -3 17 -6q18 -5 44 -5q30 0 47.5 10t27.5 22q11 14 15 33l-182 525h209l52 -240l18 -128l83 368h201l-189 -550q-17 -50 -39.5 -86t-53.5 -60t-71 -35.5t-92 -11.5q-24 0 -44 2t-34 4q-17 3 -29 7zM211 592l-132 179h204l89 -179h-161z" />
    <glyph glyph-name="uni2009" unicode="&#x2009;" horiz-adv-x="66" 
 />
    <glyph glyph-name="endash" unicode="&#x2013;" horiz-adv-x="658" 
d="M44 204v163h570v-163h-570z" />
    <glyph glyph-name="emdash" unicode="&#x2014;" horiz-adv-x="932" 
d="M44 204v163h844v-163h-844z" />
    <glyph glyph-name="quoteleft" unicode="&#x2018;" horiz-adv-x="284" 
d="M255 689q-8 -4 -21 -15.5t-26.5 -26.5t-24 -32t-13.5 -31q22 -1 37 -9.5t24 -21.5t12.5 -30t3.5 -35q0 -44 -25 -72t-84 -28q-22 0 -42 7t-35 22t-23.5 38.5t-8.5 56.5q0 50 18.5 91t42 71t46 48t31.5 21z" />
    <glyph glyph-name="quoteright" unicode="&#x2019;" horiz-adv-x="284" 
d="M29 442q7 4 20.5 15.5t27 26.5t24 32t13.5 31q-23 1 -37.5 9.5t-23.5 21.5t-12.5 30t-3.5 35q0 44 25 72t84 28q22 0 42 -7t35 -22t23.5 -38.5t8.5 -56.5q0 -50 -18.5 -91t-42 -71t-46 -48t-31.5 -21z" />
    <glyph glyph-name="quotesinglbase" unicode="&#x201a;" horiz-adv-x="300" 
d="M37 -105q7 4 20.5 15.5t27 26.5t24 32t13.5 31q-23 1 -37.5 9.5t-23.5 21.5t-12.5 30t-3.5 35q0 44 25 72t84 28q22 0 42 -7t35 -22t23.5 -38.5t8.5 -56.5q0 -50 -18.5 -91t-42 -71t-46 -48t-31.5 -21z" />
    <glyph glyph-name="quotedblleft" unicode="&#x201c;" horiz-adv-x="539" 
d="M255 689q-8 -4 -21 -15.5t-26.5 -26.5t-24 -32t-13.5 -31q22 -1 37 -9.5t24 -21.5t12.5 -30t3.5 -35q0 -44 -25 -72t-84 -28q-22 0 -42 7t-35 22t-23.5 38.5t-8.5 56.5q0 50 18.5 91t42 71t46 48t31.5 21zM510 689q-8 -4 -21 -15.5t-26.5 -26.5t-24 -32t-13.5 -31
q22 -1 37 -9.5t24 -21.5t12.5 -30t3.5 -35q0 -44 -25 -72t-84 -28q-22 0 -42 7t-35 22t-23.5 38.5t-8.5 56.5q0 50 18.5 91t42 71t46 48t31.5 21z" />
    <glyph glyph-name="quotedblright" unicode="&#x201d;" horiz-adv-x="539" 
d="M29 442q7 4 20.5 15.5t27 26.5t24 32t13.5 31q-23 1 -37.5 9.5t-23.5 21.5t-12.5 30t-3.5 35q0 44 25 72t84 28q22 0 42 -7t35 -22t23.5 -38.5t8.5 -56.5q0 -50 -18.5 -91t-42 -71t-46 -48t-31.5 -21zM284 442q7 4 20.5 15.5t27 26.5t24 32t13.5 31q-23 1 -37.5 9.5
t-23.5 21.5t-12.5 30t-3.5 35q0 44 25 72t84 28q22 0 42 -7t35 -22t23.5 -38.5t8.5 -56.5q0 -50 -18.5 -91t-42 -71t-46 -48t-31.5 -21z" />
    <glyph glyph-name="quotedblbase" unicode="&#x201e;" horiz-adv-x="555" 
d="M37 -104q7 4 20.5 15.5t27 26.5t24 32t13.5 31q-23 1 -37.5 9.5t-23.5 21.5t-12.5 30t-3.5 35q0 44 25 72t84 28q22 0 42 -7t35 -22t23.5 -38.5t8.5 -56.5q0 -50 -18.5 -91t-42 -71t-46 -48t-31.5 -21zM292 -104q7 4 20.5 15.5t27 26.5t24 32t13.5 31q-23 1 -37.5 9.5
t-23.5 21.5t-12.5 30t-3.5 35q0 44 25 72t84 28q22 0 42 -7t35 -22t23.5 -38.5t8.5 -56.5q0 -50 -18.5 -91t-42 -71t-46 -48t-31.5 -21z" />
    <glyph glyph-name="dagger" unicode="&#x2020;" horiz-adv-x="511" 
d="M183 -132l-24 375v131l-110 -10v173l110 -11v205h193v-205l110 11v-173l-110 11v-131l-24 -376h-145z" />
    <glyph glyph-name="daggerdbl" unicode="&#x2021;" horiz-adv-x="511" 
d="M183 -132l-16 191l-118 -11v173l110 -11v164l-110 -10v173l110 -11v205h193v-205l110 11v-173l-110 11v-165l110 11v-173l-119 11l-15 -191h-145z" />
    <glyph glyph-name="bullet" unicode="&#x2022;" horiz-adv-x="424" 
d="M385 301q0 -36 -9.5 -66t-30.5 -52t-54 -34.5t-79 -12.5q-47 0 -79.5 12t-53.5 33.5t-30.5 52t-9.5 67.5q0 36 9.5 66t30.5 51.5t53.5 34t79.5 12.5q46 0 79 -12.5t54 -34t30.5 -51.5t9.5 -66z" />
    <glyph glyph-name="ellipsis" unicode="&#x2026;" horiz-adv-x="900" 
d="M255 92q0 -45 -25 -74.5t-84 -29.5t-84 28.5t-25 75.5q0 45 25 74t84 29t84 -29t25 -74zM559 92q0 -45 -25 -74.5t-84 -29.5t-84 28.5t-25 75.5q0 45 25 74t84 29t84 -29t25 -74zM863 92q0 -45 -25 -74.5t-84 -29.5t-84 28.5t-25 75.5q0 45 25 74t84 29t84 -29t25 -74z
" />
    <glyph glyph-name="perthousand" unicode="&#x2030;" horiz-adv-x="1309" 
d="M207 719q42 0 75.5 -13.5t57 -38t36 -59t12.5 -76.5q0 -41 -11.5 -75t-34.5 -58.5t-57 -38t-79 -13.5t-79 13.5t-57 37.5t-34.5 57.5t-11.5 72.5q0 44 13.5 79.5t38 60t58 38t73.5 13.5zM207 615q-24 0 -35.5 -21.5t-11.5 -61.5q0 -38 10.5 -60t34.5 -22t35.5 21.5
t11.5 62.5q0 38 -11 59.5t-34 21.5zM746 707l-475 -707h-114l475 707h114zM696 360q42 0 75.5 -13.5t57 -38t36 -59t12.5 -76.5q0 -41 -11.5 -75t-34.5 -58.5t-57 -38t-79 -13.5t-79 13.5t-57 37.5t-34.5 57.5t-11.5 72.5q0 44 13.5 79.5t38 60t58 38t73.5 13.5zM696 256
q-24 0 -35.5 -21.5t-11.5 -61.5q0 -38 10.5 -60t34.5 -22t35.5 21.5t11.5 62.5q0 38 -11 59.5t-34 21.5zM1104 360q42 0 75.5 -13.5t57 -38t36 -59t12.5 -76.5q0 -41 -11.5 -75t-34.5 -58.5t-57 -38t-79 -13.5t-79 13.5t-57 37.5t-34.5 57.5t-11.5 72.5q0 44 13.5 79.5
t38 60t58 38t73.5 13.5zM1104 256q-24 0 -35.5 -21.5t-11.5 -61.5q0 -38 10.5 -60t34.5 -22t35.5 21.5t11.5 62.5q0 38 -11 59.5t-34 21.5z" />
    <glyph glyph-name="guilsinglleft" unicode="&#x2039;" horiz-adv-x="417" 
d="M168 90l-114 196l114 196h195l-113 -196l113 -196h-195z" />
    <glyph glyph-name="guilsinglright" unicode="&#x203a;" horiz-adv-x="417" 
d="M54 90l113 196l-113 196h195l114 -196l-114 -196h-195z" />
    <glyph glyph-name="fraction" unicode="&#x2044;" horiz-adv-x="261" 
d="M-126 0l377 707h126l-377 -707h-126z" />
    <glyph glyph-name="uni2070" unicode="&#x2070;" horiz-adv-x="442" 
d="M218 355q-102 0 -147 57t-45 159q0 108 47 165t150 57q101 0 147 -56.5t46 -159.5q0 -104 -47 -163t-151 -59zM222 462q32 0 44.5 25.5t12.5 88.5q0 60 -12 85t-44 25q-35 0 -47.5 -26.5t-12.5 -84.5q0 -62 13 -87.5t46 -25.5z" />
    <glyph glyph-name="uni2074" unicode="&#x2074;" horiz-adv-x="396" 
d="M14 536l167 250h154v-249h36v-95h-36v-80h-137v80h-172zM198 537v90l3 51l-90 -141h87z" />
    <glyph glyph-name="uni2075" unicode="&#x2075;" horiz-adv-x="383" 
d="M45 473q10 -4 23 -7q11 -3 27.5 -5t39.5 -2q27 0 44 4t26.5 10.5t12.5 14.5t3 15q0 13 -7.5 21.5t-20.5 13.5t-29.5 6.5t-35.5 1.5q-17 0 -32.5 -1t-26.5 -3q-14 -2 -25 -3l9 247h279v-105h-160l-2 -46h18q28 0 58 -6t55 -21t41 -41.5t16 -67.5q0 -21 -7.5 -46t-30 -46.5
t-63 -36.5t-106.5 -15q-27 0 -48.5 2t-36.5 5q-18 4 -30 8z" />
    <glyph glyph-name="uni2076" unicode="&#x2076;" horiz-adv-x="403" 
d="M339 674q-10 3 -22 6q-11 2 -25 4t-30 2q-45 0 -67 -13t-29 -48q9 3 20 7q10 3 24 5.5t31 2.5q69 0 104.5 -38.5t35.5 -96.5q0 -30 -10.5 -57.5t-32 -48t-54 -32.5t-77.5 -12q-56 0 -91 18t-55 47t-27.5 64t-7.5 70q0 53 12.5 97t39 75.5t68 49t98.5 17.5q23 0 43 -2.5
t34 -5.5q17 -4 31 -8zM162 529q0 -38 11 -53.5t34 -15.5q20 0 30.5 12t10.5 31q0 22 -10.5 30.5t-30.5 8.5q-10 0 -18 -2.5t-14 -4.5q-7 -3 -13 -6z" />
    <glyph glyph-name="uni2077" unicode="&#x2077;" horiz-adv-x="342" 
d="M12 786h307l4 -102l-142 -322h-149l117 271l24 46h-161v107z" />
    <glyph glyph-name="uni2078" unicode="&#x2078;" horiz-adv-x="418" 
d="M211 793q85 0 127 -32.5t42 -78.5q0 -23 -9 -41t-20 -31t-21 -19.5t-11 -7.5q1 -1 13 -7.5t26 -20t25 -33.5t11 -48q0 -31 -14 -53.5t-39 -37t-60 -21.5t-76 -7q-85 0 -133 28.5t-48 87.5q0 27 10.5 46.5t23.5 31.5t24.5 18t13.5 7q-1 0 -10.5 6t-20 18t-19 30t-8.5 43
q0 53 43 87.5t130 34.5zM200 529q-17 -7 -28 -17t-11 -25t11 -24.5t36 -9.5q26 0 37.5 10t11.5 24q0 17 -16.5 25.5t-40.5 16.5zM217 621q17 11 26 21t9 24q0 17 -11.5 25t-31.5 8q-19 0 -31.5 -8t-12.5 -25q0 -18 14.5 -27.5t37.5 -17.5z" />
    <glyph glyph-name="uni2079" unicode="&#x2079;" horiz-adv-x="403" 
d="M64 474q10 -3 22 -6q11 -2 24.5 -4t30.5 -2q45 0 67 13t29 48q-9 -4 -20 -8q-10 -3 -24 -5t-31 -2q-69 0 -104.5 38.5t-35.5 96.5q0 30 10.5 57.5t32 48t54 32.5t77.5 12q55 0 90.5 -18t55.5 -47t27.5 -64.5t7.5 -69.5q0 -53 -12.5 -97t-39 -75.5t-68 -49t-98.5 -17.5
q-23 0 -43 2.5t-34 5.5q-17 4 -31 8zM241 619q0 38 -11 53.5t-34 15.5q-20 0 -30.5 -12t-10.5 -31q0 -22 10.5 -30.5t30.5 -8.5q9 0 17.5 2t14.5 4q7 3 13 7z" />
    <glyph glyph-name="uni2080" unicode="&#x2080;" horiz-adv-x="442" 
d="M218 -135q-102 0 -147 57t-45 159q0 108 47 165t150 57q101 0 147 -56.5t46 -159.5q0 -104 -47 -163t-151 -59zM222 -28q32 0 44.5 25.5t12.5 88.5q0 60 -12 85t-44 25q-35 0 -47.5 -26.5t-12.5 -84.5q0 -62 13 -87.5t46 -25.5z" />
    <glyph glyph-name="uni2081" unicode="&#x2081;" horiz-adv-x="278" 
d="M97 -128v310l-70 -13l-9 94l131 33h85v-424h-137z" />
    <glyph glyph-name="uni2082" unicode="&#x2082;" horiz-adv-x="375" 
d="M36 -128l-9 111q49 22 88 48q16 11 32 24t28.5 27.5t20 30t7.5 32.5q0 22 -16 36.5t-56 14.5q-18 0 -33.5 -3t-26.5 -6q-13 -4 -24 -9l-16 99q19 7 43 13q20 5 46.5 9t56.5 4q46 0 78 -11t52.5 -29.5t30 -44t9.5 -54.5q0 -47 -20 -82t-44 -59q-28 -28 -64 -48l29 4h93
v-107h-305z" />
    <glyph glyph-name="uni2083" unicode="&#x2083;" horiz-adv-x="376" 
d="M41 -15q7 -4 20 -8q11 -3 28.5 -5.5t43.5 -2.5q36 0 56 7.5t20 28.5q0 7 -3 13t-11 10.5t-23 7t-40 2.5q-9 0 -15.5 -0.5t-10.5 -0.5q-4 -1 -7 -1v95q3 -1 7 -1q4 -1 10.5 -1h15.5q34 0 52.5 7t18.5 28q0 20 -18 27.5t-56 7.5q-20 0 -35 -1.5t-26 -3.5q-12 -2 -21 -4
l-14 94q14 5 33 9q17 4 41 7t56 3q93 0 135 -28t42 -78q0 -39 -16.5 -63t-46.5 -38q32 -11 51 -34.5t19 -70.5q0 -67 -53.5 -96.5t-143.5 -29.5q-31 0 -53.5 2.5t-37.5 5.5q-18 4 -30 9z" />
    <glyph glyph-name="uni2084" unicode="&#x2084;" horiz-adv-x="396" 
d="M14 46l167 250h154v-249h36v-95h-36v-80h-137v80h-172zM198 47v90l3 51l-90 -141h87z" />
    <glyph glyph-name="uni2085" unicode="&#x2085;" horiz-adv-x="383" 
d="M45 -17q10 -4 23 -7q11 -3 27.5 -5t39.5 -2q27 0 44 4t26.5 10.5t12.5 14.5t3 15q0 13 -7.5 21.5t-20.5 13.5t-29.5 6.5t-35.5 1.5q-17 0 -32.5 -1t-26.5 -3q-14 -2 -25 -3l9 247h279v-105h-160l-2 -46h18q28 0 58 -6t55 -21t41 -41.5t16 -67.5q0 -21 -7.5 -46t-30 -46.5
t-63 -36.5t-106.5 -15q-27 0 -48.5 2t-36.5 5q-18 4 -30 8z" />
    <glyph glyph-name="uni2086" unicode="&#x2086;" horiz-adv-x="407" 
d="M339 184q-10 3 -22 6q-11 2 -25 4t-30 2q-45 0 -67 -13t-29 -48q9 3 20 7q10 3 24 5.5t31 2.5q69 0 104.5 -38.5t35.5 -96.5q0 -30 -10.5 -57.5t-32 -48t-54 -32.5t-77.5 -12q-56 0 -91 18t-55 47t-27.5 64t-7.5 70q0 53 12.5 97t39 75.5t68 49t98.5 17.5q23 0 43 -2.5
t34 -5.5q17 -4 31 -8zM162 39q0 -38 11 -53.5t34 -15.5q20 0 30.5 12t10.5 31q0 22 -10.5 30.5t-30.5 8.5q-10 0 -18 -2.5t-14 -4.5q-7 -3 -13 -6z" />
    <glyph glyph-name="uni2087" unicode="&#x2087;" horiz-adv-x="342" 
d="M12 296h307l4 -102l-142 -322h-149l117 271l24 46h-161v107z" />
    <glyph glyph-name="uni2088" unicode="&#x2088;" horiz-adv-x="418" 
d="M211 303q85 0 127 -32.5t42 -78.5q0 -23 -9 -41t-20 -31t-21 -19.5t-11 -7.5q1 -1 13 -7.5t26 -20t25 -33.5t11 -48q0 -31 -14 -53.5t-39 -37t-60 -21.5t-76 -7q-85 0 -133 28.5t-48 87.5q0 27 10.5 46.5t23.5 31.5t24.5 18t13.5 7q-1 0 -10.5 6t-20 18t-19 30t-8.5 43
q0 53 43 87.5t130 34.5zM200 39q-17 -7 -28 -17t-11 -25t11 -24.5t36 -9.5q26 0 37.5 10t11.5 24q0 17 -16.5 25.5t-40.5 16.5zM217 131q17 11 26 21t9 24q0 17 -11.5 25t-31.5 8q-19 0 -31.5 -8t-12.5 -25q0 -18 14.5 -27.5t37.5 -17.5z" />
    <glyph glyph-name="uni2089" unicode="&#x2089;" horiz-adv-x="407" 
d="M68 -16q10 -3 22 -6q11 -2 24.5 -4t30.5 -2q45 0 67 13t29 48q-9 -4 -20 -8q-10 -3 -24 -5t-31 -2q-69 0 -104.5 38.5t-35.5 96.5q0 30 10.5 57.5t32 48t54 32.5t77.5 12q55 0 90.5 -18t55.5 -47t27.5 -64.5t7.5 -69.5q0 -53 -12.5 -97t-39 -75.5t-68 -49t-98.5 -17.5
q-23 0 -43 2.5t-34 5.5q-17 4 -31 8zM245 129q0 38 -11 53.5t-34 15.5q-20 0 -30.5 -12t-10.5 -31q0 -22 10.5 -30.5t30.5 -8.5q9 0 17.5 2t14.5 4q7 3 13 7z" />
    <glyph glyph-name="franc" unicode="&#x20a3;" horiz-adv-x="625" 
d="M87 1v73h-58v136h58v497h484v-177h-271v-109h225v-167h-225v-44h69v-136h-69v-73h-213z" />
    <glyph glyph-name="lira" unicode="&#x20a4;" horiz-adv-x="643" 
d="M304 239q-7 -20 -14.5 -32t-13.5 -19q16 3 31 3q20 0 35.5 -4t29 -8.5t27.5 -8.5t31 -4q16 0 36.5 6.5t45.5 29.5l80 -123q-17 -25 -36 -40.5t-38.5 -24t-38 -11.5t-34.5 -3q-23 0 -45.5 5t-46 11t-47 11t-48.5 5t-48.5 -9t-44.5 -23l-91 169q10 7 21 19.5t19 50.5h-59
v102h70l2 48h-72v102h74q8 110 72 169t197 59q38 0 68 -4t50 -9q24 -6 42 -13l-29 -153q-13 3 -27 6q-13 2 -29 4.5t-36 2.5q-42 0 -70.5 -13.5t-35.5 -48.5h122v-102h-126q-1 -14 -1.5 -25.5t-2.5 -22.5h130v-102h-149z" />
    <glyph glyph-name="Euro" unicode="&#x20ac;" horiz-adv-x="651" 
d="M575 522q-16 3 -34 7q-16 3 -36.5 5.5t-44.5 2.5q-46 0 -81 -12t-56 -44h141v-102h-170v-48h170v-102h-143q21 -34 56.5 -46.5t82.5 -12.5q24 0 45 2.5t37 5.5q18 4 33 8l27 -156q-18 -9 -43 -15q-21 -6 -51.5 -10.5t-71.5 -4.5q-73 0 -129 17.5t-96.5 48t-67 72.5
t-39.5 91h-68v102h53v48h-53v102h70q14 49 40 90.5t66.5 71.5t96 47t127.5 17q41 0 71.5 -5t51.5 -10q25 -7 43 -15l-27 -155v0z" />
    <glyph glyph-name="afii61289" unicode="&#x2113;" horiz-adv-x="545" 
d="M464 27q-18 -11 -41 -20q-20 -8 -48 -13.5t-63 -5.5q-32 0 -64 6.5t-60 22t-50.5 41t-35.5 63.5q-17 -5 -31.5 -10t-26.5 -8l-5 116l49 21v267q0 118 54.5 177t159.5 59q53 0 90 -14.5t60 -41t33.5 -63t10.5 -79.5q0 -60 -17.5 -111t-47.5 -93t-69 -75.5t-81 -59.5
q15 -56 76 -56q17 0 32 3.5t26 8.5q12 5 23 13zM277 362q35 36 56 73t21 94q0 43 -11 55t-26 12q-17 0 -29 -13.5t-12 -51.5v-77t1 -92z" />
    <glyph glyph-name="trademark" unicode="&#x2122;" horiz-adv-x="719" 
d="M571 410l-5 159l-31 -123h-65l-31 123l-5 -159h-113l18 297h129l34 -138l34 138h129l17 -297h-111zM107 410v194h-78v103h266v-103h-77v-194h-111z" />
    <glyph glyph-name="uni2126" unicode="&#x2126;" horiz-adv-x="708" 
d="M383 0v167q21 25 39 60q14 29 26.5 73t12.5 102q0 67 -25.5 108.5t-81.5 41.5t-81.5 -41.5t-25.5 -108.5q0 -58 12 -102t27 -73q18 -35 40 -60v-167h-299v167h102q-28 25 -49 61q-18 31 -33 76.5t-15 107.5q0 58 18 113.5t56.5 98.5t99.5 69t147 26q87 0 148.5 -26.5
t100 -69.5t56.5 -98t18 -112q0 -64 -15.5 -110t-33.5 -76q-21 -35 -48 -60h102v-167h-298z" />
    <glyph glyph-name="estimated" unicode="&#x212e;" horiz-adv-x="842" 
d="M725 134q-52 -66 -129.5 -105.5t-170.5 -39.5q-78 0 -146.5 29t-119.5 79t-80.5 116.5t-29.5 142.5q0 75 29.5 141.5t80.5 116t119.5 78.5t146.5 29q76 0 142.5 -27.5t116.5 -76t79 -116t29 -146.5v-19h-571v-205q41 -35 92.5 -55t111.5 -20t112 21t94 57h94zM620 574
q-39 37 -88.5 58.5t-106.5 21.5q-60 0 -111.5 -20t-92.5 -55v-194h399v189z" />
    <glyph glyph-name="onethird" unicode="&#x2153;" horiz-adv-x="1043" 
d="M186 0l475 707h114l-475 -707h-114zM138 283v310l-70 -13l-9 94l131 33h85v-424h-137zM678 114q7 -4 20 -8q11 -3 28.5 -5.5t43.5 -2.5q36 0 56 7.5t20 28.5q0 7 -3 13t-11 10.5t-23 7t-40 2.5q-9 0 -15.5 -0.5t-10.5 -0.5q-4 -1 -7 -1v95q3 -1 7 -1q4 -1 10.5 -1h15.5
q34 0 52.5 7t18.5 28q0 20 -18 27.5t-56 7.5q-20 0 -35 -1.5t-26 -3.5q-12 -2 -21 -4l-14 94q14 5 33 9q17 4 41 7t56 3q93 0 135 -28t42 -78q0 -39 -16.5 -63t-46.5 -38q32 -11 51 -34.5t19 -70.5q0 -67 -53.5 -96.5t-143.5 -29.5q-31 0 -53.5 2.5t-37.5 5.5q-18 4 -30 9z
" />
    <glyph glyph-name="twothirds" unicode="&#x2154;" horiz-adv-x="1125" 
d="M63 688q19 7 43 13q20 5 46.5 9t56.5 4q46 0 78 -11t52.5 -29.5t30 -44t9.5 -54.5q0 -47 -20 -82t-44 -59q-28 -28 -64 -48l29 4h93v-107h-305l-9 111q49 22 88 48q16 11 32 24t28.5 27.5t20 30t7.5 32.5q0 22 -16 36.5t-56 14.5q-18 0 -33.5 -3t-26.5 -6q-13 -4 -24 -9z
M857 707l-475 -707h-114l475 707h114zM752 413q14 5 33 9q17 4 41 7t56 3q93 0 135 -28t42 -78q0 -39 -16.5 -63t-46.5 -38q32 -11 51 -34.5t19 -70.5q0 -67 -53.5 -96.5t-143.5 -29.5q-31 0 -53.5 2.5t-37.5 5.5q-18 4 -30 9l12 103q7 -4 20 -8q11 -3 28.5 -5.5t43.5 -2.5
q36 0 56 7.5t20 28.5q0 7 -3 13t-11 10.5t-23 7t-40 2.5q-9 0 -15.5 -0.5t-10.5 -0.5q-4 -1 -7 -1v95q3 -1 7 -1q4 -1 10.5 -1h15.5q34 0 52.5 7t18.5 28q0 20 -18 27.5t-56 7.5q-20 0 -35 -1.5t-26 -3.5q-12 -2 -21 -4z" />
    <glyph glyph-name="oneeighth" unicode="&#x215b;" horiz-adv-x="1049" 
d="M807 431q85 0 127 -32.5t42 -78.5q0 -23 -9 -41t-20 -31t-21 -19.5t-11 -7.5q1 -1 13 -7.5t26 -20t25 -33.5t11 -48q0 -31 -14 -53.5t-39 -37t-60 -21.5t-76 -7q-85 0 -133 28.5t-48 87.5q0 27 10.5 46.5t23.5 31.5t24.5 18t13.5 7q-1 0 -10.5 6t-20 18t-19 30t-8.5 43
q0 53 43 87.5t130 34.5zM775 707l-475 -707h-114l475 707h114zM275 283h-137v310l-70 -13l-9 94l131 33h85v-424zM796 167q-17 -7 -28 -17t-11 -25t11 -24.5t36 -9.5q26 0 37.5 10t11.5 24q0 17 -16.5 25.5t-40.5 16.5zM813 259q17 11 26 21t9 24q0 17 -11.5 25t-31.5 8
q-19 0 -31.5 -8t-12.5 -25q0 -18 14.5 -27.5t37.5 -17.5z" />
    <glyph glyph-name="threeeighths" unicode="&#x215c;" horiz-adv-x="1095" 
d="M853 431q85 0 127 -32.5t42 -78.5q0 -23 -9 -41t-20 -31t-21 -19.5t-11 -7.5q1 -1 13 -7.5t26 -20t25 -33.5t11 -48q0 -31 -14 -53.5t-39 -37t-60 -21.5t-76 -7q-85 0 -133 28.5t-48 87.5q0 27 10.5 46.5t23.5 31.5t24.5 18t13.5 7q-1 0 -10.5 6t-20 18t-19 30t-8.5 43
q0 53 43 87.5t130 34.5zM63 695q14 5 33 9q17 4 41 7t56 3q93 0 135 -28t42 -78q0 -39 -21.5 -63t-51.5 -38q32 -11 56 -35t24 -70q0 -67 -53.5 -96.5t-143.5 -29.5q-31 0 -53.5 2.5t-37.5 5.5q-18 4 -30 9l12 103q7 -4 20 -8q11 -3 28.5 -5.5t43.5 -2.5q36 0 56 7.5
t20 28.5q0 7 -3 13t-11 10.5t-23 7t-40 2.5q-9 0 -15.5 -0.5t-10.5 -0.5q-4 -1 -7 -1v95q3 -1 7 -1q4 -1 10.5 -1h15.5q34 0 52.5 7t18.5 28q0 20 -18 27.5t-56 7.5q-20 0 -35 -1.5t-26 -3.5q-12 -2 -21 -4zM821 707l-475 -707h-114l475 707h114zM842 167q-17 -7 -28 -17
t-11 -25t11 -24.5t36 -9.5q26 0 37.5 10t11.5 24q0 17 -16.5 25.5t-40.5 16.5zM859 259q17 11 26 21t9 24q0 17 -11.5 25t-31.5 8q-19 0 -31.5 -8t-12.5 -25q0 -18 14.5 -27.5t37.5 -17.5z" />
    <glyph glyph-name="fiveeighths" unicode="&#x215d;" horiz-adv-x="1100" 
d="M858 431q85 0 127 -32.5t42 -78.5q0 -23 -9 -41t-20 -31t-21 -19.5t-11 -7.5q1 -1 13 -7.5t26 -20t25 -33.5t11 -48q0 -31 -14 -53.5t-39 -37t-60 -21.5t-76 -7q-85 0 -133 28.5t-48 87.5q0 27 10.5 46.5t23.5 31.5t24.5 18t13.5 7q-1 0 -10.5 6t-20 18t-19 30t-8.5 43
q0 53 43 87.5t130 34.5zM195 602l-2 -46h18q28 0 58 -6t55 -21t41 -41.5t16 -67.5q0 -21 -7.5 -46t-30 -46.5t-63 -36.5t-106.5 -15q-27 0 -48.5 2t-36.5 5q-18 4 -30 8l9 103q10 -4 23 -7q11 -3 27.5 -5t39.5 -2q27 0 44 4t26.5 10.5t12.5 14.5t3 15q0 13 -7.5 21.5
t-20.5 13.5t-29.5 6.5t-35.5 1.5q-17 0 -32.5 -1t-26.5 -3q-14 -2 -25 -3l9 247h279v-105h-160zM826 707l-475 -707h-114l475 707h114zM847 167q-17 -7 -28 -17t-11 -25t11 -24.5t36 -9.5q26 0 37.5 10t11.5 24q0 17 -16.5 25.5t-40.5 16.5zM864 259q17 11 26 21t9 24
q0 17 -11.5 25t-31.5 8q-19 0 -31.5 -8t-12.5 -25q0 -18 14.5 -27.5t37.5 -17.5z" />
    <glyph glyph-name="seveneighths" unicode="&#x215e;" horiz-adv-x="1032" 
d="M790 431q85 0 127 -32.5t42 -78.5q0 -23 -9 -41t-20 -31t-21 -19.5t-11 -7.5q1 -1 13 -7.5t26 -20t25 -33.5t11 -48q0 -31 -14 -53.5t-39 -37t-60 -21.5t-76 -7q-85 0 -133 28.5t-48 87.5q0 27 10.5 46.5t23.5 31.5t24.5 18t13.5 7q-1 0 -10.5 6t-20 18t-19 30t-8.5 43
q0 53 43 87.5t130 34.5zM366 707l4 -102l-142 -322h-149l117 271l24 46h-161v107h307zM758 707l-475 -707h-114l475 707h114zM779 167q-17 -7 -28 -17t-11 -25t11 -24.5t36 -9.5q26 0 37.5 10t11.5 24q0 17 -16.5 25.5t-40.5 16.5zM796 259q17 11 26 21t9 24q0 17 -11.5 25
t-31.5 8q-19 0 -31.5 -8t-12.5 -25q0 -18 14.5 -27.5t37.5 -17.5z" />
    <glyph glyph-name="arrowleft" unicode="&#x2190;" horiz-adv-x="778" 
d="M308 275l241 -240h-194l-316 316l316 316h194l-241 -240h431v-152h-431z" />
    <glyph glyph-name="arrowup" unicode="&#x2191;" horiz-adv-x="780" 
d="M314 432l-240 -241v194l316 316l316 -316v-194l-240 241v-431h-152v431z" />
    <glyph glyph-name="arrowright" unicode="&#x2192;" horiz-adv-x="778" 
d="M423 667l316 -316l-316 -316h-194l241 240h-431v152h431l-241 240h194z" />
    <glyph glyph-name="arrowdown" unicode="&#x2193;" horiz-adv-x="780" 
d="M466 270l240 241v-194l-316 -316l-316 316v194l240 -241v431h152v-431z" />
    <glyph glyph-name="uni2196" unicode="&#x2196;" horiz-adv-x="752" 
d="M230 355v-341l-136 138v446h446l138 -136h-341l305 -305l-107 -107z" />
    <glyph glyph-name="uni2197" unicode="&#x2197;" horiz-adv-x="752" 
d="M415 462h-341l138 136h446v-446l-136 -138v341l-305 -305l-107 107z" />
    <glyph glyph-name="uni2198" unicode="&#x2198;" horiz-adv-x="752" 
d="M522 257v341l136 -138v-446h-446l-138 136h341l-305 305l107 107z" />
    <glyph glyph-name="uni2199" unicode="&#x2199;" horiz-adv-x="752" 
d="M535 562l107 -107l-305 -305h341l-138 -136h-446v446l136 138v-341z" />
    <glyph glyph-name="partialdiff" unicode="&#x2202;" horiz-adv-x="602" 
d="M202 772q30 3 56 3q100 0 164 -33.5t101 -86t51.5 -118t14.5 -129.5q0 -86 -18.5 -162.5t-59 -133.5t-104 -90.5t-153.5 -33.5q-60 0 -104.5 18.5t-73.5 51t-43 77t-14 96.5q0 147 68 227.5t204 80.5q31 0 53 -7.5t37 -18.5q-17 57 -55 81t-101 24h-16t-16 -1zM393 367
q-17 7 -36 11t-36 4q-45 0 -72 -36t-27 -116q0 -37 14 -56t48 -19q58 0 82 56.5t27 155.5z" />
    <glyph glyph-name="uni2206" unicode="&#x2206;" horiz-adv-x="687" 
d="M-6 0l216 707h267l216 -707h-699zM338 496l-82 -318h168z" />
    <glyph glyph-name="product" unicode="&#x220f;" horiz-adv-x="886" 
d="M542 -204v765h-198v-765h-202v765h-93v170h788v-170h-93v-765h-202z" />
    <glyph glyph-name="summation" unicode="&#x2211;" horiz-adv-x="609" 
d="M39 -204v181l195 286l-195 286v181h531v-181h-310l195 -286l-195 -286h310v-181h-531z" />
    <glyph glyph-name="minus" unicode="&#x2212;" horiz-adv-x="588" 
d="M44 204v173h500v-173h-500z" />
    <glyph glyph-name="uni2215" unicode="&#x2215;" horiz-adv-x="647" 
d="M-6 0l475 707h184l-475 -707h-184z" />
    <glyph glyph-name="uni2219" unicode="&#x2219;" horiz-adv-x="306" 
d="M262 372q0 -45 -25 -74.5t-84 -29.5t-84 28.5t-25 75.5q0 45 25 74t84 29t84 -29t25 -74z" />
    <glyph glyph-name="radical" unicode="&#x221a;" horiz-adv-x="697" 
d="M226 0l-96 369h-126v158h300l56 -370l146 677h207l-218 -834h-269z" />
    <glyph glyph-name="infinity" unicode="&#x221e;" horiz-adv-x="1027" 
d="M49 342q0 58 21.5 100t54.5 69t73 40t78 13q47 0 90 -16.5t76 -36.5q39 -23 73 -52q32 29 71 52q32 20 75 36.5t91 16.5q42 0 82.5 -15t72.5 -44t51.5 -72t19.5 -98q0 -60 -22 -101.5t-56 -67.5t-74 -37.5t-76 -11.5q-48 0 -90.5 15.5t-74.5 34.5q-38 22 -71 51
q-34 -29 -73 -51q-34 -19 -77 -34.5t-91 -15.5q-42 0 -82.5 15t-72 43.5t-50.5 70.5t-19 96zM225 339q0 -26 20 -41t47 -15q32 0 60.5 18t46.5 38q-18 20 -46.5 38t-60.5 18q-27 0 -47 -15t-20 -41zM630 339q18 -20 46.5 -38t60.5 -18q27 0 47.5 15t20.5 41t-20.5 41
t-47.5 15q-32 0 -60.5 -18t-46.5 -38z" />
    <glyph glyph-name="integral" unicode="&#x222b;" horiz-adv-x="517" 
d="M466 587q-6 1 -13 2q-6 1 -13 1.5t-15 0.5q-35 0 -50.5 -15.5t-15.5 -49.5v-514q0 -73 -22 -117.5t-56.5 -69t-77 -33t-83.5 -8.5q-36 0 -60 3q-14 1 -26 3l17 163q6 -1 13 -2q6 -1 13 -1.5t15 -0.5q35 0 50.5 15.5t15.5 49.5v514q0 73 22 117.5t56.5 69t77 33t83.5 8.5
q17 0 32.5 -1t27.5 -2q14 -2 26 -3l-17 -163v0z" />
    <glyph glyph-name="approxequal" unicode="&#x2248;" horiz-adv-x="631" 
d="M54 320q0 41 9.5 78.5t30 66t52.5 45.5t78 17q25 0 47 -7.5t40.5 -16t33 -16t26.5 -7.5q14 0 25.5 11t11.5 34h169q0 -42 -9.5 -79t-30 -65.5t-52.5 -45t-78 -16.5q-26 0 -47 7t-39 16t-32.5 16t-27.5 7q-15 0 -26.5 -11.5t-11.5 -33.5h-169zM54 75q0 41 9.5 78.5t30 66
t52.5 45.5t78 17q25 0 47 -7.5t40.5 -16t33 -16t26.5 -7.5q14 0 25.5 11t11.5 34h169q0 -42 -9.5 -79t-30 -65.5t-52.5 -45t-78 -16.5q-26 0 -47 7t-39 16t-32.5 16t-27.5 7q-15 0 -26.5 -11.5t-11.5 -33.5h-169z" />
    <glyph glyph-name="notequal" unicode="&#x2260;" horiz-adv-x="568" 
d="M273 121l-48 -121h-151l48 121h-78v162h143l28 70h-171v162h236l44 109h152l-44 -109h92v-162h-158l-28 -70h186v-162h-251z" />
    <glyph glyph-name="lessequal" unicode="&#x2264;" horiz-adv-x="556" 
d="M49 345v193l458 155v-189l-212 -63l212 -62v-189zM49 0v163h458v-163h-458z" />
    <glyph glyph-name="greaterequal" unicode="&#x2265;" horiz-adv-x="556" 
d="M49 190v189l212 62l-212 63v189l458 -155v-193zM49 0v163h458v-163h-458z" />
    <glyph glyph-name="lozenge" unicode="&#x25ca;" horiz-adv-x="657" 
d="M222 0l-195 366l195 365h213l195 -365l-195 -366h-213zM431 366l-103 192l-102 -192l102 -193z" />
    <glyph glyph-name="zero.oldstyle" horiz-adv-x="626" 
d="M313 -12q-67 0 -120 19t-89.5 55t-55.5 87t-19 115q0 129 74.5 202t209.5 73t209.5 -73t74.5 -202q0 -64 -19 -115t-55.5 -87t-89.5 -55t-120 -19zM313 142q45 0 64 34t19 88t-19 87.5t-64 33.5t-64 -33.5t-19 -87.5t19 -88t64 -34z" />
    <glyph glyph-name="one.oldstyle" horiz-adv-x="418" 
d="M146 0v353l-112 -21l-22 139l218 56h121v-527h-205z" />
    <glyph glyph-name="two.oldstyle" horiz-adv-x="579" 
d="M59 0l-14 168q76 18 137 42q26 10 50.5 22.5t44 26.5t31.5 30.5t12 34.5q0 10 -3.5 20t-14.5 18t-30.5 13.5t-51.5 5.5t-59 -5t-47 -10q-24 -7 -44 -15l-26 144q29 12 65 22q31 8 74 15t96 7q128 0 187 -47.5t59 -132.5q0 -36 -12.5 -67t-34 -56t-49.5 -45.5t-59 -35.5
l47 3h116v-158h-474z" />
    <glyph glyph-name="three.oldstyle" horiz-adv-x="566" 
d="M51 -4q15 -8 37 -13q19 -5 47 -9t66 -4q61 0 95 15t34 53q0 31 -27 45t-97 14q-14 0 -26.5 -0.5t-21.5 -1.5q-11 -1 -19 -1v158q8 -1 18 -2q8 -1 19.5 -1h23.5q59 0 89.5 15t30.5 51q0 34 -29 48t-91 14q-32 0 -58 -3t-45 -6q-22 -4 -40 -9l-24 146q22 9 54 17
q27 6 67 11.5t94 5.5q148 0 212.5 -47t64.5 -135q0 -60 -26.5 -100.5t-76.5 -63.5q24 -8 44.5 -22t36 -34t24 -48t8.5 -65q0 -57 -22 -97.5t-63 -67t-99.5 -39t-132.5 -12.5q-49 0 -84 4.5t-58 9.5q-27 6 -46 14z" />
    <glyph glyph-name="four.oldstyle" horiz-adv-x="638" 
d="M24 157l260 370h257v-368h80v-159h-80v-133h-205v133h-292zM336 159v103l4 71l-128 -174h124z" />
    <glyph glyph-name="five.oldstyle" horiz-adv-x="575" 
d="M56 -6q16 -7 37 -12q18 -5 44.5 -8.5t59.5 -3.5q46 0 74.5 7.5t44 19.5t20.5 26t5 27q0 44 -41.5 60t-108.5 16q-27 0 -51.5 -2t-43.5 -4q-22 -3 -41 -5l14 412h435v-162h-242l-4 -92h7q4 0 9.5 0.5t13.5 0.5q44 0 89.5 -9.5t83 -34t61.5 -67.5t24 -110q0 -24 -4.5 -51.5
t-17 -54.5t-35 -52.5t-58.5 -44.5t-88 -30.5t-123 -11.5q-44 0 -77 3.5t-56 8.5q-26 5 -45 13z" />
    <glyph glyph-name="six.oldstyle" horiz-adv-x="608" 
d="M506 537q-14 6 -32 10q-15 4 -36 7t-47 3q-38 0 -63.5 -8t-42.5 -23t-26.5 -37t-15.5 -50q15 7 33 12q16 5 38 9t50 4q55 0 96 -17.5t68 -47.5t40 -71t13 -89q0 -51 -15.5 -96.5t-48.5 -80t-84 -54.5t-123 -20q-90 0 -144 30.5t-83.5 78.5t-39 107t-9.5 116
q0 88 17.5 161.5t57.5 126t104 82t157 29.5q38 0 67 -4.5t49 -9.5q24 -6 41 -13zM238 294q0 -32 2 -59t8.5 -46.5t20 -30t36.5 -10.5q32 0 51.5 21.5t19.5 66.5q0 79 -67 79q-15 0 -28 -3.5t-23 -7.5q-11 -4 -20 -10z" />
    <glyph glyph-name="seven.oldstyle" horiz-adv-x="531" 
d="M24 527h479l6 -153l-229 -554h-223l188 451l47 94h-268v162z" />
    <glyph glyph-name="eight.oldstyle" horiz-adv-x="638" 
d="M497 368q29 -15 53 -41q20 -22 37 -56.5t17 -83.5q0 -51 -20.5 -88t-58.5 -62t-92 -37t-121 -12q-135 0 -206.5 47.5t-71.5 144.5q0 49 16 82.5t36 53.5q23 24 53 38q-25 15 -44 38q-17 20 -30.5 50.5t-13.5 74.5q0 43 16.5 80t50 64t84.5 42.5t121 15.5q68 0 118 -14.5
t82.5 -40t48 -59t15.5 -71.5q0 -41 -14 -71.5t-31 -51.5q-20 -25 -45 -43zM304 278q-24 -11 -43 -29t-19 -46q0 -24 18 -42t58 -18q41 0 59.5 18t18.5 41q0 29 -25.5 45.5t-66.5 30.5zM332 432q52 35 52 80q0 27 -16.5 42.5t-47.5 15.5t-48.5 -15.5t-17.5 -43.5
q0 -30 21 -47.5t57 -31.5z" />
    <glyph glyph-name="nine.oldstyle" horiz-adv-x="608" 
d="M102 -10q14 -6 32 -10q15 -4 36 -7t47 -3q38 0 63.5 8t42.5 23t26.5 37t15.5 50q-15 -8 -33 -13q-16 -5 -38 -8.5t-50 -3.5q-55 0 -96 17.5t-68 47.5t-40 71t-13 89q0 51 15.5 96.5t48.5 80t84 54.5t123 20q90 0 144 -30.5t83.5 -78.5t39 -107t9.5 -116
q0 -88 -17.5 -161.5t-57.5 -126t-104 -82t-157 -29.5q-38 0 -67 4t-49 9q-24 6 -41 14zM370 233q0 32 -2 59t-8.5 46.5t-20 30t-36.5 10.5q-32 0 -51.5 -21.5t-19.5 -66.5q0 -79 67 -79q15 0 27.5 3t22.5 7q11 4 21 11z" />
    <glyph glyph-name="exclam.aalt" horiz-adv-x="304" 
d="M65 200l-16 366h206l-16 -366h-174zM250 76q0 -38 -26 -62t-74 -24t-73.5 24t-25.5 62t25.5 61.5t73.5 23.5t74 -23.5t26 -61.5z" />
    <glyph glyph-name="numbersign.aalt" horiz-adv-x="640" 
d="M321 0l14 134h-77l-15 -134h-136l14 134h-72v106h84l8 75h-66v107h78l16 144h138l-16 -144h76l16 144h138l-16 -144h86v-107h-98l-9 -75h81v-106h-93l-14 -134h-137zM355 315h-76l-9 -75h77z" />
    <glyph glyph-name="dollar.aalt" horiz-adv-x="514" 
d="M321 564q29 -2 53.5 -6.5t43.5 -9.5q22 -5 41 -12l-39 -140q-18 7 -39 13q-18 5 -43 9.5t-54 4.5q-28 0 -43 -5.5t-15 -19.5q0 -17 21.5 -25.5t53.5 -18.5q34 -11 66 -23t56.5 -31.5t39.5 -49t15 -74.5q0 -30 -7.5 -57t-25.5 -49t-48 -38.5t-74 -24.5v-84h-126v78
q-32 2 -61 7t-51 10q-26 6 -47 14l32 136q21 -9 47 -16q22 -6 50.5 -10.5t60.5 -4.5q36 0 47.5 7t11.5 19q0 17 -14 24t-40 15q-39 12 -74.5 26t-62.5 35.5t-43.5 52.5t-16.5 77q0 66 37.5 109t120.5 57v81h127v-76z" />
    <glyph glyph-name="percent.aalt" horiz-adv-x="727" 
d="M119 0l380 566h101l-380 -566h-101zM180 278q-37 0 -64.5 11t-45.5 30.5t-27 46t-9 56.5q0 69 40 111t106 42q69 0 107 -41.5t38 -107.5q0 -64 -36 -106t-109 -42zM179 375q35 0 35 52q0 50 -34 50q-35 0 -35 -51t34 -51zM548 -10q-37 0 -64.5 11t-45.5 30.5t-27 46
t-9 56.5q0 69 40 111t106 42q69 0 107 -41.5t38 -107.5q0 -64 -36 -106t-109 -42zM547 87q35 0 35 52q0 50 -34 50q-35 0 -35 -51t34 -51z" />
    <glyph glyph-name="ampersand.aalt" horiz-adv-x="673" 
d="M633 228h-32q-13 0 -28 1q3 -10 6 -21q2 -10 4 -22t2 -23q0 -30 -11.5 -61t-41.5 -56t-82.5 -40.5t-134.5 -15.5q-71 0 -120 13.5t-79 36.5t-43.5 53.5t-13.5 64.5q0 42 14.5 69t32.5 43.5t34 24t19 8.5q-1 0 -12.5 6t-24.5 19.5t-24 35.5t-11 54q0 74 59 115.5t195 41.5
q45 0 77.5 -3t52.5 -7q24 -4 39 -10l-21 -132q-20 5 -42 9q-19 3 -43 6t-49 3q-76 0 -76 -42q0 -20 14.5 -29.5t56.5 -9.5h283v-132zM316 231q-39 0 -51 -14t-12 -40q0 -28 14 -40.5t46 -12.5q37 0 61.5 16t24.5 60q0 6 -1 14t-3 17h-79z" />
    <glyph glyph-name="section.aalt" horiz-adv-x="562" 
d="M98 -39q19 -6 44 -10q20 -4 48 -7t60 -3q75 0 75 29q0 20 -20.5 27t-47.5 12q-39 7 -75 19t-64 32t-45 49.5t-17 72.5q0 42 16 69t39 43q-25 20 -40 48.5t-15 68.5q0 75 63 119.5t182 44.5q38 0 68.5 -3t53.5 -7q26 -4 47 -10l-20 -126q-17 3 -38 7q-18 2 -43.5 4.5
t-57.5 2.5q-31 0 -53 -7.5t-22 -22.5q0 -18 21 -25.5t68 -22.5q27 -9 59 -18.5t59 -26t45 -43t18 -69.5q0 -75 -49 -118q22 -18 35.5 -44.5t13.5 -65.5q0 -36 -14.5 -67.5t-45 -54.5t-77 -36.5t-110.5 -13.5q-40 0 -73 3t-57 8q-28 4 -52 11zM247 231q-15 -13 -15 -30
q0 -20 20 -29.5t54 -20.5q23 11 23 31q0 10 -6.5 17t-16.5 12t-23 9l-26 8z" />
    <glyph glyph-name="paragraph.aalt" horiz-adv-x="624" 
d="M430 -122v557h-61v-557h-135v296q-58 0 -97.5 16t-64 43.5t-35 63t-10.5 74.5q0 42 10.5 77.5t35 62t64 41t98.5 14.5h330v-688h-135z" />
    <glyph glyph-name="parenleft.aalt" horiz-adv-x="309" 
d="M154 -125q-32 49 -58 111q-22 54 -39.5 128.5t-17.5 168.5t17.5 168.5t39.5 128.5q26 62 58 110l141 -52q-22 -42 -40 -96q-15 -47 -27 -112t-12 -148t12 -148t27 -111q18 -54 40 -95z" />
    <glyph glyph-name="slash.sc" horiz-adv-x="418" 
d="M29 0l180 566h180l-182 -566h-178z" />
    <glyph glyph-name="parenright.aalt" horiz-adv-x="309" 
d="M14 -72q21 41 39 95q15 46 27.5 111t12.5 148t-12.5 148t-27.5 112q-18 54 -39 96l141 52q31 -48 57 -110q22 -54 40 -128.5t18 -168.5t-18 -168.5t-40 -128.5q-26 -62 -57 -111z" />
    <glyph glyph-name="bracketleft.aalt" horiz-adv-x="357" 
d="M237 519v-462h76v-139h-249v739h249v-138h-76z" />
    <glyph glyph-name="backslash.aalt" horiz-adv-x="418" 
d="M211 0l-182 566h180l180 -566h-178z" />
    <glyph glyph-name="bracketright.aalt" horiz-adv-x="357" 
d="M293 657v-739h-249v139h76v462h-76v138h249z" />
    <glyph glyph-name="braceleft.aalt" horiz-adv-x="351" 
d="M322 529q-32 0 -45.5 -16t-13.5 -53v-60q0 -50 -21.5 -77.5t-56.5 -39.5q35 -14 56.5 -41t21.5 -78v-60q0 -37 13.5 -53t45.5 -16q0 -16 -0.5 -36.5t-0.5 -40.5v-46q-60 0 -103 8.5t-70.5 28t-40.5 52.5t-13 83v64q0 15 -3.5 29t-11.5 25.5t-21.5 18t-33.5 6.5v110
q20 0 33.5 6.5t21.5 18t11.5 25.5t3.5 29v64q0 49 13 82.5t40.5 53t70.5 28t103 8.5v-46q0 -20 0.5 -40.5t0.5 -36.5z" />
    <glyph glyph-name="bar.aalt" horiz-adv-x="346" 
d="M104 -103v757h138v-757h-138z" />
    <glyph glyph-name="braceright.aalt" horiz-adv-x="351" 
d="M29 606q0 22 1 46q60 0 103 -8.5t70.5 -28t40.5 -53t13 -82.5v-64q0 -15 3.5 -29t11.5 -25.5t21.5 -18t33.5 -6.5v-110q-20 0 -33.5 -6.5t-21.5 -18t-11.5 -25.5t-3.5 -29v-64q0 -50 -13 -83t-40.5 -52.5t-70.5 -28t-103 -8.5q-1 23 -1 46v77q32 0 45.5 16t13.5 53v60
q0 51 21.5 78t56.5 41q-35 12 -56.5 39.5t-21.5 77.5v60q0 37 -13.5 53t-45.5 16v77z" />
    <glyph glyph-name="zero.sc" horiz-adv-x="608" 
d="M299 -10q-60 0 -109 18.5t-83.5 55t-53.5 90t-19 124.5q0 74 19.5 130t55.5 93t86 55.5t111 18.5q60 0 109.5 -18.5t85 -55t54.5 -90.5t19 -125q0 -72 -19.5 -127t-55.5 -92.5t-86.5 -57t-113.5 -19.5zM305 140q42 0 58 35t16 111q0 72 -15.5 106t-57.5 34q-45 0 -61 -36
t-16 -106q0 -75 16.5 -109.5t59.5 -34.5z" />
    <glyph glyph-name="one.sc" horiz-adv-x="389" 
d="M126 0v404l-90 -16l-12 133l179 45h117v-566h-194z" />
    <glyph glyph-name="two.sc" horiz-adv-x="535" 
d="M50 0l-11 144q71 31 127 66q24 15 46.5 32.5t40.5 36.5t29 39.5t11 41.5q0 26 -20.5 46t-72.5 20q-25 0 -49 -5t-43 -10q-23 -6 -43 -14l-24 139q28 10 61 19q29 8 66.5 14t82.5 6q115 0 175.5 -47.5t60.5 -138.5q0 -62 -24 -108.5t-53.5 -79t-55 -49.5t-28.5 -18l51 6
h102v-140h-429z" />
    <glyph glyph-name="three.sc" horiz-adv-x="524" 
d="M43 154q17 -7 39 -11q19 -5 45 -8t58 -3q44 0 72 9.5t28 35.5q0 8 -3.5 15.5t-14.5 13.5t-30.5 9.5t-50.5 3.5q-12 0 -23.5 -0.5t-19.5 -1.5q-10 -1 -18 -1v133q8 -1 18 -2q8 -1 19 -1h24q44 0 67.5 8.5t23.5 34.5q0 24 -23.5 34t-72.5 10q-26 0 -49.5 -2.5t-41.5 -4.5
q-21 -3 -39 -6l-17 130q25 7 56 12q26 5 61.5 9t78.5 4q241 0 241 -148q0 -42 -20 -76t-62 -53q40 -13 65 -44.5t25 -87.5q0 -48 -20 -81.5t-55.5 -54.5t-84 -30.5t-106.5 -9.5q-41 0 -74.5 3t-58.5 8q-29 5 -52 12z" />
    <glyph glyph-name="four.sc" horiz-adv-x="570" 
d="M24 232l220 334h247v-332h55v-132h-55v-102h-194v102h-257zM297 234v120l4 68l-122 -188h118z" />
    <glyph glyph-name="five.sc" horiz-adv-x="521" 
d="M53 151q19 -6 40 -10q18 -4 42 -6.5t52 -2.5q36 0 57.5 5.5t32.5 14t14.5 18.5t3.5 19q0 18 -9 29t-24 17t-35 8t-42 2q-25 0 -48.5 -1.5t-42.5 -3.5q-22 -2 -42 -4l12 330h392v-143h-214l-2 -60h12q5 0 12 0.5t13 0.5q39 0 77 -8t68 -27.5t48.5 -54t18.5 -86.5
q0 -30 -9 -64.5t-38.5 -64.5t-85 -49.5t-149.5 -19.5q-38 0 -68 3t-52 7q-26 4 -45 10z" />
    <glyph glyph-name="six.sc" horiz-adv-x="548" 
d="M457 414q-13 5 -30 9q-14 4 -33.5 7t-43.5 3q-47 0 -79 -16t-40 -58q10 6 24 10q12 4 30 7t43 3q93 0 144.5 -48t51.5 -133q0 -46 -16 -84t-46.5 -65.5t-75 -43t-102.5 -15.5q-73 0 -121.5 23t-77 60.5t-40 86.5t-11.5 102q0 67 17.5 124.5t54.5 99.5t94.5 65.5
t137.5 23.5q34 0 60.5 -3.5t44.5 -8.5q21 -5 37 -12zM227 225q0 -43 10.5 -70t41.5 -27q19 0 35 12.5t16 46.5q0 31 -12 43t-36 12q-12 0 -21.5 -3t-17.5 -6q-9 -4 -16 -8z" />
    <glyph glyph-name="seven.sc" horiz-adv-x="473" 
d="M26 566h413l5 -132l-183 -434h-206l148 361l30 55h-207v150z" />
    <glyph glyph-name="eight.sc" horiz-adv-x="581" 
d="M458 294q25 -11 44 -29q17 -16 31 -43t14 -67q0 -46 -20.5 -77.5t-56.5 -51t-84 -28t-103 -8.5q-54 0 -99.5 8t-79 27t-52 48.5t-18.5 73.5q0 40 13.5 66t30.5 42q19 18 44 28q-21 12 -38 30q-14 16 -26 40t-12 59q0 40 18 70.5t50.5 51t78 31t101.5 10.5q54 0 99 -10
t76.5 -29t49 -46.5t17.5 -63.5q0 -32 -12.5 -56.5t-26.5 -41.5q-18 -19 -39 -34zM279 222q-21 -9 -35.5 -22.5t-14.5 -34.5q0 -19 14.5 -33.5t46.5 -14.5t47 15t15 33q0 23 -21 34.5t-52 22.5zM301 346q20 11 33 25.5t13 34.5t-15 31t-39 11t-41 -11t-17 -33q0 -23 20 -36.5
t46 -21.5z" />
    <glyph glyph-name="nine.sc" horiz-adv-x="548" 
d="M91 151q12 -6 29 -10q14 -4 34 -6.5t44 -2.5q47 0 79 16t40 58q-10 -6 -24 -10q-12 -4 -30 -7t-43 -3q-93 0 -144.5 49t-51.5 134q0 46 16 84t46.5 65t75 42t102.5 15q73 0 121.5 -23t77 -60.5t40 -87t11.5 -101.5q0 -67 -17.5 -124.5t-54.5 -99.5t-94.5 -65.5
t-137.5 -23.5q-34 0 -60.5 3.5t-44.5 8.5q-21 5 -37 12zM321 340q0 43 -10.5 70t-41.5 27q-19 0 -35 -12.5t-16 -46.5q0 -31 12 -43t36 -12q11 0 21 2.5t18 5.5q9 4 16 9z" />
    <glyph glyph-name="question.aalt" horiz-adv-x="520" 
d="M129 201q-6 25 -6 47q0 32 11.5 54t28.5 36.5t37.5 23.5t37.5 16t28.5 13.5t11.5 16.5q0 24 -74 24q-32 0 -57.5 -3.5t-43.5 -7.5q-21 -4 -38 -10l-31 131q25 9 58 16q29 6 70 11.5t94 5.5q65 0 109 -10t70.5 -29t37.5 -45t11 -59q0 -38 -12 -62t-30.5 -40t-39.5 -26.5
t-39.5 -21t-30.5 -23.5t-12 -34q0 -11 1 -16l2 -8h-194zM330 76q0 -46 -28 -66t-76 -20t-76.5 20t-28.5 66t28.5 65.5t76.5 19.5t76 -19.5t28 -65.5z" />
    <glyph glyph-name="a.aalt" horiz-adv-x="663" 
d="M463 566l186 -566h-201l-27 94h-179l-27 -94h-201l185 566h264zM313 341l-33 -114h103l-33 114l-18 71z" />
    <glyph glyph-name="b.aalt" horiz-adv-x="642" 
d="M59 0v566h293q46 0 88.5 -6t75 -22t51.5 -44.5t19 -73.5q0 -38 -17 -72t-56 -51q45 -15 66 -48t21 -85q0 -85 -66 -124.5t-188 -39.5h-287zM323 136q47 0 64.5 11t17.5 38q0 28 -18 37t-64 9h-70v-95h70zM325 340q36 0 54 9t18 38q0 30 -19.5 37.5t-54.5 7.5h-70v-92h72z
" />
    <glyph glyph-name="c.aalt" horiz-adv-x="573" 
d="M230 283q0 -43 13.5 -70t36 -42t50.5 -20t58 -5q25 0 45.5 2.5t34.5 5.5q17 4 30 9l23 -149q-18 -7 -42 -12q-20 -5 -49 -8.5t-65 -3.5q-86 0 -148 20t-102.5 57.5t-59.5 91.5t-19 123q0 138 82.5 215.5t246.5 77.5q36 0 65 -3.5t49 -8.5q24 -5 42 -12l-23 -149
q-13 4 -30 8q-14 3 -35 6t-46 3q-29 0 -57.5 -5t-50.5 -20t-35.5 -41.5t-13.5 -69.5z" />
    <glyph glyph-name="d.aalt" horiz-adv-x="666" 
d="M59 566h265q91 0 150 -22t93.5 -60.5t48.5 -90.5t14 -111t-14.5 -110t-49.5 -89.5t-94 -60.5t-148 -22h-265v566zM331 154q54 0 79 32.5t25 95.5q0 65 -24 97.5t-82 32.5h-76v-258h78z" />
    <glyph glyph-name="e.aalt" horiz-adv-x="583" 
d="M59 0v566h470v-154h-276v-62h237v-134h-237v-62h276v-154h-470z" />
    <glyph glyph-name="f.aalt" horiz-adv-x="564" 
d="M253 181v-181h-194v566h461v-154h-267v-93h228v-138h-228z" />
    <glyph glyph-name="g.aalt" horiz-adv-x="612" 
d="M230 281q0 -42 13 -68.5t34.5 -42t49.5 -21t58 -5.5h12v133h166v-259q-26 -8 -58 -14q-27 -5 -63 -9.5t-78 -4.5q-85 0 -147 21t-102 58.5t-59.5 90.5t-19.5 117q0 71 23 126.5t66.5 93.5t106.5 58t143 20q36 0 67.5 -3.5t55.5 -7.5q27 -5 51 -11l-25 -149q-15 4 -34 8
q-17 3 -40 6t-51 3q-33 0 -63.5 -5.5t-54 -20.5t-37.5 -42.5t-14 -71.5z" />
    <glyph glyph-name="h.aalt" horiz-adv-x="688" 
d="M434 0v203h-181v-203h-194v566h194v-209h181v209h195v-566h-195z" />
    <glyph glyph-name="i.aalt" horiz-adv-x="312" 
d="M59 0v566h194v-566h-194z" />
    <glyph glyph-name="j.aalt" horiz-adv-x="440" 
d="M192 566h194v-348q0 -47 -11.5 -88t-38.5 -72.5t-71.5 -49.5t-109.5 -18q-33 0 -57 3.5t-41 8.5q-19 5 -33 13l22 139q7 -4 18 -7q9 -2 21 -4t27 -2q35 0 57.5 16t22.5 58v351z" />
    <glyph glyph-name="k.aalt" horiz-adv-x="653" 
d="M410 0l-130 205h-27v-205h-194v566h194v-231q18 4 23 7q4 1 4 2q5 7 14 20t20 30t23 36.5t24 38.5q28 45 60 97h210q-2 -7 -12.5 -25t-26 -42.5t-35 -53.5t-39.5 -58t-38.5 -56t-33.5 -47l190 -284h-226z" />
    <glyph glyph-name="l.aalt" horiz-adv-x="522" 
d="M59 0v566h194v-410h220v-156h-414z" />
    <glyph glyph-name="m.aalt" horiz-adv-x="836" 
d="M322 566l90 -292l102 292h234l44 -566h-196l-16 279v67l-87 -255h-155l-82 254v-66l-16 -279h-196l44 566h234z" />
    <glyph glyph-name="n.aalt" horiz-adv-x="688" 
d="M415 0l-178 307l8 -81v-226h-186v566h210l184 -316l-10 111v205h186v-566h-214z" />
    <glyph glyph-name="o.aalt" horiz-adv-x="678" 
d="M334 -10q-72 0 -127.5 20.5t-93.5 58t-57.5 91t-19.5 119.5q0 69 20.5 123.5t60 93t96 59t128.5 20.5q71 0 127 -20t94.5 -57.5t59 -91t20.5 -120.5t-20.5 -121.5t-60 -93.5t-97 -60t-130.5 -21zM340 144q56 0 81.5 36.5t25.5 104.5q0 65 -24.5 100.5t-81.5 35.5
q-58 0 -84 -37t-26 -101q0 -66 26.5 -102.5t82.5 -36.5z" />
    <glyph glyph-name="p.aalt" horiz-adv-x="629" 
d="M59 0v566h281q73 0 121 -16.5t76 -45t39 -67t11 -81.5q0 -40 -11 -78.5t-39 -68.5t-75.5 -48.5t-120.5 -18.5h-88v-142h-194zM313 289q49 0 64 17.5t15 49.5t-15 47t-64 15h-60v-129h60z" />
    <glyph glyph-name="q.aalt" horiz-adv-x="678" 
d="M522 -161q-14 -5 -40.5 -8.5t-49.5 -3.5q-53 0 -85.5 15.5t-50 38t-23.5 48t-6 45.5v10.5t1 10.5q-113 17 -172.5 91.5t-59.5 192.5q0 69 20.5 123.5t60 93t96 59t128.5 20.5q71 0 127 -20t94.5 -57.5t59 -91t20.5 -120.5q0 -61 -17 -112t-50 -88.5t-80.5 -61.5
t-108.5 -31q5 -20 24.5 -29t48.5 -9q12 0 21.5 1t17.5 3t15 4zM340 144q56 0 81.5 36.5t25.5 104.5q0 65 -24.5 100.5t-81.5 35.5q-58 0 -84 -37t-26 -101q0 -66 26.5 -102.5t82.5 -36.5z" />
    <glyph glyph-name="r.aalt" horiz-adv-x="651" 
d="M59 0v566h293q73 0 121 -16t76 -43.5t39 -65t11 -80.5q0 -54 -20.5 -98t-74.5 -70l107 -193h-210l-88 166h-60v-166h-194zM325 298q49 0 64 15.5t15 47.5t-15 44.5t-64 12.5h-72v-120h72z" />
    <glyph glyph-name="s.aalt" horiz-adv-x="559" 
d="M78 178q21 -12 47 -21q23 -8 54.5 -14.5t71.5 -6.5q32 0 50.5 5.5t18.5 18.5t-21.5 20.5t-66.5 21.5q-36 11 -71 25t-62.5 35.5t-45 54t-17.5 80.5t18.5 82t52 55.5t80.5 31t105 9.5q53 0 92 -6.5t65 -14.5q31 -9 53 -20l-42 -141q-16 10 -39 18q-20 7 -48.5 12.5
t-66.5 5.5q-34 0 -52.5 -5.5t-18.5 -19.5q0 -16 26.5 -23.5t84.5 -25.5q37 -12 69.5 -26t56.5 -34.5t37.5 -50.5t13.5 -73q0 -51 -19 -85.5t-54 -55.5t-84 -30.5t-110 -9.5q-57 0 -98 6t-67 14q-31 9 -51 20z" />
    <glyph glyph-name="t.aalt" horiz-adv-x="570" 
d="M188 0v410h-169v156h532v-156h-169v-410h-194z" />
    <glyph glyph-name="u.aalt" horiz-adv-x="667" 
d="M419 566h194v-329q0 -121 -69.5 -184t-210.5 -63t-210 63t-69 184v329h194v-314q0 -23 3.5 -43t13 -34.5t26 -22.5t42.5 -8t42.5 8t26.5 22.5t13.5 34.5t3.5 43v314z" />
    <glyph glyph-name="v.aalt" horiz-adv-x="632" 
d="M208 566l89 -341l19 -75l19 75l89 341h199l-174 -566h-266l-174 566h199z" />
    <glyph glyph-name="w.aalt" horiz-adv-x="896" 
d="M212 566l53 -306l11 -75l15 75l71 306h172l70 -304l15 -77l12 78l53 303h203l-137 -566h-215l-69 264l-18 79l-18 -79l-69 -264h-215l-137 566h203z" />
    <glyph glyph-name="x.aalt" horiz-adv-x="682" 
d="M443 0l-101 151l-106 -151h-215l196 284l-196 282h210l113 -164l104 164h211l-195 -294l197 -272h-218z" />
    <glyph glyph-name="y.aalt" horiz-adv-x="628" 
d="M214 566l82 -182l19 -49l18 50l79 181h207l-202 -381v-185h-205v183l-203 383h205z" />
    <glyph glyph-name="z.aalt" horiz-adv-x="603" 
d="M57 566h494v-134l-250 -281l43 3h213v-154h-511v134l252 282l-40 -4h-201v154z" />
    <glyph glyph-name="agrave.aalt" horiz-adv-x="663" 
d="M247 635l-132 179h204l89 -179h-161zM463 566l186 -566h-201l-27 94h-179l-27 -94h-201l185 566h264zM313 341l-33 -114h103l-33 114l-18 71z" />
    <glyph glyph-name="aacute.aalt" horiz-adv-x="663" 
d="M255 635l89 179h204l-132 -179h-161zM463 566l186 -566h-201l-27 94h-179l-27 -94h-201l185 566h264zM313 341l-33 -114h103l-33 114l-18 71z" />
    <glyph glyph-name="acircumflex.aalt" horiz-adv-x="663" 
d="M399 814l128 -179h-149l-54 78l-54 -78h-149l128 179h150zM463 566l186 -566h-201l-27 94h-179l-27 -94h-201l185 566h264zM313 341l-33 -114h103l-33 114l-18 71z" />
    <glyph glyph-name="atilde.aalt" horiz-adv-x="663" 
d="M125 635q-1 5 -2 11q-1 5 -1.5 12t-0.5 17q0 27 7.5 52.5t22.5 45t38 31t54 11.5q22 0 41.5 -7.5t35 -16.5t28 -16.5t20.5 -7.5q20 0 20 23q0 6 -2 14q-1 4 -1 8h133l2 -14q1 -6 1.5 -13t0.5 -13q0 -27 -7.5 -52.5t-22.5 -45t-38 -31t-54 -11.5q-23 0 -41.5 7.5t-34 16.5
t-28 16.5t-22.5 7.5q-19 0 -19 -24q0 -11 1 -15t2 -6h-133zM463 566l186 -566h-201l-27 94h-179l-27 -94h-201l185 566h264zM313 341l-33 -114h103l-33 114l-18 71z" />
    <glyph glyph-name="adieresis.aalt" horiz-adv-x="663" 
d="M311 727q0 -40 -21.5 -66t-72.5 -26q-50 0 -72 25t-22 67q0 40 22 65.5t72 25.5q51 0 72.5 -25.5t21.5 -65.5zM543 727q0 -40 -22 -66t-72 -26q-51 0 -72.5 25t-21.5 67q0 40 21.5 65.5t72.5 25.5q50 0 72 -25.5t22 -65.5zM463 566l186 -566h-201l-27 94h-179l-27 -94
h-201l185 566h264zM313 341l-33 -114h103l-33 114l-18 71z" />
    <glyph glyph-name="amacron.aalt" horiz-adv-x="663" 
d="M154 637v123h349v-123h-349zM463 566l186 -566h-201l-27 94h-179l-27 -94h-201l185 566h264zM313 341l-33 -114h103l-33 114l-18 71z" />
    <glyph glyph-name="abreve.aalt" horiz-adv-x="663" 
d="M507 823q0 -37 -10.5 -70.5t-32 -59t-56 -41t-82.5 -15.5q-44 0 -74.5 12t-51 30t-31.5 40t-16.5 43t-6.5 37.5t-1 23.5h127q0 -3 1 -13t6.5 -21t16 -19.5t30.5 -8.5q26 0 40 18.5t14 43.5h127zM463 566l186 -566h-201l-27 94h-179l-27 -94h-201l185 566h264zM313 341
l-33 -114h103l-33 114l-18 71z" />
    <glyph glyph-name="aring.aalt" horiz-adv-x="663" 
d="M323 634q-71 0 -104.5 37t-33.5 93q0 66 39.5 102t106.5 36q69 0 104 -36t35 -98q0 -60 -34.5 -97t-112.5 -37zM328 727q37 0 37 43q0 17 -8 28t-27 11q-20 0 -30 -11.5t-10 -29.5q0 -19 9 -30t29 -11zM463 566l186 -566h-201l-27 94h-179l-27 -94h-201l185 566h264z
M313 341l-33 -114h103l-33 114l-18 71z" />
    <glyph glyph-name="aogonek.aalt" horiz-adv-x="663" 
d="M649 0q-42 -9 -64.5 -29.5t-22.5 -37.5q0 -11 10.5 -18.5t33.5 -7.5q11 0 23.5 2t28.5 6l4 -109q-58 -23 -121 -23q-29 0 -55 5.5t-46 16.5t-32 28.5t-12 40.5q0 38 27.5 70.5t69.5 55.5h156zM463 566l186 -566h-201l-27 94h-179l-27 -94h-201l185 566h264zM313 341
l-33 -114h103l-33 114l-18 71z" />
    <glyph glyph-name="ae.aalt" horiz-adv-x="930" 
d="M876 566v-154h-271v-62h232v-134h-232v-62h271v-154h-475v87h-144l-37 -87h-206l265 566h597zM315 220h86v198z" />
    <glyph glyph-name="cacute.aalt" horiz-adv-x="573" 
d="M230 637l89 179h204l-132 -179h-161zM230 283q0 -43 13.5 -70t36 -42t50.5 -20t58 -5q25 0 45.5 2.5t34.5 5.5q17 4 30 9l23 -149q-18 -7 -42 -12q-20 -5 -49 -8.5t-65 -3.5q-86 0 -148 20t-102.5 57.5t-59.5 91.5t-19 123q0 138 82.5 215.5t246.5 77.5q36 0 65 -3.5
t49 -8.5q24 -5 42 -12l-23 -149q-13 4 -30 8q-14 3 -35 6t-46 3q-29 0 -57.5 -5t-50.5 -20t-35.5 -41.5t-13.5 -69.5z" />
    <glyph glyph-name="ccircumflex.aalt" horiz-adv-x="571" 
d="M377 635l-54 78l-54 -78h-149l128 179h150l128 -179h-149zM230 283q0 -43 13.5 -70t36 -42t50.5 -20t58 -5q25 0 45.5 2.5t34.5 5.5q17 4 30 9l23 -149q-18 -7 -42 -12q-20 -5 -49 -8.5t-65 -3.5q-86 0 -148 20t-102.5 57.5t-59.5 91.5t-19 123q0 138 82.5 215.5
t246.5 77.5q36 0 65 -3.5t49 -8.5q24 -5 42 -12l-23 -149q-13 4 -30 8q-14 3 -35 6t-46 3q-29 0 -57.5 -5t-50.5 -20t-35.5 -41.5t-13.5 -69.5z" />
    <glyph glyph-name="ccaron.aalt" horiz-adv-x="571" 
d="M249 635l-128 179h149l54 -78l54 78h149l-128 -179h-150zM230 283q0 -43 13.5 -70t36 -42t50.5 -20t58 -5q25 0 45.5 2.5t34.5 5.5q17 4 30 9l23 -149q-18 -7 -42 -12q-20 -5 -49 -8.5t-65 -3.5q-86 0 -148 20t-102.5 57.5t-59.5 91.5t-19 123q0 138 82.5 215.5
t246.5 77.5q36 0 65 -3.5t49 -8.5q24 -5 42 -12l-23 -149q-13 4 -30 8q-14 3 -35 6t-46 3q-29 0 -57.5 -5t-50.5 -20t-35.5 -41.5t-13.5 -69.5z" />
    <glyph glyph-name="cdotaccent.aalt" horiz-adv-x="571" 
d="M430 734q0 -42 -24 -69.5t-80 -27.5t-80.5 26.5t-24.5 70.5q0 42 24.5 69t80.5 27t80 -27t24 -69zM230 283q0 -43 13.5 -70t36 -42t50.5 -20t58 -5q25 0 45.5 2.5t34.5 5.5q17 4 30 9l23 -149q-18 -7 -42 -12q-20 -5 -49 -8.5t-65 -3.5q-86 0 -148 20t-102.5 57.5
t-59.5 91.5t-19 123q0 138 82.5 215.5t246.5 77.5q36 0 65 -3.5t49 -8.5q24 -5 42 -12l-23 -149q-13 4 -30 8q-14 3 -35 6t-46 3q-29 0 -57.5 -5t-50.5 -20t-35.5 -41.5t-13.5 -69.5z" />
    <glyph glyph-name="ccedilla.aalt" horiz-adv-x="571" 
d="M230 283q0 -43 13.5 -70t36 -42t50.5 -20t58 -5q25 0 45.5 2.5t34.5 5.5q17 4 30 9l23 -149q-17 -6 -38 -11q-18 -5 -44.5 -8.5t-58.5 -4.5l-6 -29l12 1q48 0 81.5 -21t33.5 -72q0 -22 -8 -41.5t-26 -33.5t-47.5 -22.5t-72.5 -8.5q-23 0 -40 2t-29 4q-14 3 -24 7l15 80
q6 -3 16 -5q17 -5 44 -5q20 0 39.5 5.5t19.5 20.5q0 14 -16.5 18.5t-39.5 4.5q-12 0 -24 -1t-21 -2q-11 -1 -21 -2l26 104q-134 16 -195 90.5t-61 197.5q0 138 82.5 215.5t246.5 77.5q36 0 65 -3.5t49 -8.5q24 -5 42 -12l-23 -149q-13 4 -30 8q-14 3 -35 6t-46 3
q-29 0 -57.5 -5t-50.5 -20t-35.5 -41.5t-13.5 -69.5z" />
    <glyph glyph-name="dcaron.aalt" horiz-adv-x="666" 
d="M230 635l-128 179h149l54 -78l54 78h149l-128 -179h-150zM59 566h265q91 0 150 -22t93.5 -60.5t48.5 -90.5t14 -111t-14.5 -110t-49.5 -89.5t-94 -60.5t-148 -22h-265v566zM331 154q54 0 79 32.5t25 95.5q0 65 -24 97.5t-82 32.5h-76v-258h78z" />
    <glyph glyph-name="dcroat.aalt" horiz-adv-x="666" 
d="M8 353h51v213h265q91 0 150 -22t93.5 -60.5t48.5 -90.5t14 -111t-14.5 -110t-49.5 -89.5t-94 -60.5t-148 -22h-265v215h-51v138zM331 154q54 0 79 32.5t25 95.5q0 65 -24 97.5t-82 32.5h-76v-59h82v-138h-82v-61h78z" />
    <glyph glyph-name="eth.aalt" horiz-adv-x="666" 
d="M8 353h51v213h265q91 0 150 -22t93.5 -60.5t48.5 -90.5t14 -111t-14.5 -110t-49.5 -89.5t-94 -60.5t-148 -22h-265v215h-51v138zM331 154q54 0 79 32.5t25 95.5q0 65 -24 97.5t-82 32.5h-76v-59h82v-138h-82v-61h78z" />
    <glyph glyph-name="egrave.aalt" horiz-adv-x="583" 
d="M229 635l-132 179h204l89 -179h-161zM59 0v566h470v-154h-276v-62h237v-134h-237v-62h276v-154h-470z" />
    <glyph glyph-name="eacute.aalt" horiz-adv-x="583" 
d="M209 635l89 179h204l-132 -179h-161zM59 0v566h470v-154h-276v-62h237v-134h-237v-62h276v-154h-470z" />
    <glyph glyph-name="ecircumflex.aalt" horiz-adv-x="583" 
d="M371 814l128 -179h-149l-54 78l-54 -78h-149l128 179h150zM59 0v566h470v-154h-276v-62h237v-134h-237v-62h276v-154h-470z" />
    <glyph glyph-name="ecaron.aalt" horiz-adv-x="583" 
d="M228 635l-128 179h149l54 -78l54 78h149l-128 -179h-150zM59 0v566h470v-154h-276v-62h237v-134h-237v-62h276v-154h-470z" />
    <glyph glyph-name="edieresis.aalt" horiz-adv-x="583" 
d="M272 727q0 -40 -21.5 -66t-72.5 -26q-50 0 -72 25t-22 67q0 40 22 65.5t72 25.5q51 0 72.5 -25.5t21.5 -65.5zM504 727q0 -40 -22 -66t-72 -26q-51 0 -72.5 25t-21.5 67q0 40 21.5 65.5t72.5 25.5q50 0 72 -25.5t22 -65.5zM59 0v566h470v-154h-276v-62h237v-134h-237v-62
h276v-154h-470z" />
    <glyph glyph-name="emacron.aalt" horiz-adv-x="583" 
d="M116 637v123h349v-123h-349zM59 0v566h470v-154h-276v-62h237v-134h-237v-62h276v-154h-470z" />
    <glyph glyph-name="ebreve.aalt" horiz-adv-x="583" 
d="M474 823q0 -37 -10.5 -70.5t-32 -59t-56 -41t-82.5 -15.5q-44 0 -74.5 12t-51 30t-31.5 40t-16.5 43t-6.5 37.5t-1 23.5h127q0 -3 1 -13t6.5 -21t16 -19.5t30.5 -8.5q26 0 40 18.5t14 43.5h127zM59 0v566h470v-154h-276v-62h237v-134h-237v-62h276v-154h-470z" />
    <glyph glyph-name="edotaccent.aalt" horiz-adv-x="583" 
d="M406 734q0 -42 -24 -69.5t-80 -27.5t-80.5 26.5t-24.5 70.5q0 42 24.5 69t80.5 27t80 -27t24 -69zM59 0v566h470v-154h-276v-62h237v-134h-237v-62h276v-154h-470z" />
    <glyph glyph-name="eogonek.aalt" horiz-adv-x="583" 
d="M529 0q-42 -9 -64.5 -29.5t-22.5 -37.5q0 -11 10.5 -18.5t33.5 -7.5q11 0 23.5 2t28.5 6l4 -109q-58 -23 -121 -23q-29 0 -55 5.5t-46 16.5t-32 28.5t-12 40.5q0 38 27.5 70.5t69.5 55.5h-314v566h470v-154h-276v-62h237v-134h-237v-62h276v-154v0z" />
    <glyph glyph-name="gcircumflex.aalt" horiz-adv-x="612" 
d="M418 814l128 -179h-149l-54 78l-54 -78h-149l128 179h150zM230 281q0 -42 13 -68.5t34.5 -42t49.5 -21t58 -5.5h12v133h166v-259q-26 -8 -58 -14q-27 -5 -63 -9.5t-78 -4.5q-85 0 -147 21t-102 58.5t-59.5 90.5t-19.5 117q0 71 23 126.5t66.5 93.5t106.5 58t143 20
q36 0 67.5 -3.5t55.5 -7.5q27 -5 51 -11l-25 -149q-15 4 -34 8q-17 3 -40 6t-51 3q-33 0 -63.5 -5.5t-54 -20.5t-37.5 -42.5t-14 -71.5z" />
    <glyph glyph-name="gbreve.aalt" horiz-adv-x="612" 
d="M230 281q0 -42 13 -68.5t34.5 -42t49.5 -21t58 -5.5h12v133h166v-259q-26 -8 -58 -14q-27 -5 -63 -9.5t-78 -4.5q-85 0 -147 21t-102 58.5t-59.5 90.5t-19.5 117q0 71 23 126.5t66.5 93.5t106.5 58t143 20q36 0 67.5 -3.5t55.5 -7.5q27 -5 51 -11l-25 -149q-15 4 -34 8
q-17 3 -40 6t-51 3q-33 0 -63.5 -5.5t-54 -20.5t-37.5 -42.5t-14 -71.5zM521 823q0 -37 -10.5 -70.5t-32 -59t-56 -41t-82.5 -15.5q-44 0 -74.5 12t-51 30t-31.5 40t-16.5 43t-6.5 37.5t-1 23.5h127q0 -3 1 -13t6.5 -21t16 -19.5t30.5 -8.5q26 0 40 18.5t14 43.5h127z" />
    <glyph glyph-name="gdotaccent.aalt" horiz-adv-x="612" 
d="M230 281q0 -42 13 -68.5t34.5 -42t49.5 -21t58 -5.5h12v133h166v-259q-26 -8 -58 -14q-27 -5 -63 -9.5t-78 -4.5q-85 0 -147 21t-102 58.5t-59.5 90.5t-19.5 117q0 71 23 126.5t66.5 93.5t106.5 58t143 20q36 0 67.5 -3.5t55.5 -7.5q27 -5 51 -11l-25 -149q-15 4 -34 8
q-17 3 -40 6t-51 3q-33 0 -63.5 -5.5t-54 -20.5t-37.5 -42.5t-14 -71.5zM456 734q0 -42 -24 -69.5t-80 -27.5t-80.5 26.5t-24.5 70.5q0 42 24.5 69t80.5 27t80 -27t24 -69z" />
    <glyph glyph-name="gcommaaccent.aalt" horiz-adv-x="612" 
d="M268 -327q7 3 18.5 13.5t23.5 24t21.5 28.5t11.5 27q-39 2 -53.5 27.5t-14.5 57.5q0 38 22 63t75 25q39 0 67.5 -25.5t28.5 -83.5q0 -44 -16.5 -80.5t-37.5 -63t-41 -42t-28 -18.5zM230 281q0 -42 13 -68.5t34.5 -42t49.5 -21t58 -5.5h12v133h166v-259q-26 -8 -58 -14
q-27 -5 -63 -9.5t-78 -4.5q-85 0 -147 21t-102 58.5t-59.5 90.5t-19.5 117q0 71 23 126.5t66.5 93.5t106.5 58t143 20q36 0 67.5 -3.5t55.5 -7.5q27 -5 51 -11l-25 -149q-15 4 -34 8q-17 3 -40 6t-51 3q-33 0 -63.5 -5.5t-54 -20.5t-37.5 -42.5t-14 -71.5z" />
    <glyph glyph-name="hcircumflex.aalt" horiz-adv-x="688" 
d="M411 814l128 -179h-149l-54 78l-54 -78h-149l128 179h150zM434 0v203h-181v-203h-194v566h194v-209h181v209h195v-566h-195z" />
    <glyph glyph-name="hbar.aalt" horiz-adv-x="688" 
d="M434 0v203h-181v-203h-194v425h-38v79h38v62h194v-62h181v62h195v-62h38v-79h-38v-425h-195zM434 357v68h-181v-68h181z" />
    <glyph glyph-name="igrave.aalt" horiz-adv-x="312" 
d="M71 635l-132 179h204l89 -179h-161zM59 0v566h194v-566h-194z" />
    <glyph glyph-name="iacute.aalt" horiz-adv-x="312" 
d="M66 635l89 179h204l-132 -179h-161zM59 0v566h194v-566h-194z" />
    <glyph glyph-name="ibreve.aalt" horiz-adv-x="312" 
d="M337 823q0 -37 -10.5 -70.5t-32 -59t-56 -41t-82.5 -15.5q-44 0 -74.5 12t-51 30t-31.5 40t-16.5 43t-6.5 37.5t-1 23.5h127q0 -3 1 -13t6.5 -21t16 -19.5t30.5 -8.5q26 0 40 18.5t14 43.5h127zM59 0v566h194v-566h-194z" />
    <glyph glyph-name="icircumflex.aalt" horiz-adv-x="312" 
d="M231 814l128 -179h-149l-54 78l-54 -78h-149l128 179h150zM59 0v566h194v-566h-194z" />
    <glyph glyph-name="itilde.aalt" horiz-adv-x="312" 
d="M-41 635q-1 5 -2 11q-1 5 -1.5 12t-0.5 17q0 27 7.5 52.5t22.5 45t38 31t54 11.5q22 0 41.5 -7.5t35 -16.5t28 -16.5t20.5 -7.5q20 0 20 23q0 6 -2 14q-1 4 -1 8h133l2 -14q1 -6 1.5 -13t0.5 -13q0 -27 -7.5 -52.5t-22.5 -45t-38 -31t-54 -11.5q-23 0 -41.5 7.5t-34 16.5
t-28 16.5t-22.5 7.5q-19 0 -19 -24q0 -11 1 -15t2 -6h-133zM59 0v566h194v-566h-194z" />
    <glyph glyph-name="idieresis.aalt" horiz-adv-x="312" 
d="M134 727q0 -40 -21.5 -66t-72.5 -26q-50 0 -72 25t-22 67q0 40 22 65.5t72 25.5q51 0 72.5 -25.5t21.5 -65.5zM366 727q0 -40 -22 -66t-72 -26q-51 0 -72.5 25t-21.5 67q0 40 21.5 65.5t72.5 25.5q50 0 72 -25.5t22 -65.5zM59 0v566h194v-566h-194z" />
    <glyph glyph-name="imacron.aalt" horiz-adv-x="312" 
d="M-18 637v123h349v-123h-349zM59 0v566h194v-566h-194z" />
    <glyph glyph-name="glyph522" horiz-adv-x="312" 
d="M260 734q0 -42 -24 -69.5t-80 -27.5t-80.5 26.5t-24.5 70.5q0 42 24.5 69t80.5 27t80 -27t24 -69zM59 0v566h194v-566h-194z" />
    <glyph glyph-name="iogonek.aalt" horiz-adv-x="312" 
d="M253 0q-42 -9 -64.5 -29.5t-22.5 -37.5q0 -11 10.5 -18.5t33.5 -7.5q11 0 23.5 2t28.5 6l4 -109q-58 -23 -121 -23q-29 0 -55 5.5t-46 16.5t-32 28.5t-12 40.5q0 38 27.5 70.5t69.5 55.5h-38v566h194v-566v0z" />
    <glyph glyph-name="jcircumflex.aalt" horiz-adv-x="440" 
d="M359 814l128 -179h-149l-54 78l-54 -78h-149l128 179h150zM192 566h194v-348q0 -47 -11.5 -88t-38.5 -72.5t-71.5 -49.5t-109.5 -18q-33 0 -57 3.5t-41 8.5q-19 5 -33 13l22 139q7 -4 18 -7q9 -2 21 -4t27 -2q35 0 57.5 16t22.5 58v351z" />
    <glyph glyph-name="kcommaaccent.aalt" horiz-adv-x="653" 
d="M240 -327q7 3 18.5 13.5t23.5 24t21.5 28.5t11.5 27q-39 2 -53.5 27.5t-14.5 57.5q0 38 22 63t75 25q39 0 67.5 -25.5t28.5 -83.5q0 -44 -16.5 -80.5t-37.5 -63t-41 -42t-28 -18.5zM410 0l-130 205h-27v-205h-194v566h194v-231q18 4 23 7q4 1 4 2q5 7 14 20t20 30
t23 36.5t24 38.5q28 45 60 97h210q-2 -7 -12.5 -25t-26 -42.5t-35 -53.5t-39.5 -58t-38.5 -56t-33.5 -47l190 -284h-226z" />
    <glyph glyph-name="lacute.aalt" horiz-adv-x="522" 
d="M63 635l89 179h204l-132 -179h-161zM59 0v566h194v-410h220v-156h-414z" />
    <glyph glyph-name="lcaron.aalt" horiz-adv-x="522" 
d="M77 635l-128 179h149l54 -78l54 78h149l-128 -179h-150zM59 0v566h194v-410h220v-156h-414z" />
    <glyph glyph-name="lcommaaccent.aalt" horiz-adv-x="522" 
d="M182 -327q7 3 18.5 13.5t23.5 24t21.5 28.5t11.5 27q-39 2 -53.5 27.5t-14.5 57.5q0 38 22 63t75 25q39 0 67.5 -25.5t28.5 -83.5q0 -44 -16.5 -80.5t-37.5 -63t-41 -42t-28 -18.5zM59 0v566h194v-410h220v-156h-414z" />
    <glyph glyph-name="lslash.aalt" horiz-adv-x="522" 
d="M59 0v215l-60 -17l-41 153l101 29v186h194v-130l91 26l41 -153l-132 -38v-115h220v-156h-414z" />
    <glyph glyph-name="ldot.aalt" horiz-adv-x="591" 
d="M567 372q0 -45 -25 -74.5t-84 -29.5t-84 28.5t-25 75.5q0 45 25 74t84 29t84 -29t25 -74zM59 0v566h194v-410h220v-156h-414z" />
    <glyph glyph-name="nacute.aalt" horiz-adv-x="688" 
d="M251 635l89 179h204l-132 -179h-161zM415 0l-178 307l8 -81v-226h-186v566h210l184 -316l-10 111v205h186v-566h-214z" />
    <glyph glyph-name="ncaron.aalt" horiz-adv-x="688" 
d="M262 635l-128 179h149l54 -78l54 78h149l-128 -179h-150zM415 0l-178 307l8 -81v-226h-186v566h210l184 -316l-10 111v205h186v-566h-214z" />
    <glyph glyph-name="ntilde.aalt" horiz-adv-x="688" 
d="M142 635q-1 5 -2 11q-1 5 -1.5 12t-0.5 17q0 27 7.5 52.5t22.5 45t38 31t54 11.5q22 0 41.5 -7.5t35 -16.5t28 -16.5t20.5 -7.5q20 0 20 23q0 6 -2 14q-1 4 -1 8h133l2 -14q1 -6 1.5 -13t0.5 -13q0 -27 -7.5 -52.5t-22.5 -45t-38 -31t-54 -11.5q-23 0 -41.5 7.5t-34 16.5
t-28 16.5t-22.5 7.5q-19 0 -19 -24q0 -11 1 -15t2 -6h-133zM415 0l-178 307l8 -81v-226h-186v566h210l184 -316l-10 111v205h186v-566h-214z" />
    <glyph glyph-name="ncommaaccent.aalt" horiz-adv-x="688" 
d="M247 -327q7 3 18.5 13.5t23.5 24t21.5 28.5t11.5 27q-39 2 -53.5 27.5t-14.5 57.5q0 38 22 63t75 25q39 0 67.5 -25.5t28.5 -83.5q0 -44 -16.5 -80.5t-37.5 -63t-41 -42t-28 -18.5zM415 0l-178 307l8 -81v-226h-186v566h210l184 -316l-10 111v205h186v-566h-214z" />
    <glyph glyph-name="ograve.aalt" horiz-adv-x="678" 
d="M251 635l-132 179h204l89 -179h-161zM334 -10q-72 0 -127.5 20.5t-93.5 58t-57.5 91t-19.5 119.5q0 69 20.5 123.5t60 93t96 59t128.5 20.5q71 0 127 -20t94.5 -57.5t59 -91t20.5 -120.5t-20.5 -121.5t-60 -93.5t-97 -60t-130.5 -21zM340 144q56 0 81.5 36.5t25.5 104.5
q0 65 -24.5 100.5t-81.5 35.5q-58 0 -84 -37t-26 -101q0 -66 26.5 -102.5t82.5 -36.5z" />
    <glyph glyph-name="oacute.aalt" horiz-adv-x="678" 
d="M233 635l89 179h204l-132 -179h-161zM334 -10q-72 0 -127.5 20.5t-93.5 58t-57.5 91t-19.5 119.5q0 69 20.5 123.5t60 93t96 59t128.5 20.5q71 0 127 -20t94.5 -57.5t59 -91t20.5 -120.5t-20.5 -121.5t-60 -93.5t-97 -60t-130.5 -21zM340 144q56 0 81.5 36.5t25.5 104.5
q0 65 -24.5 100.5t-81.5 35.5q-58 0 -84 -37t-26 -101q0 -66 26.5 -102.5t82.5 -36.5z" />
    <glyph glyph-name="ocircumflex.aalt" horiz-adv-x="678" 
d="M404 814l128 -179h-149l-54 78l-54 -78h-149l128 179h150zM334 -10q-72 0 -127.5 20.5t-93.5 58t-57.5 91t-19.5 119.5q0 69 20.5 123.5t60 93t96 59t128.5 20.5q71 0 127 -20t94.5 -57.5t59 -91t20.5 -120.5t-20.5 -121.5t-60 -93.5t-97 -60t-130.5 -21zM340 144
q56 0 81.5 36.5t25.5 104.5q0 65 -24.5 100.5t-81.5 35.5q-58 0 -84 -37t-26 -101q0 -66 26.5 -102.5t82.5 -36.5z" />
    <glyph glyph-name="otilde.aalt" horiz-adv-x="678" 
d="M124 635q-1 5 -2 11q-1 5 -1.5 12t-0.5 17q0 27 7.5 52.5t22.5 45t38 31t54 11.5q22 0 41.5 -7.5t35 -16.5t28 -16.5t20.5 -7.5q20 0 20 23q0 6 -2 14q-1 4 -1 8h133l2 -14q1 -6 1.5 -13t0.5 -13q0 -27 -7.5 -52.5t-22.5 -45t-38 -31t-54 -11.5q-23 0 -41.5 7.5t-34 16.5
t-28 16.5t-22.5 7.5q-19 0 -19 -24q0 -11 1 -15t2 -6h-133zM334 -10q-72 0 -127.5 20.5t-93.5 58t-57.5 91t-19.5 119.5q0 69 20.5 123.5t60 93t96 59t128.5 20.5q71 0 127 -20t94.5 -57.5t59 -91t20.5 -120.5t-20.5 -121.5t-60 -93.5t-97 -60t-130.5 -21zM340 144
q56 0 81.5 36.5t25.5 104.5q0 65 -24.5 100.5t-81.5 35.5q-58 0 -84 -37t-26 -101q0 -66 26.5 -102.5t82.5 -36.5z" />
    <glyph glyph-name="odieresis.aalt" horiz-adv-x="678" 
d="M300 727q0 -40 -21.5 -66t-72.5 -26q-50 0 -72 25t-22 67q0 40 22 65.5t72 25.5q51 0 72.5 -25.5t21.5 -65.5zM532 727q0 -40 -22 -66t-72 -26q-51 0 -72.5 25t-21.5 67q0 40 21.5 65.5t72.5 25.5q50 0 72 -25.5t22 -65.5zM334 -10q-72 0 -127.5 20.5t-93.5 58t-57.5 91
t-19.5 119.5q0 69 20.5 123.5t60 93t96 59t128.5 20.5q71 0 127 -20t94.5 -57.5t59 -91t20.5 -120.5t-20.5 -121.5t-60 -93.5t-97 -60t-130.5 -21zM340 144q56 0 81.5 36.5t25.5 104.5q0 65 -24.5 100.5t-81.5 35.5q-58 0 -84 -37t-26 -101q0 -66 26.5 -102.5t82.5 -36.5z
" />
    <glyph glyph-name="omacron.aalt" horiz-adv-x="678" 
d="M154 637v123h349v-123h-349zM334 -10q-72 0 -127.5 20.5t-93.5 58t-57.5 91t-19.5 119.5q0 69 20.5 123.5t60 93t96 59t128.5 20.5q71 0 127 -20t94.5 -57.5t59 -91t20.5 -120.5t-20.5 -121.5t-60 -93.5t-97 -60t-130.5 -21zM340 144q56 0 81.5 36.5t25.5 104.5
q0 65 -24.5 100.5t-81.5 35.5q-58 0 -84 -37t-26 -101q0 -66 26.5 -102.5t82.5 -36.5z" />
    <glyph glyph-name="obreve.aalt" horiz-adv-x="678" 
d="M510 823q0 -37 -10.5 -70.5t-32 -59t-56 -41t-82.5 -15.5q-44 0 -74.5 12t-51 30t-31.5 40t-16.5 43t-6.5 37.5t-1 23.5h127q0 -3 1 -13t6.5 -21t16 -19.5t30.5 -8.5q26 0 40 18.5t14 43.5h127zM334 -10q-72 0 -127.5 20.5t-93.5 58t-57.5 91t-19.5 119.5
q0 69 20.5 123.5t60 93t96 59t128.5 20.5q71 0 127 -20t94.5 -57.5t59 -91t20.5 -120.5t-20.5 -121.5t-60 -93.5t-97 -60t-130.5 -21zM340 144q56 0 81.5 36.5t25.5 104.5q0 65 -24.5 100.5t-81.5 35.5q-58 0 -84 -37t-26 -101q0 -66 26.5 -102.5t82.5 -36.5z" />
    <glyph glyph-name="ohungarumlaut.aalt" horiz-adv-x="678" 
d="M146 635l66 179h154l-67 -179h-153zM355 635l65 179h165l-97 -179h-133zM334 -10q-72 0 -127.5 20.5t-93.5 58t-57.5 91t-19.5 119.5q0 69 20.5 123.5t60 93t96 59t128.5 20.5q71 0 127 -20t94.5 -57.5t59 -91t20.5 -120.5t-20.5 -121.5t-60 -93.5t-97 -60t-130.5 -21z
M340 144q56 0 81.5 36.5t25.5 104.5q0 65 -24.5 100.5t-81.5 35.5q-58 0 -84 -37t-26 -101q0 -66 26.5 -102.5t82.5 -36.5z" />
    <glyph glyph-name="oslash.aalt" horiz-adv-x="678" 
d="M334 -10q-23 0 -45 3l-27 -77h-112l37 102q-74 33 -112.5 100t-38.5 161q0 69 20.5 123.5t60 93t96 59t128.5 20.5q22 0 45 -3l25 70h113l-35 -96q74 -32 113.5 -99t39.5 -161q0 -67 -20.5 -121.5t-60 -93.5t-97 -60t-130.5 -21zM447 285q0 59 -19 91l-84 -232
q54 2 78.5 38t24.5 103zM231 283q0 -56 18 -90l82 227q-53 -3 -76.5 -39.5t-23.5 -97.5z" />
    <glyph glyph-name="oe.aalt" horiz-adv-x="960" 
d="M635 412v-62h232v-134h-232v-62h271v-154h-415v23q-65 -33 -157 -33q-72 0 -127.5 20.5t-93.5 58t-57.5 91t-19.5 119.5q0 69 20.5 123.5t60 93t96 59t128.5 20.5q85 0 150 -31v22h415v-154h-271zM341 421q-58 0 -84 -37t-26 -101q0 -66 26.5 -102.5t82.5 -36.5
t81.5 36.5t25.5 104.5q0 65 -24.5 100.5t-81.5 35.5z" />
    <glyph glyph-name="racute.aalt" horiz-adv-x="651" 
d="M194 635l89 179h204l-132 -179h-161zM59 0v566h293q73 0 121 -16t76 -43.5t39 -65t11 -80.5q0 -54 -20.5 -98t-74.5 -70l107 -193h-210l-88 166h-60v-166h-194zM325 298q49 0 64 15.5t15 47.5t-15 44.5t-64 12.5h-72v-120h72z" />
    <glyph glyph-name="rcaron.aalt" horiz-adv-x="651" 
d="M230 635l-128 179h149l54 -78l54 78h149l-128 -179h-150zM59 0v566h293q73 0 121 -16t76 -43.5t39 -65t11 -80.5q0 -54 -20.5 -98t-74.5 -70l107 -193h-210l-88 166h-60v-166h-194zM325 298q49 0 64 15.5t15 47.5t-15 44.5t-64 12.5h-72v-120h72z" />
    <glyph glyph-name="rcommaaccent.aalt" horiz-adv-x="651" 
d="M219 -327q7 3 18.5 13.5t23.5 24t21.5 28.5t11.5 27q-39 2 -53.5 27.5t-14.5 57.5q0 38 22 63t75 25q39 0 67.5 -25.5t28.5 -83.5q0 -44 -16.5 -80.5t-37.5 -63t-41 -42t-28 -18.5zM59 0v566h293q73 0 121 -16t76 -43.5t39 -65t11 -80.5q0 -54 -20.5 -98t-74.5 -70
l107 -193h-210l-88 166h-60v-166h-194zM325 298q49 0 64 15.5t15 47.5t-15 44.5t-64 12.5h-72v-120h72z" />
    <glyph glyph-name="sacute.aalt" horiz-adv-x="559" 
d="M189 635l89 179h204l-132 -179h-161zM78 178q21 -12 47 -21q23 -8 54.5 -14.5t71.5 -6.5q32 0 50.5 5.5t18.5 18.5t-21.5 20.5t-66.5 21.5q-36 11 -71 25t-62.5 35.5t-45 54t-17.5 80.5t18.5 82t52 55.5t80.5 31t105 9.5q53 0 92 -6.5t65 -14.5q31 -9 53 -20l-42 -141
q-16 10 -39 18q-20 7 -48.5 12.5t-66.5 5.5q-34 0 -52.5 -5.5t-18.5 -19.5q0 -16 26.5 -23.5t84.5 -25.5q37 -12 69.5 -26t56.5 -34.5t37.5 -50.5t13.5 -73q0 -51 -19 -85.5t-54 -55.5t-84 -30.5t-110 -9.5q-57 0 -98 6t-67 14q-31 9 -51 20z" />
    <glyph glyph-name="scircumflex.aalt" horiz-adv-x="559" 
d="M359 814l128 -179h-149l-54 78l-54 -78h-149l128 179h150zM78 178q21 -12 47 -21q23 -8 54.5 -14.5t71.5 -6.5q32 0 50.5 5.5t18.5 18.5t-21.5 20.5t-66.5 21.5q-36 11 -71 25t-62.5 35.5t-45 54t-17.5 80.5t18.5 82t52 55.5t80.5 31t105 9.5q53 0 92 -6.5t65 -14.5
q31 -9 53 -20l-42 -141q-16 10 -39 18q-20 7 -48.5 12.5t-66.5 5.5q-34 0 -52.5 -5.5t-18.5 -19.5q0 -16 26.5 -23.5t84.5 -25.5q37 -12 69.5 -26t56.5 -34.5t37.5 -50.5t13.5 -73q0 -51 -19 -85.5t-54 -55.5t-84 -30.5t-110 -9.5q-57 0 -98 6t-67 14q-31 9 -51 20z" />
    <glyph glyph-name="scaron.aalt" horiz-adv-x="559" 
d="M209 635l-128 179h149l54 -78l54 78h149l-128 -179h-150zM78 178q21 -12 47 -21q23 -8 54.5 -14.5t71.5 -6.5q32 0 50.5 5.5t18.5 18.5t-21.5 20.5t-66.5 21.5q-36 11 -71 25t-62.5 35.5t-45 54t-17.5 80.5t18.5 82t52 55.5t80.5 31t105 9.5q53 0 92 -6.5t65 -14.5
q31 -9 53 -20l-42 -141q-16 10 -39 18q-20 7 -48.5 12.5t-66.5 5.5q-34 0 -52.5 -5.5t-18.5 -19.5q0 -16 26.5 -23.5t84.5 -25.5q37 -12 69.5 -26t56.5 -34.5t37.5 -50.5t13.5 -73q0 -51 -19 -85.5t-54 -55.5t-84 -30.5t-110 -9.5q-57 0 -98 6t-67 14q-31 9 -51 20z" />
    <glyph glyph-name="scedilla.aalt" horiz-adv-x="559" 
d="M78 178q21 -12 47 -21q23 -8 54.5 -14.5t71.5 -6.5q32 0 50.5 5.5t18.5 18.5t-21.5 20.5t-66.5 21.5q-36 11 -71 25t-62.5 35.5t-45 54t-17.5 80.5t18.5 82t52 55.5t80.5 31t105 9.5q53 0 92 -6.5t65 -14.5q31 -9 53 -20l-42 -141q-16 10 -39 18q-20 7 -48.5 12.5
t-66.5 5.5q-34 0 -52.5 -5.5t-18.5 -19.5q0 -16 26.5 -23.5t84.5 -25.5q37 -12 69.5 -26t56.5 -34.5t37.5 -50.5t13.5 -73q0 -89 -56.5 -130.5t-153.5 -48.5l-7 -31l12 1q48 0 81.5 -21t33.5 -72q0 -22 -8 -41.5t-26 -33.5t-47.5 -22.5t-72.5 -8.5q-23 0 -40 2t-29 4
q-14 3 -24 7l15 80q6 -3 16 -5q17 -5 44 -5q20 0 39.5 5.5t19.5 20.5q0 14 -16.5 18.5t-39.5 4.5q-12 0 -24 -1t-21 -2q-11 -1 -21 -2l24 101q-48 2 -82.5 8t-56.5 13q-26 8 -43 18z" />
    <glyph glyph-name="scommaaccent.aalt" horiz-adv-x="559" 
d="M200 -327q7 3 18.5 13.5t23.5 24t21.5 28.5t11.5 27q-39 2 -53.5 27.5t-14.5 57.5q0 38 22 63t75 25q39 0 67.5 -25.5t28.5 -83.5q0 -44 -16.5 -80.5t-37.5 -63t-41 -42t-28 -18.5zM78 178q21 -12 47 -21q23 -8 54.5 -14.5t71.5 -6.5q32 0 50.5 5.5t18.5 18.5t-21.5 20.5
t-66.5 21.5q-36 11 -71 25t-62.5 35.5t-45 54t-17.5 80.5t18.5 82t52 55.5t80.5 31t105 9.5q53 0 92 -6.5t65 -14.5q31 -9 53 -20l-42 -141q-16 10 -39 18q-20 7 -48.5 12.5t-66.5 5.5q-34 0 -52.5 -5.5t-18.5 -19.5q0 -16 26.5 -23.5t84.5 -25.5q37 -12 69.5 -26
t56.5 -34.5t37.5 -50.5t13.5 -73q0 -51 -19 -85.5t-54 -55.5t-84 -30.5t-110 -9.5q-57 0 -98 6t-67 14q-31 9 -51 20z" />
    <glyph glyph-name="tcaron.aalt" horiz-adv-x="570" 
d="M209 635l-128 179h149l54 -78l54 78h149l-128 -179h-150zM188 0v410h-169v156h532v-156h-169v-410h-194z" />
    <glyph glyph-name="uni021B.aalt" horiz-adv-x="570" 
d="M183 -327q7 3 18.5 13.5t23.5 24t21.5 28.5t11.5 27q-39 2 -53.5 27.5t-14.5 57.5q0 38 22 63t75 25q39 0 67.5 -25.5t28.5 -83.5q0 -44 -16.5 -80.5t-37.5 -63t-41 -42t-28 -18.5zM188 0v410h-169v156h532v-156h-169v-410h-194z" />
    <glyph glyph-name="tcommaaccent.aalt" horiz-adv-x="570" 
d="M330 0l-9 -39l12 1q48 0 81.5 -21t33.5 -72q0 -22 -8 -41.5t-26 -33.5t-47.5 -22.5t-72.5 -8.5q-23 0 -40 2t-29 4q-14 3 -24 7l15 80q6 -3 16 -5q17 -5 44 -5q20 0 39.5 5.5t19.5 20.5q0 14 -16.5 18.5t-39.5 4.5q-12 0 -24 -1t-21 -2q-11 -1 -21 -2l27 110h-52v410
h-169v156h532v-156h-169v-410h-52z" />
    <glyph glyph-name="tbar.aalt" horiz-adv-x="570" 
d="M188 0v219h-80v98h80v93h-169v156h532v-156h-169v-93h82v-98h-82v-219h-194z" />
    <glyph glyph-name="thorn.aalt" horiz-adv-x="627" 
d="M253 566v-66h89q73 0 121 -16.5t75.5 -45t38.5 -67t11 -81.5q0 -40 -11 -78.5t-38.5 -68.5t-75 -48.5t-120.5 -18.5h-90v-76h-194v566h194zM253 223h60q49 0 64 17.5t15 49.5t-15 47t-64 15h-60v-129z" />
    <glyph glyph-name="ugrave.aalt" horiz-adv-x="667" 
d="M247 635l-132 179h204l89 -179h-161zM419 566h194v-329q0 -121 -69.5 -184t-210.5 -63t-210 63t-69 184v329h194v-314q0 -23 3.5 -43t13 -34.5t26 -22.5t42.5 -8t42.5 8t26.5 22.5t13.5 34.5t3.5 43v314z" />
    <glyph glyph-name="uacute.aalt" horiz-adv-x="667" 
d="M239 635l89 179h204l-132 -179h-161zM419 566h194v-329q0 -121 -69.5 -184t-210.5 -63t-210 63t-69 184v329h194v-314q0 -23 3.5 -43t13 -34.5t26 -22.5t42.5 -8t42.5 8t26.5 22.5t13.5 34.5t3.5 43v314z" />
    <glyph glyph-name="ucircumflex.aalt" horiz-adv-x="667" 
d="M399 814l128 -179h-149l-54 78l-54 -78h-149l128 179h150zM419 566h194v-329q0 -121 -69.5 -184t-210.5 -63t-210 63t-69 184v329h194v-314q0 -23 3.5 -43t13 -34.5t26 -22.5t42.5 -8t42.5 8t26.5 22.5t13.5 34.5t3.5 43v314z" />
    <glyph glyph-name="utilde.aalt" horiz-adv-x="667" 
d="M133 635q-1 5 -2 11q-1 5 -1.5 12t-0.5 17q0 27 7.5 52.5t22.5 45t38 31t54 11.5q22 0 41.5 -7.5t35 -16.5t28 -16.5t20.5 -7.5q20 0 20 23q0 6 -2 14q-1 4 -1 8h133l2 -14q1 -6 1.5 -13t0.5 -13q0 -27 -7.5 -52.5t-22.5 -45t-38 -31t-54 -11.5q-23 0 -41.5 7.5t-34 16.5
t-28 16.5t-22.5 7.5q-19 0 -19 -24q0 -11 1 -15t2 -6h-133zM419 566h194v-329q0 -121 -69.5 -184t-210.5 -63t-210 63t-69 184v329h194v-314q0 -23 3.5 -43t13 -34.5t26 -22.5t42.5 -8t42.5 8t26.5 22.5t13.5 34.5t3.5 43v314z" />
    <glyph glyph-name="udieresis.aalt" horiz-adv-x="667" 
d="M308 727q0 -40 -21.5 -66t-72.5 -26q-50 0 -72 25t-22 67q0 40 22 65.5t72 25.5q51 0 72.5 -25.5t21.5 -65.5zM540 727q0 -40 -22 -66t-72 -26q-51 0 -72.5 25t-21.5 67q0 40 21.5 65.5t72.5 25.5q50 0 72 -25.5t22 -65.5zM419 566h194v-329q0 -121 -69.5 -184
t-210.5 -63t-210 63t-69 184v329h194v-314q0 -23 3.5 -43t13 -34.5t26 -22.5t42.5 -8t42.5 8t26.5 22.5t13.5 34.5t3.5 43v314z" />
    <glyph glyph-name="umacron.aalt" horiz-adv-x="667" 
d="M157 637v123h349v-123h-349zM419 566h194v-329q0 -121 -69.5 -184t-210.5 -63t-210 63t-69 184v329h194v-314q0 -23 3.5 -43t13 -34.5t26 -22.5t42.5 -8t42.5 8t26.5 22.5t13.5 34.5t3.5 43v314z" />
    <glyph glyph-name="ubreve.aalt" horiz-adv-x="667" 
d="M509 823q0 -37 -10.5 -70.5t-32 -59t-56 -41t-82.5 -15.5q-44 0 -74.5 12t-51 30t-31.5 40t-16.5 43t-6.5 37.5t-1 23.5h127q0 -3 1 -13t6.5 -21t16 -19.5t30.5 -8.5q26 0 40 18.5t14 43.5h127zM419 566h194v-329q0 -121 -69.5 -184t-210.5 -63t-210 63t-69 184v329h194
v-314q0 -23 3.5 -43t13 -34.5t26 -22.5t42.5 -8t42.5 8t26.5 22.5t13.5 34.5t3.5 43v314z" />
    <glyph glyph-name="uring.aalt" horiz-adv-x="667" 
d="M325 634q-71 0 -104.5 37t-33.5 93q0 66 39.5 102t106.5 36q69 0 104 -36t35 -98q0 -60 -34.5 -97t-112.5 -37zM330 727q37 0 37 43q0 17 -8 28t-27 11q-20 0 -30 -11.5t-10 -29.5q0 -19 9 -30t29 -11zM419 566h194v-329q0 -121 -69.5 -184t-210.5 -63t-210 63t-69 184
v329h194v-314q0 -23 3.5 -43t13 -34.5t26 -22.5t42.5 -8t42.5 8t26.5 22.5t13.5 34.5t3.5 43v314z" />
    <glyph glyph-name="uhungarumlaut.aalt" horiz-adv-x="667" 
d="M152 635l66 179h154l-67 -179h-153zM361 635l65 179h165l-97 -179h-133zM419 566h194v-329q0 -121 -69.5 -184t-210.5 -63t-210 63t-69 184v329h194v-314q0 -23 3.5 -43t13 -34.5t26 -22.5t42.5 -8t42.5 8t26.5 22.5t13.5 34.5t3.5 43v314z" />
    <glyph glyph-name="uogonek.aalt" horiz-adv-x="667" 
d="M419 566h194v-329q0 -193 -175 -236q-34 -11 -52 -31.5t-18 -36.5q0 -11 10.5 -18.5t33.5 -7.5q11 0 23.5 2t28.5 6l4 -109q-58 -23 -121 -23q-29 0 -55 5.5t-46 16.5t-32 28.5t-12 40.5q0 33 21 64.5t54 54.5q-113 12 -168 73.5t-55 170.5v329h194v-314q0 -23 3.5 -43
t13 -34.5t26 -22.5t42.5 -8t42.5 8t26.5 22.5t13.5 34.5t3.5 43v314z" />
    <glyph glyph-name="wacute.aalt" horiz-adv-x="896" 
d="M362 635l89 179h204l-132 -179h-161zM212 566l53 -306l11 -75l15 75l71 306h172l70 -304l15 -77l12 78l53 303h203l-137 -566h-215l-69 264l-18 79l-18 -79l-69 -264h-215l-137 566h203z" />
    <glyph glyph-name="wcircumflex.aalt" horiz-adv-x="896" 
d="M523 814l128 -179h-149l-54 78l-54 -78h-149l128 179h150zM212 566l53 -306l11 -75l15 75l71 306h172l70 -304l15 -77l12 78l53 303h203l-137 -566h-215l-69 264l-18 79l-18 -79l-69 -264h-215l-137 566h203z" />
    <glyph glyph-name="wdieresis.aalt" horiz-adv-x="896" 
d="M425 727q0 -40 -21.5 -66t-72.5 -26q-50 0 -72 25t-22 67q0 40 22 65.5t72 25.5q51 0 72.5 -25.5t21.5 -65.5zM657 727q0 -40 -22 -66t-72 -26q-51 0 -72.5 25t-21.5 67q0 40 21.5 65.5t72.5 25.5q50 0 72 -25.5t22 -65.5zM212 566l53 -306l11 -75l15 75l71 306h172
l70 -304l15 -77l12 78l53 303h203l-137 -566h-215l-69 264l-18 79l-18 -79l-69 -264h-215l-137 566h203z" />
    <glyph glyph-name="wgrave.aalt" horiz-adv-x="896" 
d="M362 635l-132 179h204l89 -179h-161zM212 566l53 -306l11 -75l15 75l71 306h172l70 -304l15 -77l12 78l53 303h203l-137 -566h-215l-69 264l-18 79l-18 -79l-69 -264h-215l-137 566h203z" />
    <glyph glyph-name="yacute.aalt" horiz-adv-x="628" 
d="M222 635l89 179h204l-132 -179h-161zM214 566l82 -182l19 -49l18 50l79 181h207l-202 -381v-185h-205v183l-203 383h205z" />
    <glyph glyph-name="ycircumflex.aalt" horiz-adv-x="628" 
d="M385 814l128 -179h-149l-54 78l-54 -78h-149l128 179h150zM214 566l82 -182l19 -49l18 50l79 181h207l-202 -381v-185h-205v183l-203 383h205z" />
    <glyph glyph-name="ydieresis.aalt" horiz-adv-x="628" 
d="M291 727q0 -40 -21.5 -66t-72.5 -26q-50 0 -72 25t-22 67q0 40 22 65.5t72 25.5q51 0 72.5 -25.5t21.5 -65.5zM523 727q0 -40 -22 -66t-72 -26q-51 0 -72.5 25t-21.5 67q0 40 21.5 65.5t72.5 25.5q50 0 72 -25.5t22 -65.5zM214 566l82 -182l19 -49l18 50l79 181h207
l-202 -381v-185h-205v183l-203 383h205z" />
    <glyph glyph-name="ygrave.aalt" horiz-adv-x="628" 
d="M226 635l-132 179h204l89 -179h-161zM214 566l82 -182l19 -49l18 50l79 181h207l-202 -381v-185h-205v183l-203 383h205z" />
    <glyph glyph-name="zacute.aalt" horiz-adv-x="603" 
d="M207 635l89 179h204l-132 -179h-161zM57 566h494v-134l-250 -281l43 3h213v-154h-511v134l252 282l-40 -4h-201v154z" />
    <glyph glyph-name="zcaron.aalt" horiz-adv-x="603" 
d="M224 635l-128 179h149l54 -78l54 78h149l-128 -179h-150zM57 566h494v-134l-250 -281l43 3h213v-154h-511v134l252 282l-40 -4h-201v154z" />
    <glyph glyph-name="zdotaccent.aalt" horiz-adv-x="603" 
d="M410 734q0 -42 -24 -69.5t-80 -27.5t-80.5 26.5t-24.5 70.5q0 42 24.5 69t80.5 27t80 -27t24 -69zM57 566h494v-134l-250 -281l43 3h213v-154h-511v134l252 282l-40 -4h-201v154z" />
    <glyph glyph-name="ij.aalt" horiz-adv-x="759" 
d="M253 0h-194v566h194v-566zM705 566v-348q0 -47 -11.5 -88t-38.5 -72.5t-71.5 -49.5t-109.5 -18q-33 0 -57 3.5t-41 8.5q-19 5 -33 13l22 139q7 -4 18 -7q9 -2 21 -4t27 -2q35 0 57.5 16t22.5 58v351h194z" />
    <glyph glyph-name="germandbls.aalt" horiz-adv-x="1110" 
d="M78 178q21 -12 47 -21q23 -8 54.5 -14.5t71.5 -6.5q32 0 50.5 5.5t18.5 18.5t-21.5 20.5t-66.5 21.5q-36 11 -71 25t-62.5 35.5t-45 54t-17.5 80.5t18.5 82t52 55.5t80.5 31t105 9.5q53 0 92 -6.5t65 -14.5q31 -9 53 -20l-42 -141q-16 10 -39 18q-20 7 -48.5 12.5
t-66.5 5.5q-34 0 -52.5 -5.5t-18.5 -19.5q0 -16 26.5 -23.5t84.5 -25.5q37 -12 69.5 -26t56.5 -34.5t37.5 -50.5t13.5 -73q0 -51 -19 -85.5t-54 -55.5t-84 -30.5t-110 -9.5q-57 0 -98 6t-67 14q-31 9 -51 20zM629 178q21 -12 47 -21q23 -8 54.5 -14.5t71.5 -6.5
q32 0 50.5 5.5t18.5 18.5t-21.5 20.5t-66.5 21.5q-36 11 -71 25t-62.5 35.5t-45 54t-17.5 80.5t18.5 82t52 55.5t80.5 31t105 9.5q53 0 92 -6.5t65 -14.5q31 -9 53 -20l-42 -141q-16 10 -39 18q-20 7 -48.5 12.5t-66.5 5.5q-34 0 -52.5 -5.5t-18.5 -19.5q0 -16 26.5 -23.5
t84.5 -25.5q37 -12 69.5 -26t56.5 -34.5t37.5 -50.5t13.5 -73q0 -51 -19 -85.5t-54 -55.5t-84 -30.5t-110 -9.5q-57 0 -98 6t-67 14q-31 9 -51 20z" />
    <glyph glyph-name="eng.aalt" horiz-adv-x="688" 
d="M629 -19q0 -48 -16.5 -85t-44.5 -61.5t-64.5 -37.5t-76.5 -13q-35 0 -56 3q-12 2 -22 4l7 129q15 -3 29 -3q27 0 45.5 14.5t18.5 43.5v25h-34l-178 307l8 -81v-226h-186v566h210l184 -316l-10 111v205h186v-585v0z" />
    <glyph glyph-name="grave.aalt" horiz-adv-x="351" 
d="M161 635l-132 179h204l89 -179h-161z" />
    <glyph glyph-name="acute.aalt" horiz-adv-x="351" 
d="M29 635l89 179h204l-132 -179h-161z" />
    <glyph glyph-name="circumflex.aalt" horiz-adv-x="466" 
d="M283 635l-49 71l-49 -71h-161l124 179h170l124 -179h-159z" />
    <glyph glyph-name="caron.aalt" horiz-adv-x="454" 
d="M152 634l-128 179h159l43 -88l43 88h161l-128 -179h-150z" />
    <glyph glyph-name="tilde.aalt" horiz-adv-x="449" 
d="M28 637q-2 10 -3 20t-1 20q0 27 7.5 52.5t22.5 45t38 31t54 11.5q22 0 41.5 -7.5t35 -16.5t28 -16.5t20.5 -7.5q20 0 20 23q0 11 -4 22h134q2 -10 3 -20t1 -20q0 -27 -7.5 -52.5t-22.5 -45t-38 -31t-54 -11.5q-23 0 -41.5 7.5t-34 16.5t-28 16.5t-22.5 7.5q-19 0 -19 -24
q0 -5 1 -10t3 -11h-134z" />
    <glyph glyph-name="dieresis.aalt" horiz-adv-x="478" 
d="M217 729q0 -40 -21.5 -66t-72.5 -26q-50 0 -72 25t-22 67q0 40 22 65.5t72 25.5q51 0 72.5 -25.5t21.5 -65.5zM449 729q0 -40 -22 -66t-72 -26q-51 0 -72.5 25t-21.5 67q0 40 21.5 65.5t72.5 25.5q50 0 72 -25.5t22 -65.5z" />
    <glyph glyph-name="macron.aalt" horiz-adv-x="407" 
d="M29 637v142h349v-142h-349z" />
    <glyph glyph-name="breve.aalt" horiz-adv-x="422" 
d="M392 823q0 -37 -11.5 -70.5t-34.5 -59t-57 -41t-78 -15.5t-74.5 12t-51 30t-31.5 40t-16.5 43t-6.5 37.5t-1 23.5h127q0 -3 1 -13t6.5 -21t16 -19.5t30.5 -8.5q26 0 40 18.5t14 43.5h127v0z" />
    <glyph glyph-name="ring.aalt" horiz-adv-x="343" 
d="M167 637q-71 0 -104.5 37t-33.5 93q0 66 39.5 102t106.5 36q69 0 104 -36t35 -98q0 -60 -34.5 -97t-112.5 -37zM172 730q37 0 37 43q0 17 -8 28t-27 11q-20 0 -30 -11.5t-10 -29.5q0 -19 9 -30t29 -11z" />
    <glyph glyph-name="hungarumlaut.aalt" horiz-adv-x="517" 
d="M29 637l66 179h164l-67 -179h-163zM248 637l65 179h175l-97 -179h-143z" />
    <glyph glyph-name="dotaccent.aalt" horiz-adv-x="267" 
d="M238 734q0 -42 -24 -69.5t-80 -27.5t-80.5 26.5t-24.5 70.5q0 42 24.5 69t80.5 27t80 -27t24 -69z" />
    <glyph glyph-name="exclamdown.aalt" horiz-adv-x="304" 
d="M239 365l16 -366h-206l16 366h174zM54 489q0 38 26 62t74 24t73.5 -24t25.5 -62t-25.5 -61.5t-73.5 -23.5t-74 23.5t-26 61.5z" />
    <glyph glyph-name="questiondown.aalt" horiz-adv-x="526" 
d="M389 364q6 -26 6 -47q0 -33 -11.5 -54.5t-28.5 -35.5t-37.5 -22.5t-37.5 -15t-28.5 -12.5t-11.5 -15q0 -15 18.5 -22t59.5 -7q29 0 55.5 3t46.5 8q23 4 43 11l31 -133q-21 -9 -51 -16q-26 -6 -65 -11t-93 -5q-74 0 -122.5 10t-77 29t-40 46t-11.5 61q0 38 12 62
t30.5 39.5t39.5 25.5t39.5 20t30.5 23t12 34q0 6 -2 16q-1 4 -1 8h194zM188 489q0 46 28 66t76 20t76.5 -20t28.5 -66t-28.5 -65.5t-76.5 -19.5t-76 19.5t-28 65.5z" />
    <glyph glyph-name="Euro.aalt" horiz-adv-x="590" 
d="M418 180h-114q17 -23 43 -31.5t61 -8.5q25 0 45.5 2.5t34.5 5.5q17 4 30 9l23 -143q-18 -7 -42 -12q-20 -5 -49 -8.5t-65 -3.5q-121 0 -190.5 48.5t-92.5 141.5h-60v80h49v22v20h-49v80h60q23 94 92.5 143.5t190.5 49.5q36 0 65 -3.5t49 -8.5q24 -5 42 -12l-23 -143
q-13 4 -30 8q-14 3 -35 6t-46 3q-35 0 -62 -9t-44 -34h117v-80h-138v-19v-12t1 -11h137v-80z" />
    <glyph glyph-name="cent.aalt" horiz-adv-x="487" 
d="M415 350q-11 3 -24 6q-11 2 -26 4.5t-33 2.5q-45 0 -73 -17.5t-28 -64.5t28 -64.5t73 -17.5q17 0 32.5 2t26.5 4q13 3 24 6l16 -129q-11 -2 -24 -5q-11 -2 -26 -4t-33 -4v-69h-127v73q-86 16 -134.5 66.5t-48.5 141.5q0 90 49 140.5t134 66.5v78h127v-73q19 -2 34 -4
t26 -4q12 -3 23 -5l-16 -130v0z" />
    <glyph glyph-name="sterling.aalt" horiz-adv-x="564" 
d="M520 63q-14 -20 -30.5 -32.5t-33.5 -19t-33.5 -9t-29.5 -2.5q-20 0 -39.5 4t-39.5 9t-40.5 9t-41.5 4t-40 -5.5t-40 -20.5l-91 135q21 17 30 41t12 55h-59v117h64v17q0 103 60.5 156.5t184.5 53.5q32 0 58 -3.5t43 -7.5q20 -4 36 -10l-25 -132q-11 2 -23 5q-11 2 -25 3.5
t-31 1.5q-20 0 -37 -2t-29 -9t-19 -19t-7 -32v-22h112v-117h-122q-9 -44 -36 -72q13 3 27 3q17 0 30 -3t25 -7t23.5 -7t26.5 -3q14 0 31.5 5t39.5 24z" />
    <glyph glyph-name="florin.aalt" horiz-adv-x="500" 
d="M434 459l-12 2q-5 1 -13 2t-16 1q-26 0 -47.5 -10t-23.5 -38l-10 -107h115v-125h-125l-18 -186q-5 -47 -24 -80t-48.5 -53t-66 -29t-76.5 -9q-22 0 -39.5 1.5t-29.5 3.5q-15 3 -26 6l10 125q5 -2 11 -4q10 -3 30 -3q26 0 47 8.5t23 35.5l17 184h-98v125h110l8 109
q4 55 26 89.5t54 54t70 26t74 6.5q22 0 39 -2t30 -4q14 -3 26 -5l-17 -124v0z" />
    <glyph glyph-name="yen.aalt" horiz-adv-x="600" 
d="M394 100v-100h-187v100h-141v84h141v34h-141v84h108l-150 264h194l82 -187l78 187h198l-150 -264h108v-84h-140v-34h140v-84h-140z" />
    <glyph glyph-name="perthousand.aalt" horiz-adv-x="1050" 
d="M119 0l380 566h101l-380 -566h-101zM180 278q-37 0 -64.5 11t-45.5 30.5t-27 46t-9 56.5q0 69 40 111t106 42q69 0 107 -41.5t38 -107.5q0 -64 -36 -106t-109 -42zM179 375q35 0 35 52q0 50 -34 50q-35 0 -35 -51t34 -51zM548 -10q-37 0 -64.5 11t-45.5 30.5t-27 46
t-9 56.5q0 69 40 111t106 42q69 0 107 -41.5t38 -107.5q0 -64 -36 -106t-109 -42zM547 87q35 0 35 52q0 50 -34 50q-35 0 -35 -51t34 -51zM871 -10q-37 0 -64.5 11t-45.5 30.5t-27 46t-9 56.5q0 69 40 111t106 42q69 0 107 -41.5t38 -107.5q0 -64 -36 -106t-109 -42zM870 87
q35 0 35 52q0 50 -34 50q-35 0 -35 -51t34 -51z" />
    <glyph glyph-name="cedilla.aalt" horiz-adv-x="293" 
d="M151 22l-14 -61l12 1q48 0 81.5 -21t33.5 -72q0 -22 -8 -41.5t-26 -33.5t-47.5 -22.5t-72.5 -8.5q-23 0 -40 2t-29 4q-14 3 -24 7l15 80q6 -3 16 -5q17 -5 44 -5q20 0 39.5 5.5t19.5 20.5q0 14 -16.5 18.5t-39.5 4.5q-12 0 -24 -1t-21 -2q-11 -1 -21 -2l35 141z" />
    <glyph glyph-name="ogonek.aalt" horiz-adv-x="324" 
d="M282 -1q-42 -9 -64.5 -28.5t-22.5 -36.5q0 -11 10.5 -18.5t33.5 -7.5q11 0 23.5 2t28.5 6l4 -109q-58 -23 -121 -23q-29 0 -55 5.5t-46 16.5t-32 28.5t-12 40.5q0 25 13 47.5t34 42t49 34.5t58 24z" />
    <glyph glyph-name="uniFB01.aalt" horiz-adv-x="865" 
d="M253 181v-181h-194v566h461v-154h-267v-93h228v-138h-228zM612 0v566h194v-566h-194z" />
    <glyph glyph-name="uniFB02.aalt" horiz-adv-x="1078" 
d="M253 181v-181h-194v566h461v-154h-267v-93h228v-138h-228zM615 0v566h194v-410h220v-156h-414z" />
    <glyph glyph-name="glyph607" horiz-adv-x="544" 
d="M346 537q27 -2 52 -6.5t44 -9.5q22 -5 41 -12l-39 -140q-18 7 -39 13q-18 5 -43.5 9.5t-55.5 4.5q-12 0 -25 -1t-24 -3.5t-18.5 -7.5t-7.5 -12q0 -16 30.5 -23.5t75.5 -20.5q29 -8 58.5 -20t53.5 -31t39 -47.5t15 -69.5q0 -27 -8 -53t-26 -48t-48 -38.5t-73 -24.5v-85
h-126v78q-42 1 -74 6.5t-55 10.5q-26 6 -47 14l32 136q23 -9 49 -16q23 -6 53.5 -10.5t67.5 -4.5q32 0 48 5.5t16 19.5q0 15 -18.5 22t-58.5 17q-30 7 -64 18t-63 30.5t-48 51t-19 80.5q0 66 41.5 109.5t136.5 55.5v79h127v-76z" />
    <glyph glyph-name="glyph608" horiz-adv-x="595" 
d="M314 171q19 -19 46 -27t60 -8q25 0 45.5 2.5t34.5 5.5q17 4 30 9l23 -141q-18 -7 -42 -12q-20 -5 -49 -8.5t-65 -3.5q-123 0 -196 47t-96 136h-59v71h48v21v21h-48v72h59q24 90 97 136.5t195 46.5q36 0 65 -3.5t49 -8.5q24 -5 42 -12l-23 -141q-13 4 -30 8q-14 3 -35 6
t-46 3q-33 0 -60 -8t-45 -27h117v-72h-147q-1 -5 -1 -10v-10v-11.5t1 -10.5h147v-71h-117z" />
    <glyph glyph-name="glyph609" horiz-adv-x="530" 
d="M446 361q-12 3 -26 7q-12 3 -28 5.5t-33 2.5q-55 0 -87.5 -28t-32.5 -88q0 -61 33 -85.5t87 -24.5q19 0 34.5 2t27.5 5q13 3 25 7l25 -141q-12 -4 -27 -8q-13 -3 -30.5 -6.5t-39.5 -5.5v-88h-148v95q-91 22 -139 86t-48 163q0 98 47.5 164.5t139.5 90.5v101h148v-92
q23 -2 40.5 -5t30.5 -6q15 -4 26 -8l-25 -143v0z" />
    </font>
</defs>
</svg>
